SplineFontDB: 3.0
FontName: Cookie-Regular
FullName: Cookie Regular
FamilyName: Cookie
Weight: Regular
Copyright: Copyright (c) 2011 by Ania Kruk (hello@aniakruk.com), with Reserved Font Name Cookie.
Version: 001.004
ItalicAngle: 0
UnderlinePosition: -50
UnderlineWidth: 50
Ascent: 800
Descent: 200
sfntRevision: 0x00010106
LayerCount: 2
Layer: 0 1 "Back"  1
Layer: 1 1 "Fore"  0
NeedsXUIDChange: 1
XUID: [1021 288 713564382 765220]
FSType: 0
OS2Version: 2
OS2_WeightWidthSlopeOnly: 0
OS2_UseTypoMetrics: 1
CreationTime: 1319445778
ModificationTime: 1319471044
PfmFamily: 17
TTFWeight: 400
TTFWidth: 5
LineGap: 0
VLineGap: 0
Panose: 2 0 0 0 0 0 0 0 0 0
OS2TypoAscent: 789
OS2TypoAOffset: 0
OS2TypoDescent: -320
OS2TypoDOffset: 0
OS2TypoLinegap: 0
OS2WinAscent: 789
OS2WinAOffset: 0
OS2WinDescent: 320
OS2WinDOffset: 0
HheadAscent: 789
HheadAOffset: 0
HheadDescent: -320
HheadDOffset: 0
OS2SubXSize: 700
OS2SubYSize: 650
OS2SubXOff: 0
OS2SubYOff: 140
OS2SupXSize: 700
OS2SupYSize: 650
OS2SupXOff: 0
OS2SupYOff: 477
OS2StrikeYSize: 50
OS2StrikeYPos: 250
OS2Vendor: 'pyrs'
OS2CodePages: 20000111.00000000
OS2UnicodeRanges: 800000a7.0000004a.00000000.00000000
Lookup: 4 0 1 "'liga' Standard Ligatures in Latin lookup 0"  {"'liga' Standard Ligatures in Latin lookup 0 subtable"  } ['liga' ('latn' <'PLK ' 'dflt' > ) ]
Lookup: 1 0 0 "'init' Initial Forms in Latin lookup 1"  {"'init' Initial Forms in Latin lookup 1 subtable"  } ['init' ('latn' <'PLK ' 'dflt' > ) ]
Lookup: 1 0 0 "'fina' Terminal Forms in Latin lookup 2"  {"'fina' Terminal Forms in Latin lookup 2 subtable"  } ['fina' ('latn' <'PLK ' 'dflt' > ) ]
MarkAttachClasses: 1
DEI: 91125
TtTable: prep
PUSHW_1
 511
SCANCTRL
PUSHB_1
 4
SCANTYPE
EndTTInstrs

StartChar: o
Encoding: 111 111 4
Width: 364
Flags: HMW
HStem: -5 45<120.5 183.5 120.5 187.5> 164 39<181 249> 164 181<97 218> 332 33<190.5 210>
VStem: 0 70<149.5 193.5 149.5 200> 102 50<260.5 268> 249 64
LayerCount: 2
Fore
SplineSet
313 217 m 1,0,1
 353 230 353 230 368.5 239.5 c 128,-1,2
 384 249 384 249 391.5 253.5 c 2,3,-1
 404 261 l 2,4,5
 409 264 409 264 412 264 c 0,6,7
 420 264 420 264 420 255 c 128,-1,8
 420 246 420 246 389 223.5 c 128,-1,9
 358 201 358 201 312 183 c 1,10,11
 305 99 305 99 259 47 c 128,-1,12
 213 -5 213 -5 128 -5 c 0,13,14
 66 -5 66 -5 33 44.5 c 128,-1,15
 0 94 0 94 0 160.5 c 128,-1,16
 0 227 0 227 39.5 286 c 128,-1,17
 79 345 79 345 141 345 c 1,18,19
 169 365 169 365 207.5 365 c 128,-1,20
 246 365 246 365 279 324 c 128,-1,21
 312 283 312 283 313 217 c 1,0,1
248 166 m 1,22,-1
 212 164 l 1,23,24
 166 164 166 164 134 191.5 c 128,-1,25
 102 219 102 219 102 252 c 128,-1,26
 102 285 102 285 113 309 c 1,27,28
 70 275 70 275 70 175 c 0,29,30
 70 127 70 127 90 83.5 c 128,-1,31
 110 40 110 40 153 40 c 128,-1,32
 196 40 196 40 220 76.5 c 128,-1,33
 244 113 244 113 248 166 c 1,22,-1
186 332 m 0,34,35
 170 332 170 332 161 317.5 c 128,-1,36
 152 303 152 303 152 286 c 0,37,38
 152 249 152 249 177.5 226 c 128,-1,39
 203 203 203 203 237 203 c 2,40,-1
 249 203 l 1,41,42
 247 252 247 252 232.5 292 c 128,-1,43
 218 332 218 332 186 332 c 0,34,35
EndSplineSet
EndChar

StartChar: underscore
Encoding: 95 95 5
Width: 460
Flags: HMW
HStem: -104 21G<343.5 410> -96 45<180 183> -96 67
LayerCount: 2
Fore
SplineSet
140 -96 m 1,0,-1
 20 -101 l 2,1,2
 -1 -101 -1 -101 -1 -81 c 0,3,4
 -1 -68 -1 -68 9 -53.5 c 128,-1,5
 19 -39 19 -39 29 -39 c 0,6,7
 30 -39 30 -39 57.5 -42 c 0,8,9
 140 -51 140 -51 256 -51 c 128,-1,10
 372 -51 372 -51 398 -40 c 128,-1,11
 424 -29 424 -29 433 -29 c 128,-1,12
 442 -29 442 -29 442 -43.5 c 128,-1,13
 442 -58 442 -58 428 -81 c 128,-1,14
 414 -104 414 -104 400 -104 c 0,15,16
 340 -104 340 -104 260 -100 c 128,-1,17
 180 -96 180 -96 140 -96 c 1,0,-1
EndSplineSet
EndChar

StartChar: m
Encoding: 109 109 6
Width: 542
Flags: HMW
HStem: -5 21G<54.5 74.5 241.5 261.5 423.5 459.5> 276 79<183.5 239> 345 20G<84.5 101.5>
VStem: 11 73 191 88 203 76<208.5 318.5> 390 57 390 76<213 320.5>
LayerCount: 2
Fore
SplineSet
83 54 m 2,0,-1
 84 23 l 2,1,2
 84 -5 84 -5 68 -5 c 0,3,4
 44 -5 44 -5 22 1.5 c 128,-1,5
 0 8 0 8 0 19.5 c 128,-1,6
 0 31 0 31 5.5 98.5 c 128,-1,7
 11 166 11 166 11 200 c 2,8,-1
 11 259 l 2,9,10
 11 307 11 307 21 317 c 128,-1,11
 31 327 31 327 56.5 346 c 128,-1,12
 82 365 82 365 93.5 365 c 128,-1,13
 105 365 105 365 108 361 c 128,-1,14
 111 357 111 357 111 346 c 0,15,16
 111 293 111 293 91 246 c 1,17,18
 86 189 86 189 86 167 c 1,19,20
 139.28358209 265.955223881 139.28358209 265.955223881 159.641791045 297.47761194 c 0,21,22
 196.791666667 355 196.791666667 355 227 355 c 0,23,24
 246 355 246 355 262.5 340 c 128,-1,25
 279 325 279 325 279 303 c 128,-1,26
 279 281 279 281 278.5 261.5 c 128,-1,27
 278 242 278 242 277 231 c 128,-1,28
 276 220 276 220 276 217 c 1,29,30
 280.2 225.4 280.2 225.4 310.1 262.2 c 128,-1,31
 340 299 340 299 350.5 310 c 128,-1,32
 361 321 361 321 373 332.5 c 0,33,34
 396.47826087 355 396.47826087 355 414.739130435 355 c 128,-1,35
 433 355 433 355 449.5 341 c 128,-1,36
 466 327 466 327 466 306 c 0,37,38
 466 262 466 262 456.5 176.5 c 128,-1,39
 447 91 447 91 447 68.5 c 128,-1,40
 447 46 447 46 453 46 c 0,41,42
 470 47 470 47 500 88.5 c 128,-1,43
 530 130 530 130 559.5 195 c 128,-1,44
 589 260 589 260 595.5 260 c 128,-1,45
 602 260 602 260 602 252 c 0,46,47
 602 224 602 224 573 163 c 0,48,49
 494 -5 494 -5 440 -5 c 0,50,51
 406 -5 406 -5 386 11 c 1,52,53
 379 18 379 18 379 47.5 c 128,-1,54
 379 77 379 77 384.5 143.5 c 128,-1,55
 390 210 390 210 390 243 c 128,-1,56
 390 276 390 276 379 276 c 0,57,58
 366 276 366 276 322.5 232 c 128,-1,59
 279 188 279 188 276 170 c 0,60,61
 270 136 270 136 270 23 c 0,62,63
 270 -5 270 -5 255 -5 c 0,64,65
 232 -5 232 -5 211.5 1.5 c 128,-1,66
 191 8 191 8 191 19.5 c 128,-1,67
 191 31 191 31 197 118 c 128,-1,68
 203 205 203 205 203 240.5 c 128,-1,69
 203 276 203 276 191.5 276 c 128,-1,70
 180 276 180 276 136 207.5 c 128,-1,71
 92 139 92 139 87.5 112 c 128,-1,72
 83 85 83 85 83 54 c 2,0,-1
EndSplineSet
EndChar

StartChar: y
Encoding: 121 121 7
Width: 350
Flags: HMW
HStem: -320 36<110 144.5 110 163.5> -5 53<80.5 90.5> 345 20G<79.5 96.5 269.5 286.5>
VStem: 6 66<87 240.5> 199 55
LayerCount: 2
Fore
SplineSet
0 87 m 1,0,-1
 6 199 l 1,1,2
 6 306 6 306 16 316 c 128,-1,3
 26 326 26 326 51.5 345.5 c 128,-1,4
 77 365 77 365 88.5 365 c 128,-1,5
 100 365 100 365 103 361 c 128,-1,6
 106 357 106 357 106 345 c 0,7,8
 106 302 106 302 87 258 c 1,9,10
 72 166 72 166 72 107 c 128,-1,11
 72 48 72 48 86 48 c 0,12,13
 110 48 110 48 141.5 90.5 c 128,-1,14
 173 133 173 133 206 216 c 1,15,16
 207 238 207 238 208 262.5 c 128,-1,17
 209 287 209 287 210 298.5 c 128,-1,18
 211 310 211 310 211.5 315 c 128,-1,19
 212 320 212 320 239 342.5 c 128,-1,20
 266 365 266 365 280.5 365 c 128,-1,21
 295 365 295 365 295 327 c 0,22,23
 295 317 295 317 289.5 288 c 128,-1,24
 284 259 284 259 277 246 c 1,25,26
 269 175 269 175 266 122 c 1,27,28
 364 246 364 246 370.5 253 c 128,-1,29
 377 260 377 260 382 260 c 0,30,31
 392 260 392 260 392 250 c 0,32,33
 392 244 392 244 388 237 c 0,34,35
 356 190 356 190 262 72 c 1,36,37
 256 -47 256 -47 254 -90 c 0,38,39
 249 -217 249 -217 218.5 -268.5 c 128,-1,40
 188 -320 188 -320 110 -320 c 0,41,42
 76 -320 76 -320 46.5 -299.5 c 128,-1,43
 17 -279 17 -279 17 -228.5 c 128,-1,44
 17 -178 17 -178 55.5 -125 c 128,-1,45
 94 -72 94 -72 196 38 c 1,46,-1
 202 147 l 1,47,48
 168 72 168 72 135 33.5 c 128,-1,49
 102 -5 102 -5 62 -5 c 128,-1,50
 22 -5 22 -5 11 15 c 128,-1,51
 0 35 0 35 0 87 c 1,0,-1
193 -9 m 1,52,53
 79 -132 79 -132 79 -206 c 0,54,55
 79 -240 79 -240 91 -262 c 128,-1,56
 103 -284 103 -284 124 -284 c 0,57,58
 156 -284 156 -284 169 -249 c 128,-1,59
 182 -214 182 -214 188 -107 c 2,60,-1
 193 -9 l 1,52,53
EndSplineSet
EndChar

StartChar: n
Encoding: 110 110 8
Width: 371
Flags: HMW
HStem: -5 21G<49.5 69.5 246.5 282.5> 345 20G<79.5 96.5>
VStem: 6 73 208 62 208 81<213 320.5>
LayerCount: 2
Fore
SplineSet
78 54 m 2,0,-1
 79 23 l 2,1,2
 79 -5 79 -5 63 -5 c 0,3,4
 39 -5 39 -5 17 1.5 c 128,-1,5
 -5 8 -5 8 -5 19.5 c 128,-1,6
 -5 31 -5 31 0.5 98.5 c 128,-1,7
 6 166 6 166 6 200 c 2,8,-1
 6 259 l 2,9,10
 6 307 6 307 16 317 c 128,-1,11
 26 327 26 327 51.5 346 c 128,-1,12
 77 365 77 365 88.5 365 c 128,-1,13
 100 365 100 365 103 361 c 128,-1,14
 106 357 106 357 106 346 c 0,15,16
 106 293 106 293 86 246 c 1,17,18
 81 189 81 189 81 167 c 1,19,20
 85 173 85 173 123 235 c 128,-1,21
 161 297 161 297 187.5 326 c 128,-1,22
 214 355 214 355 235 355 c 128,-1,23
 256 355 256 355 272.5 341 c 128,-1,24
 289 327 289 327 289 306 c 0,25,26
 289 262 289 262 279.5 176.5 c 128,-1,27
 270 91 270 91 270 68.5 c 128,-1,28
 270 46 270 46 276 46 c 0,29,30
 293 47 293 47 323 88.5 c 128,-1,31
 353 130 353 130 382.5 195 c 128,-1,32
 412 260 412 260 418.5 260 c 128,-1,33
 425 260 425 260 425 252 c 0,34,35
 425 224 425 224 396 163 c 0,36,37
 317 -5 317 -5 263 -5 c 0,38,39
 224 -5 224 -5 204 11 c 1,40,41
 197 18 197 18 197 47.5 c 128,-1,42
 197 77 197 77 202.5 143.5 c 128,-1,43
 208 210 208 210 208 243 c 128,-1,44
 208 276 208 276 196.5 276 c 128,-1,45
 185 276 185 276 136 207.5 c 128,-1,46
 87 139 87 139 84 120 c 0,47,48
 78 85 78 85 78 54 c 2,0,-1
EndSplineSet
EndChar

StartChar: u
Encoding: 117 117 9
Width: 365
Flags: HMW
HStem: -5 53<85.5 94> 345 20G<79.5 96.5 274.5 291.5>
VStem: 6 66<87 240.5> 6 100<173 352.5> 201 70
LayerCount: 2
Fore
SplineSet
0 87 m 1,0,-1
 6 199 l 1,1,2
 6 306 6 306 16 316 c 128,-1,3
 26 326 26 326 51.5 345.5 c 128,-1,4
 77 365 77 365 88.5 365 c 128,-1,5
 100 365 100 365 103 361 c 128,-1,6
 106 357 106 357 106 345 c 0,7,8
 106 302 106 302 87 258 c 1,9,10
 72 166 72 166 72 107 c 128,-1,11
 72 48 72 48 91 48 c 0,12,13
 114 48 114 48 145 88 c 128,-1,14
 176 128 176 128 207 207 c 1,15,16
 216 307 216 307 221.5 315 c 128,-1,17
 227 323 227 323 249 344 c 128,-1,18
 271 365 271 365 285.5 365 c 128,-1,19
 300 365 300 365 300 327 c 0,20,21
 300 317 300 317 294.5 288 c 128,-1,22
 289 259 289 259 282 246 c 1,23,24
 271 218 271 218 271 73 c 0,25,26
 271 46 271 46 277 46 c 0,27,28
 294 47 294 47 324 88.5 c 128,-1,29
 354 130 354 130 383.5 195 c 128,-1,30
 413 260 413 260 419.5 260 c 128,-1,31
 426 260 426 260 426 252 c 0,32,33
 426 224 426 224 397 163 c 0,34,35
 318 -5 318 -5 264 -5 c 0,36,37
 225 -5 225 -5 205 11 c 1,38,39
 198 18 198 18 198 54 c 128,-1,40
 198 90 198 90 201 134 c 1,41,42
 169 66 169 66 137 30.5 c 128,-1,43
 105 -5 105 -5 65.5 -5 c 128,-1,44
 26 -5 26 -5 13 16 c 128,-1,45
 0 37 0 37 0 87 c 1,0,-1
EndSplineSet
EndChar

StartChar: v
Encoding: 118 118 10
Width: 350
Flags: HMW
HStem: -5 49<108 140> 168 39<290 290.5> 327 38<212.5 225.5>
VStem: 5 73<173.5 177> 154 54<288 296.5> 240 29<260.5 272.5>
LayerCount: 2
Fore
SplineSet
125 44 m 0,0,1
 161 44 161 44 188 81.5 c 128,-1,2
 215 119 215 119 228 173 c 1,3,4
 192 184 192 184 173 211.5 c 128,-1,5
 154 239 154 239 154 275 c 128,-1,6
 154 311 154 311 172.5 338 c 128,-1,7
 191 365 191 365 226 365 c 0,8,9
 247 365 247 365 258 338.5 c 128,-1,10
 269 312 269 312 269 279 c 128,-1,11
 269 246 269 246 264 213 c 1,12,13
 279 207 279 207 296 207 c 0,14,15
 335 207 335 207 371 243 c 0,16,17
 389 261 389 261 395.5 261 c 128,-1,18
 402 261 402 261 402 251 c 128,-1,19
 402 241 402 241 389 227 c 0,20,21
 336 168 336 168 255 168 c 1,22,23
 236 95 236 95 196 45 c 128,-1,24
 156 -5 156 -5 98 -5 c 0,25,26
 64 -5 64 -5 41.5 24 c 0,27,28
 5 71.0444444444 5 71.0444444444 5 162 c 0,29,30
 5 193 5 193 10 242 c 128,-1,31
 15 291 15 291 21.5 302 c 128,-1,32
 28 313 28 313 53.5 329 c 128,-1,33
 79 345 79 345 89 345 c 0,34,35
 104 345 104 345 104 327 c 0,36,37
 104 276 104 276 78 216 c 1,38,39
 78 145 78 145 89.5 94.5 c 128,-1,40
 101 44 101 44 125 44 c 0,0,1
216 327 m 0,41,42
 208 327 208 327 208 294 c 128,-1,43
 208 261 208 261 238 231 c 1,44,45
 240 243 240 243 240 255 c 0,46,47
 240 327 240 327 216 327 c 0,41,42
EndSplineSet
EndChar

StartChar: s
Encoding: 115 115 11
Width: 208
Flags: HMW
HStem: -10 30<60.5 79> 339 37<115.5 137.5 93.5 138.5>
VStem: 0 44 0 71<241 277 241 286.5> 0 151<56.5 286.5> 0 176<218 339>
LayerCount: 2
Fore
SplineSet
148 306 m 1,0,-1
 150 321 l 1,1,2
 150 339 150 339 129.5 339 c 128,-1,3
 109 339 109 339 90 312.5 c 128,-1,4
 71 286 71 286 71 269 c 128,-1,5
 71 252 71 252 73 242 c 128,-1,6
 75 232 75 232 77.5 225.5 c 128,-1,7
 80 219 80 219 86 210 c 128,-1,8
 92 201 92 201 95 197 c 2,9,-1
 105.5 183 l 2,10,11
 113 173 113 173 116 170 c 1,12,13
 168 213 168 213 240 266 c 0,14,15
 244 269 244 269 249 269 c 0,16,17
 259 269 259 269 259 258 c 128,-1,18
 259 247 259 247 250 241 c 0,19,20
 186 200 186 200 129 152 c 1,21,22
 151 120 151 120 151 82 c 128,-1,23
 151 44 151 44 122 17 c 128,-1,24
 93 -10 93 -10 48 -10 c 128,-1,25
 3 -10 3 -10 3 33 c 0,26,27
 3 64 3 64 69 128 c 1,28,29
 64 134 64 134 51 147.5 c 128,-1,30
 38 161 38 161 31.5 169 c 128,-1,31
 25 177 25 177 16.5 190 c 0,32,33
 0 215.235294118 0 215.235294118 0 244 c 0,34,35
 0 303 0 303 38 339.5 c 128,-1,36
 76 376 76 376 119 376 c 0,37,38
 146 376 146 376 161 361.5 c 128,-1,39
 176 347 176 347 176 331.5 c 0,40,41
 176 298 176 298 160 298 c 0,42,43
 148 298 148 298 148 306 c 1,0,-1
84 109 m 1,44,45
 44 69 44 69 44 44.5 c 128,-1,46
 44 20 44 20 69 20 c 0,47,48
 84 20 84 20 93.5 32.5 c 0,49,50
 115.607476636 61.5887850467 115.607476636 61.5887850467 84 109 c 1,44,45
EndSplineSet
EndChar

StartChar: z
Encoding: 122 122 12
Width: 340
Flags: HMW
HStem: -10 77<238 246.5> 224 122<137 276> 334 20G<35.5 58>
LayerCount: 2
Fore
SplineSet
169 224 m 1,0,1
 48 224 48 224 16 262 c 0,2,3
 0 281 0 281 0 305 c 128,-1,4
 0 329 0 329 14.5 341.5 c 128,-1,5
 29 354 29 354 45.5 354 c 128,-1,6
 62 354 62 354 73 340.5 c 128,-1,7
 84 327 84 327 84 315 c 0,8,9
 84 297 84 297 124 289.5 c 128,-1,10
 164 282 164 282 202 282 c 1,11,12
 241.237288136 336.93220339 241.237288136 336.93220339 257 343.5 c 0,13,14
 263 346 263 346 270 346 c 0,15,16
 286 346 286 346 286 314 c 128,-1,17
 286 282 286 282 272 265 c 128,-1,18
 258 248 258 248 223 233 c 1,19,20
 164 179 164 179 107 108 c 1,21,22
 132.875 102.375 132.875 102.375 185.9375 84.6875 c 128,-1,23
 239 67 239 67 247 67 c 0,24,25
 288 67 288 67 348 200 c 0,26,27
 375 260 375 260 381.5 260 c 128,-1,28
 388 260 388 260 388 245 c 128,-1,29
 388 230 388 230 359 163 c 0,30,31
 282 -10 282 -10 213 -10 c 0,32,33
 206 -10 206 -10 149 15 c 128,-1,34
 92 40 92 40 63 40 c 1,35,36
 38 3 38 3 15 3 c 0,37,38
 0 3 0 3 0 30.5 c 128,-1,39
 0 58 0 58 22.5 85.5 c 128,-1,40
 45 113 45 113 71 113 c 1,41,42
 141 191 141 191 169 224 c 1,0,1
EndSplineSet
Substitution2: "'fina' Terminal Forms in Latin lookup 2 subtable" z.2
EndChar

StartChar: e
Encoding: 101 101 13
Width: 293
Flags: HMW
HStem: -5 52<128.5 174.5> 143 212 323 32<129.5 164>
VStem: 0 69 183 60<262 293>
LayerCount: 2
Fore
SplineSet
122 -5 m 0,0,1
 66 -5 66 -5 33 37.5 c 128,-1,2
 0 80 0 80 0 134 c 0,3,4
 0 243 0 243 46 299 c 128,-1,5
 92 355 92 355 165 355 c 0,6,7
 199 355 199 355 221 336.5 c 128,-1,8
 243 318 243 318 243 286 c 0,9,10
 243 226 243 226 192.5 185.5 c 128,-1,11
 142 145 142 145 69 143 c 1,12,13
 73 104 73 104 95.5 75.5 c 128,-1,14
 118 47 118 47 148 47 c 128,-1,15
 178 47 178 47 202 61 c 128,-1,16
 226 75 226 75 246 101 c 0,17,18
 288.258064516 155.935483871 288.258064516 155.935483871 318.5 226.5 c 0,19,20
 326 244 326 244 330.5 252 c 128,-1,21
 335 260 335 260 340.5 260 c 128,-1,22
 346 260 346 260 346 252 c 0,23,24
 346 202.133333333 346 202.133333333 285 102.5 c 0,25,26
 219.183673469 -5 219.183673469 -5 122 -5 c 0,0,1
69 167 m 1,27,28
 128 177 128 177 155.5 205 c 128,-1,29
 183 233 183 233 183 278 c 128,-1,30
 183 323 183 323 154 323 c 0,31,32
 119 323 119 323 95 274.5 c 128,-1,33
 71 226 71 226 69 167 c 1,27,28
EndSplineSet
EndChar

StartChar: g
Encoding: 103 103 14
Width: 372
Flags: HMW
HStem: -320 36<137 171.5 137 190.5> -5 53<109.5 134> 319 36<143.5 171> 345 20G<296.5 313.5>
VStem: 0 68<137.5 200> 44 62<-228 -191.5> 226 55
LayerCount: 2
Fore
SplineSet
171.5 33 m 128,-1,1
 145 -5 145 -5 102 -5 c 128,-1,2
 59 -5 59 -5 29.5 32 c 128,-1,3
 0 69 0 69 0 150 c 128,-1,4
 0 231 0 231 45.5 293 c 128,-1,5
 91 355 91 355 165 355 c 0,6,7
 180 355 180 355 201 342.5 c 128,-1,8
 222 330 222 330 238 312 c 1,9,10
 241 322 241 322 267 343.5 c 128,-1,11
 293 365 293 365 307.5 365 c 128,-1,12
 322 365 322 365 322 322 c 128,-1,13
 322 279 322 279 304 246 c 1,14,15
 294 179 294 179 293 122 c 1,16,17
 391 246 391 246 397.5 253 c 128,-1,18
 404 260 404 260 409 260 c 0,19,20
 419 260 419 260 419 250 c 0,21,22
 419 244 419 244 415 237 c 0,23,24
 383 190 383 190 289 72 c 1,25,26
 283 -47 283 -47 281 -90 c 0,27,28
 276 -217 276 -217 245.5 -268.5 c 128,-1,29
 215 -320 215 -320 137 -320 c 0,30,31
 103 -320 103 -320 73.5 -299.5 c 128,-1,32
 44 -279 44 -279 44 -228.5 c 128,-1,33
 44 -178 44 -178 82.5 -125 c 128,-1,34
 121 -72 121 -72 223 38 c 1,35,-1
 229 153 l 1,36,0
 198 71 198 71 171.5 33 c 128,-1,1
159 319 m 0,37,38
 131 319 131 319 99.5 275.5 c 128,-1,39
 68 232 68 232 68 175.5 c 128,-1,40
 68 119 68 119 84.5 83.5 c 128,-1,41
 101 48 101 48 126 48 c 128,-1,42
 151 48 151 48 174 89 c 128,-1,43
 197 130 197 130 233 230 c 1,44,45
 235 264 235 264 235 273 c 1,46,47
 227 288 227 288 202 303.5 c 128,-1,48
 177 319 177 319 159 319 c 0,37,38
220 -9 m 1,49,50
 106 -132 106 -132 106 -206 c 0,51,52
 106 -240 106 -240 118 -262 c 128,-1,53
 130 -284 130 -284 151 -284 c 0,54,55
 183 -284 183 -284 196 -249 c 128,-1,56
 209 -214 209 -214 215 -107 c 2,57,-1
 220 -9 l 1,49,50
EndSplineSet
EndChar

StartChar: q
Encoding: 113 113 15
Width: 378
Flags: HMW
HStem: -320 21G<182 199.5> -5 53<109.5 130> 319 36<143.5 169.5> 345 20G<295.5 311.5>
VStem: 0 68<137.5 200> 169 112
LayerCount: 2
Fore
SplineSet
169 -261 m 0,0,1
 169 -188 169 -188 202 -98 c 1,2,-1
 214 114 l 1,3,4
 189 54 189 54 164.5 24.5 c 128,-1,5
 140 -5 140 -5 99.5 -5 c 128,-1,6
 59 -5 59 -5 29.5 32 c 128,-1,7
 0 69 0 69 0 150 c 128,-1,8
 0 231 0 231 45.5 293 c 128,-1,9
 91 355 91 355 165 355 c 0,10,11
 197 355 197 355 236 314 c 1,12,13
 283 365 283 365 305 365 c 0,14,15
 320 365 320 365 320 327 c 0,16,17
 320 318 320 318 313 289.5 c 128,-1,18
 306 261 306 261 299 248 c 1,19,20
 292.771587744 227.757660167 292.771587744 227.757660167 288.885793872 145.378830084 c 128,-1,21
 285 63 285 63 284 48 c 1,22,23
 297 69 297 69 340.5 148.5 c 0,24,25
 403.698113208 264 403.698113208 264 418 264 c 0,26,27
 426 264 426 264 426 253 c 128,-1,28
 426 242 426 242 415 229 c 0,29,30
 361 164 361 164 281 -18 c 1,31,32
 281 -186 281 -186 254 -267 c 0,33,34
 249 -281 249 -281 226.5 -300.5 c 128,-1,35
 204 -320 204 -320 189 -320 c 0,36,37
 179 -320 179 -320 174 -301.5 c 128,-1,38
 169 -283 169 -283 169 -261 c 0,0,1
159 319 m 0,39,40
 131 319 131 319 99.5 275.5 c 128,-1,41
 68 232 68 232 68 175.5 c 128,-1,42
 68 119 68 119 84.5 83.5 c 128,-1,43
 101 48 101 48 125 48 c 128,-1,44
 149 48 149 48 170 82 c 128,-1,45
 191 116 191 116 221 196 c 1,46,-1
 229 282 l 1,47,48
 217 296 217 296 195.5 307.5 c 128,-1,49
 174 319 174 319 159 319 c 0,39,40
EndSplineSet
EndChar

StartChar: p
Encoding: 112 112 16
Width: 360
Flags: HMW
HStem: -320 21G<-12.5 4.5> -5 36<151 179.5 151 209.5> 302 53<189 213.5> 345 20G<92.5 109.5>
VStem: -25 106 17 64 255 68<150 212.5>
LayerCount: 2
Fore
SplineSet
31 311 m 0,0,1
 42 324 42 324 66 344.5 c 128,-1,2
 90 365 90 365 104 365 c 128,-1,3
 118 365 118 365 118 325.5 c 128,-1,4
 118 286 118 286 97 248 c 1,5,6
 93 230 93 230 91 196 c 1,7,8
 120 275 120 275 149 315 c 128,-1,9
 178 355 178 355 219.5 355 c 128,-1,10
 261 355 261 355 292 317.5 c 128,-1,11
 323 280 323 280 323 199.5 c 128,-1,12
 323 119 323 119 277.5 57 c 128,-1,13
 232 -5 232 -5 158 -5 c 0,14,15
 120 -5 120 -5 81 23 c 1,16,17
 81 -168 81 -168 59 -268 c 0,18,19
 57 -277 57 -277 32.5 -298.5 c 128,-1,20
 8 -320 8 -320 -3.5 -320 c 128,-1,21
 -15 -320 -15 -320 -20 -304 c 128,-1,22
 -25 -288 -25 -288 -25 -274 c 0,23,24
 -25 -171 -25 -171 17 -9 c 1,25,26
 24.0253164557 85.1392405063 24.0253164557 85.1392405063 26.5126582278 197.069620253 c 128,-1,27
 29 309 29 309 31 311 c 0,0,1
164 31 m 0,28,29
 193 31 193 31 224 71.5 c 128,-1,30
 255 112 255 112 255 171.5 c 128,-1,31
 255 231 255 231 238.5 266.5 c 128,-1,32
 222 302 222 302 194 302 c 0,33,34
 146 302 146 302 85 103 c 1,35,36
 83 75 83 75 83 59 c 1,37,38
 111 31 111 31 164 31 c 0,28,29
EndSplineSet
EndChar

StartChar: r
Encoding: 114 114 17
Width: 255
Flags: HMW
HStem: -5 21G<125.5 161.5> 215 20G<82.5 93> 355 20G<24.5 50.5>
VStem: 0 88<309.5 328 309.5 329.5> 76 73<67 103.5> 76 86
LayerCount: 2
Fore
SplineSet
87 261 m 2,0,-1
 142 267 l 2,1,2
 150 267 150 267 156 258 c 128,-1,3
 162 249 162 249 162 239 c 128,-1,4
 162 229 162 229 155.5 171 c 128,-1,5
 149 113 149 113 149 79.5 c 128,-1,6
 149 46 149 46 155 46 c 0,7,8
 172 47 172 47 202 88.5 c 128,-1,9
 232 130 232 130 261.5 195 c 128,-1,10
 291 260 291 260 297.5 260 c 128,-1,11
 304 260 304 260 304 252 c 0,12,13
 304 224 304 224 275 163 c 0,14,15
 196 -5 196 -5 142 -5 c 0,16,17
 103 -5 103 -5 83 11 c 1,18,19
 76 18 76 18 76 98 c 128,-1,20
 76 178 76 178 93 235 c 1,21,22
 35.3684210526 235 35.3684210526 235 12 272 c 0,23,24
 0 291 0 291 0 315 c 128,-1,25
 0 339 0 339 10 357 c 128,-1,26
 20 375 20 375 38.5 375 c 128,-1,27
 57 375 57 375 72.5 355.5 c 128,-1,28
 88 336 88 336 88 312 c 128,-1,29
 88 288 88 288 74 264 c 1,30,31
 78 261 78 261 87 261 c 2,0,-1
EndSplineSet
Substitution2: "'init' Initial Forms in Latin lookup 1 subtable" r.2
EndChar

StartChar: i
Encoding: 105 105 18
Width: 175
Flags: HMW
HStem: -5 21G<49.5 85.5> 426 107<48 100.5>
VStem: 0 73<67 89.5> 37 80<483.5 502.5>
LayerCount: 2
Fore
SplineSet
37 489 m 0,0,1
 37 507 37 507 56 520 c 128,-1,2
 75 533 75 533 90 533 c 0,3,4
 117 533 117 533 117 502 c 0,5,6
 117 471 117 471 101 448.5 c 128,-1,7
 85 426 85 426 56 426 c 0,8,9
 37 426 37 426 37 489 c 0,0,1
66 -5 m 0,10,11
 27 -5 27 -5 7 11 c 1,12,13
 0 18 0 18 0 61 c 0,14,15
 0 104 0 104 6.5 204.5 c 128,-1,16
 13 305 13 305 18 313 c 0,17,18
 23 321 23 321 49 343 c 128,-1,19
 75 365 75 365 89.5 365 c 0,20,21
 104 365 104 365 104 327 c 0,22,23
 104 317 104 317 98.5 288 c 128,-1,24
 93 259 93 259 86 246 c 1,25,26
 73 213 73 213 73 73 c 0,27,28
 73 46 73 46 79 46 c 0,29,30
 96 47 96 47 126 88.5 c 128,-1,31
 156 130 156 130 185.5 195 c 0,32,33
 215 260 215 260 221.5 260 c 0,34,35
 228 260 228 260 228 252 c 0,36,37
 228 224 228 224 199 163 c 0,38,39
 120 -5 120 -5 66 -5 c 0,10,11
EndSplineSet
EndChar

StartChar: h
Encoding: 104 104 19
Width: 371
Flags: HMW
HStem: -5 21G<54.5 74.5 251.5 287.5> 580 20G<118.5 151>
VStem: 11 78 148 27<461 508.5> 213 62 213 81<213 320.5>
LayerCount: 2
Fore
SplineSet
83 54 m 2,0,-1
 84 23 l 2,1,2
 84 -5 84 -5 68 -5 c 0,3,4
 44 -5 44 -5 22 1.5 c 128,-1,5
 0 8 0 8 0 19.5 c 128,-1,6
 0 31 0 31 5.5 98.5 c 128,-1,7
 11 166 11 166 11 200 c 2,8,-1
 11 258 l 2,9,10
 11 514.046511628 11 514.046511628 101.5 583.5 c 0,11,12
 123 600 123 600 145 600 c 0,13,14
 155 600 155 600 165 578 c 128,-1,15
 175 556 175 556 175 521 c 0,16,17
 175 435 175 435 146 360 c 128,-1,18
 117 285 117 285 87 245 c 1,19,20
 86 220 86 220 86 167 c 1,21,22
 90 173 90 173 128 235 c 128,-1,23
 166 297 166 297 192.5 326 c 128,-1,24
 219 355 219 355 240 355 c 128,-1,25
 261 355 261 355 277.5 341 c 128,-1,26
 294 327 294 327 294 306 c 0,27,28
 294 262 294 262 284.5 176.5 c 128,-1,29
 275 91 275 91 275 68.5 c 128,-1,30
 275 46 275 46 281 46 c 0,31,32
 298 47 298 47 328 88.5 c 128,-1,33
 358 130 358 130 387.5 195 c 128,-1,34
 417 260 417 260 423.5 260 c 128,-1,35
 430 260 430 260 430 252 c 0,36,37
 430 224 430 224 401 163 c 0,38,39
 322 -5 322 -5 268 -5 c 0,40,41
 229 -5 229 -5 209 11 c 1,42,43
 202 18 202 18 202 47.5 c 128,-1,44
 202 77 202 77 207.5 143.5 c 128,-1,45
 213 210 213 210 213 243 c 128,-1,46
 213 276 213 276 201.5 276 c 128,-1,47
 190 276 190 276 141 207.5 c 128,-1,48
 92 139 92 139 89 120 c 0,49,50
 83 85 83 85 83 54 c 2,0,-1
148 499 m 0,51,52
 148 541 148 541 137 541 c 0,53,54
 118.714285714 541 118.714285714 541 102 430.5 c 0,55,56
 93 371 93 371 89 293 c 1,57,58
 148 416 148 416 148 499 c 0,51,52
EndSplineSet
EndChar

StartChar: a
Encoding: 97 97 20
Width: 383
Flags: HMW
HStem: -5 53<109.5 130> 315 40<143.5 171>
VStem: 0 68<137.5 200> 217 71
LayerCount: 2
Fore
SplineSet
281 -5 m 0,0,1
 242 -5 242 -5 222 11 c 1,2,3
 215 18 215 18 215 46.5 c 0,4,5
 215 75 215 75 217 123 c 1,6,7
 191 58 191 58 165.5 26.5 c 128,-1,8
 140 -5 140 -5 100 -5 c 0,9,10
 60 -5 60 -5 30 32.5 c 128,-1,11
 0 70 0 70 0 150.5 c 0,12,13
 0 231 0 231 45.5 293 c 128,-1,14
 91 355 91 355 165 355 c 0,15,16
 197 355 197 355 237 313 c 1,17,18
 245 324 245 324 265.5 339.5 c 128,-1,19
 286 355 286 355 300.5 355 c 0,20,21
 315 355 315 355 315 317 c 0,22,23
 315 307 315 307 309.5 278 c 128,-1,24
 304 249 304 249 297 236 c 1,25,26
 288 213 288 213 288 73 c 0,27,28
 288 46 288 46 294 46 c 0,29,30
 311 47 311 47 341 88.5 c 128,-1,31
 371 130 371 130 400.5 195 c 0,32,33
 430 260 430 260 436.5 260 c 0,34,35
 443 260 443 260 443 252 c 0,36,37
 443 224 443 224 414 163 c 0,38,39
 335 -5 335 -5 281 -5 c 0,0,1
159 315 m 0,40,41
 131 315 131 315 99.5 273.5 c 128,-1,42
 68 232 68 232 68 176 c 0,43,44
 68 120 68 120 84.5 84 c 128,-1,45
 101 48 101 48 128 48 c 0,46,47
 161 48 161 48 225 213 c 1,48,49
 226 221 226 221 227.5 240.5 c 128,-1,50
 229 260 229 260 230 270 c 1,51,52
 221 286 221 286 198.5 300.5 c 128,-1,53
 176 315 176 315 159 315 c 0,40,41
EndSplineSet
EndChar

StartChar: r.2
Encoding: 65539 -1 21
Width: 236
Flags: HMW
HStem: -5 21G<101.5 137.5> 355 20G<6.5 32.5>
VStem: -18 143 52 73<67 103.5> 52 92
LayerCount: 2
Fore
SplineSet
69 264 m 2,0,-1
 124 270 l 2,1,2
 132 270 132 270 138 261 c 128,-1,3
 144 252 144 252 144 242 c 128,-1,4
 144 232 144 232 134.5 172.5 c 128,-1,5
 125 113 125 113 125 79.5 c 128,-1,6
 125 46 125 46 131 46 c 0,7,8
 148 46 148 46 178 87.5 c 128,-1,9
 208 129 208 129 237.5 194.5 c 128,-1,10
 267 260 267 260 273.5 260 c 128,-1,11
 280 260 280 260 280 252 c 0,12,13
 280 224 280 224 251 163 c 0,14,15
 172 -5 172 -5 118 -5 c 0,16,17
 79 -5 79 -5 59 11 c 1,18,19
 52 18 52 18 52 68 c 128,-1,20
 52 118 52 118 78 238 c 1,21,22
 54 238 54 238 48 241 c 1,23,24
 9 138 9 138 -1.5 138 c 128,-1,25
 -12 138 -12 138 -12 151 c 0,26,27
 -12 155.2 -12 155.2 5 192.6 c 128,-1,28
 22 230 22 230 26 248 c 1,29,30
 7 256 7 256 -5.5 275 c 128,-1,31
 -18 294 -18 294 -18 316.5 c 128,-1,32
 -18 339 -18 339 -8.5 357 c 128,-1,33
 1 375 1 375 19.5 375 c 128,-1,34
 38 375 38 375 54 354 c 128,-1,35
 70 333 70 333 70 316 c 128,-1,36
 70 299 70 299 58 268 c 1,37,38
 62 264 62 264 69 264 c 2,0,-1
EndSplineSet
EndChar

StartChar: l
Encoding: 108 108 22
Width: 175
Flags: HMW
HStem: -5 21G<56.5 92.5> 566 34<112.5 128>
VStem: 0 75<92 122.5 76.5 156.5> 132 25<500 538.5>
LayerCount: 2
Fore
SplineSet
73 -5 m 0,0,1
 51 -5 51 -5 32.5 0.5 c 128,-1,2
 14 6 14 6 10 11 c 0,3,4
 0 23 0 23 0 135.5 c 0,5,6
 0 248 0 248 25 441 c 0,7,8
 46 600 46 600 123 600 c 0,9,10
 141 600 141 600 149 580.5 c 128,-1,11
 157 561 157 561 157 543 c 0,12,13
 157 413 157 413 78 252 c 1,14,15
 75 169 75 169 75 107.5 c 0,16,17
 75 46 75 46 86 46 c 0,18,19
 103 47 103 47 133 88.5 c 128,-1,20
 163 130 163 130 192.5 195 c 0,21,22
 222 260 222 260 228.5 260 c 0,23,24
 235 260 235 260 235 252 c 0,25,26
 235 224 235 224 206 163 c 0,27,28
 127 -5 127 -5 73 -5 c 0,0,1
132 534 m 0,29,30
 132 566 132 566 124 566 c 0,31,32
 94 566 94 566 80 317 c 1,33,34
 132 454 132 454 132 534 c 0,29,30
EndSplineSet
EndChar

StartChar: j
Encoding: 106 106 23
Width: 168
Flags: HMW
HStem: -320 36<-70 -35.5 -70 -16.5> 426 107<58 110.5>
VStem: -163 62<-228 -177.5 -228 -176.5> 16 58 47 80<483.5 502.5>
LayerCount: 2
Fore
SplineSet
16 38 m 1,0,1
 29 300 29 300 30.5 310 c 128,-1,2
 32 320 32 320 59 342.5 c 128,-1,3
 86 365 86 365 100.5 365 c 128,-1,4
 115 365 115 365 115 322 c 128,-1,5
 115 279 115 279 97 246 c 1,6,7
 88 170 88 170 86 122 c 1,8,9
 184 246 184 246 190.5 253 c 128,-1,10
 197 260 197 260 202 260 c 0,11,12
 212 260 212 260 212 250 c 0,13,14
 212 244 212 244 208 237 c 0,15,16
 176 190 176 190 82 72 c 1,17,18
 76 -47 76 -47 74 -90 c 0,19,20
 69 -217 69 -217 38.5 -268.5 c 128,-1,21
 8 -320 8 -320 -70 -320 c 0,22,23
 -104 -320 -104 -320 -133.5 -299.5 c 128,-1,24
 -163 -279 -163 -279 -163 -235.5 c 128,-1,25
 -163 -192 -163 -192 -142.5 -152 c 128,-1,26
 -122 -112 -122 -112 -99.5 -86 c 128,-1,27
 -77 -60 -77 -60 -37.5 -19 c 128,-1,28
 2 22 2 22 16 38 c 1,0,1
13 -9 m 1,29,30
 -101 -132 -101 -132 -101 -206 c 0,31,32
 -101 -240 -101 -240 -89 -262 c 128,-1,33
 -77 -284 -77 -284 -56 -284 c 0,34,35
 -24 -284 -24 -284 -11 -249 c 128,-1,36
 2 -214 2 -214 8 -107 c 2,37,-1
 13 -9 l 1,29,30
47 489 m 0,38,39
 47 507 47 507 66 520 c 128,-1,40
 85 533 85 533 100 533 c 0,41,42
 127 533 127 533 127 502 c 128,-1,43
 127 471 127 471 111 448.5 c 128,-1,44
 95 426 95 426 66 426 c 0,45,46
 47 426 47 426 47 489 c 0,38,39
EndSplineSet
EndChar

StartChar: d
Encoding: 100 100 24
Width: 394
Flags: HMW
HStem: -5 53<114 132.5> 319 36<143.5 171> 580 20G<323.5 340.5>
VStem: 0 78<137.5 200> 224 68<41 108.5>
LayerCount: 2
Fore
SplineSet
285 -5 m 0,0,1
 251 -5 251 -5 232 10 c 1,2,3
 224 18 224 18 224 52 c 128,-1,4
 224 86 224 86 227 141 c 1,5,6
 200 69 200 69 172 32 c 128,-1,7
 144 -5 144 -5 101.5 -5 c 128,-1,8
 59 -5 59 -5 29.5 32 c 128,-1,9
 0 69 0 69 0 150 c 128,-1,10
 0 231 0 231 45.5 293 c 128,-1,11
 91 355 91 355 165 355 c 0,12,13
 201 355 201 355 240 327 c 1,14,15
 256 522 256 522 269 547 c 0,16,17
 275 558 275 558 297.5 579 c 128,-1,18
 320 600 320 600 335 600 c 128,-1,19
 350 600 350 600 350 553 c 0,20,21
 350 498.375 350 498.375 339.5 457.6875 c 0,22,23
 313 355 313 355 306 327 c 1,24,25
 292 219 292 219 292 73 c 0,26,27
 292 46 292 46 298 46 c 0,28,29
 316 47 316 47 346 88 c 128,-1,30
 376 129 376 129 405.5 194.5 c 128,-1,31
 435 260 435 260 441.5 260 c 128,-1,32
 448 260 448 260 448 252 c 0,33,34
 448 224 448 224 419 163 c 0,35,36
 340 -5 340 -5 285 -5 c 0,0,1
159 319 m 0,37,38
 132 319 132 319 105 276 c 128,-1,39
 78 233 78 233 78 176.5 c 128,-1,40
 78 120 78 120 92.5 84 c 128,-1,41
 107 48 107 48 129 48 c 0,42,43
 174 48 174 48 232 228 c 1,44,45
 237 283 237 283 237 293 c 1,46,47
 208 319 208 319 159 319 c 0,37,38
EndSplineSet
EndChar

StartChar: t
Encoding: 116 116 25
Width: 201
Flags: HMW
HStem: -5 21G<73.5 110> 533 20G<96.5 112>
LayerCount: 2
Fore
SplineSet
224 163 m 0,0,1
 145 -5 145 -5 90.5 -5 c 128,-1,2
 36 -5 36 -5 26.5 8 c 128,-1,3
 17 21 17 21 17 94 c 128,-1,4
 17 167 17 167 31 305 c 1,5,6
 -19 315 -19 315 -22 346 c 1,7,8
 -22 362 -22 362 -1 362 c 128,-1,9
 20 362 20 362 36 354 c 1,10,11
 45 426 45 426 57 500 c 0,12,13
 60 519 60 519 76 536 c 128,-1,14
 92 553 92 553 107 553 c 0,15,16
 120 553 120 553 120 512 c 0,17,18
 120 493 120 493 106 337 c 1,19,20
 133 342 133 342 165.5 357 c 128,-1,21
 198 372 198 372 204 372 c 0,22,23
 222 372 222 372 222 361 c 1,24,25
 223 351 223 351 185 333.5 c 128,-1,26
 147 316 147 316 103 307 c 1,27,28
 91 161 91 161 91 86 c 0,29,30
 91 46 91 46 103 46 c 0,31,32
 121 47 121 47 151 88 c 128,-1,33
 181 129 181 129 210.5 194.5 c 128,-1,34
 240 260 240 260 246.5 260 c 128,-1,35
 253 260 253 260 253 252 c 0,36,37
 253 224 253 224 224 163 c 0,0,1
EndSplineSet
EndChar

StartChar: k
Encoding: 107 107 26
Width: 343
Flags: HMW
HStem: -68 36 -5 21G<51.5 71.5> 292 63<194.5 205.5> 580 20G<96.5 113.5>
VStem: 0 86 17 69 232 59<259 266>
LayerCount: 2
Fore
SplineSet
322 -35 m 1,0,-1
 349 -32 l 2,1,2
 357 -32 357 -32 357 -40 c 0,3,4
 357 -54 357 -54 338 -61 c 128,-1,5
 319 -68 319 -68 295 -68 c 0,6,7
 250 -68 250 -68 219.5 -32 c 128,-1,8
 189 4 189 4 135 101 c 1,9,10
 122 122 122 122 122 133 c 0,11,12
 122 148 122 148 164 168 c 1,13,14
 232 203 232 203 232 256 c 0,15,16
 232 271 232 271 221.5 281.5 c 128,-1,17
 211 292 211 292 194 292 c 0,18,19
 170 292 170 292 137 235.5 c 128,-1,20
 104 179 104 179 92.5 129.5 c 128,-1,21
 81 80 81 80 81 23 c 0,22,23
 81 -5 81 -5 65 -5 c 0,24,25
 42 -5 42 -5 21 1.5 c 128,-1,26
 0 8 0 8 0 18.5 c 128,-1,27
 0 29 0 29 8 113.5 c 128,-1,28
 16 198 16 198 17 235 c 0,29,30
 21 439 21 439 41 547 c 1,31,32
 44 556 44 556 68.5 578 c 128,-1,33
 93 600 93 600 108 600 c 128,-1,34
 123 600 123 600 122.5 562.5 c 128,-1,35
 122 525 122 525 106 402 c 128,-1,36
 90 279 90 279 86 177 c 1,37,38
 104 241 104 241 143.5 298 c 128,-1,39
 183 355 183 355 223 355 c 0,40,41
 291 355 291 355 291 289 c 0,42,43
 291 245 291 245 265 209.5 c 128,-1,44
 239 174 239 174 195 152 c 0,45,46
 186 148 186 148 186 143 c 128,-1,47
 186 138 186 138 189 133 c 0,48,49
 252 22 252 22 296 -23 c 0,50,51
 308 -35 308 -35 322 -35 c 1,0,-1
EndSplineSet
EndChar

StartChar: f
Encoding: 102 102 27
Width: 227
Flags: HMW
HStem: -320 39<82 108.5 82 116> 578 42<151.5 165.5>
VStem: -20 213 0 70<-156.5 -79.5> 157 36 171 22<503 547.5>
LayerCount: 2
Fore
SplineSet
149 211 m 1,0,1
 203 224 203 224 239.5 244 c 128,-1,2
 276 264 276 264 278 264 c 0,3,4
 284 264 284 264 284 254 c 128,-1,5
 284 244 284 244 264 229 c 0,6,7
 222 198 222 198 159 176 c 1,8,9
 185 77 185 77 185 -34 c 0,10,11
 185 -126.625 185 -126.625 164 -211.5 c 0,12,13
 152 -260 152 -260 126.5 -290 c 128,-1,14
 101 -320 101 -320 64 -320 c 0,15,16
 31.8275862069 -320 31.8275862069 -320 19.5 -292.5 c 0,17,18
 4.53645833333 -259.119791667 4.53645833333 -259.119791667 2.76822916667 -229.059895833 c 0,19,20
 0 -182 0 -182 0 -76 c 128,-1,21
 0 30 0 30 16 180 c 1,22,23
 -20 206 -20 206 -20 243.5 c 128,-1,24
 -20 281 -20 281 -4 301.5 c 128,-1,25
 12 322 12 322 36 328 c 1,26,27
 50 415 50 415 63.5 478 c 128,-1,28
 77 541 77 541 105 580.5 c 128,-1,29
 133 620 133 620 161 620 c 0,30,31
 193 620 193 620 193 549 c 0,32,33
 193 437 193 437 110 297 c 1,34,35
 131 267 131 267 149 211 c 1,0,1
79 161 m 1,36,37
 70 38 70 38 70 -121.5 c 128,-1,38
 70 -281 70 -281 87 -281 c 0,39,40
 117 -281 117 -281 137 -202.5 c 128,-1,41
 157 -124 157 -124 157 -26.5 c 128,-1,42
 157 71 157 71 135 169 c 1,43,44
 105 161 105 161 79 161 c 1,36,37
94 311 m 1,45,46
 123 359 123 359 147 424.5 c 128,-1,47
 171 490 171 490 171 534 c 128,-1,48
 171 578 171 578 162 578 c 0,49,50
 146 578 146 578 127.5 505 c 128,-1,51
 109 432 109 432 94 311 c 1,45,46
94 271 m 1,52,-1
 88 261 l 1,53,-1
 83 210 l 1,54,55
 96 206 96 206 106.5 206 c 128,-1,56
 117 206 117 206 124 207 c 1,57,58
 111 246 111 246 94 271 c 1,52,-1
32 303 m 1,59,60
 17 298 17 298 17 280 c 128,-1,61
 17 262 17 262 25 249 c 1,62,63
 29 285 29 285 32 303 c 1,59,60
EndSplineSet
EndChar

StartChar: w
Encoding: 119 119 28
Width: 465
Flags: HMW
HStem: -5 49<95.5 98 259 280.5> 168 39<410.5 414> 327 38<333 346.5>
VStem: 0 69<132.5 173.5> 154 88 275 53<288 296.5> 360 30<257.5 263>
LayerCount: 2
Fore
SplineSet
416 207 m 0,0,1
 458 207 458 207 494 243 c 0,2,3
 512 261 512 261 518.5 261 c 128,-1,4
 525 261 525 261 525 251 c 128,-1,5
 525 241 525 241 512 227 c 0,6,7
 459 168 459 168 379 168 c 1,8,9
 363 94 363 94 329 44.5 c 128,-1,10
 295 -5 295 -5 243 -5 c 128,-1,11
 191 -5 191 -5 168 56 c 1,12,13
 127 -5 127 -5 83 -5 c 0,14,15
 0 -5 0 -5 0 155 c 0,16,17
 0 266 0 266 22 306 c 0,18,19
 26 313 26 313 52 329 c 128,-1,20
 78 345 78 345 88 345 c 0,21,22
 103 345 103 345 103 327 c 0,23,24
 101 280 101 280 75 216 c 1,25,26
 69 204 69 204 69 158.5 c 128,-1,27
 69 113 69 113 79.5 78.5 c 128,-1,28
 90 44 90 44 110 44 c 128,-1,29
 130 44 130 44 159 92 c 1,30,31
 154 117 154 117 154 145.5 c 128,-1,32
 154 174 154 174 160 206.5 c 128,-1,33
 166 239 166 239 184 272 c 128,-1,34
 202 305 202 305 227 305 c 0,35,36
 235 305 235 305 238.5 300 c 128,-1,37
 242 295 242 295 242 276 c 0,38,39
 242 225 242 225 215 149 c 1,40,41
 219 105 219 105 235.5 74.5 c 128,-1,42
 252 44 252 44 272 44 c 0,43,44
 301 44 301 44 321 81.5 c 128,-1,45
 341 119 341 119 352 173 c 1,46,47
 315 183 315 183 295 211 c 128,-1,48
 275 239 275 239 275 275.5 c 128,-1,49
 275 312 275 312 292.5 338.5 c 128,-1,50
 310 365 310 365 344 365 c 0,51,52
 390 365 390 365 390 266 c 0,53,54
 390 240.5 390 240.5 387 212 c 1,55,56
 402 207 402 207 416 207 c 0,0,1
337 327 m 0,57,58
 328 327 328 327 328 293 c 128,-1,59
 328 259 328 259 359 230 c 1,60,61
 360 235 360 235 360 245 c 0,62,63
 360 327 360 327 337 327 c 0,57,58
EndSplineSet
EndChar

StartChar: x
Encoding: 120 120 29
Width: 316
Flags: HMW
HStem: -5 21G<17.5 50 206.5 237.5> 350 20G<50 77>
LayerCount: 2
Fore
SplineSet
240 51 m 0,0,1
 270 51 270 51 336 197 c 0,2,3
 343.5 214.5 343.5 214.5 348.75 226.75 c 128,-1,4
 354 239 354 239 357.5 246 c 0,5,6
 364.5 260 364.5 260 369.75 260 c 128,-1,7
 375 260 375 260 375 252 c 0,8,9
 375 223 375 223 345 160 c 0,10,11
 268 -5 268 -5 220 -5 c 0,12,13
 184 -5 184 -5 173 12.5 c 128,-1,14
 162 30 162 30 128 104 c 1,15,16
 98 51 98 51 76.5 23 c 128,-1,17
 55 -5 55 -5 37 -5 c 128,-1,18
 19 -5 19 -5 9 -1 c 128,-1,19
 -1 3 -1 3 -3.5 7.5 c 128,-1,20
 -6 12 -6 12 -6 19 c 128,-1,21
 -6 26 -6 26 7 38 c 0,22,23
 62.5862068966 89.3103448276 62.5862068966 89.3103448276 107 148 c 1,24,25
 93 175 93 175 70 207.5 c 128,-1,26
 47 240 47 240 32.5 261 c 128,-1,27
 18 282 18 282 18 299.5 c 128,-1,28
 18 317 18 317 31.5 343.5 c 128,-1,29
 45 370 45 370 63.5 370 c 128,-1,30
 82 370 82 370 90.5 352 c 128,-1,31
 99 334 99 334 99 315 c 1,32,33
 108 300 108 300 151 211 c 1,34,35
 166 235 166 235 188 276.5 c 128,-1,36
 210 318 210 318 222 336.5 c 128,-1,37
 234 355 234 355 242 355 c 0,38,39
 260 355 260 355 265.5 349 c 128,-1,40
 271 343 271 343 271 331 c 128,-1,41
 271 319 271 319 261.5 308 c 128,-1,42
 252 297 252 297 240 287.5 c 128,-1,43
 228 278 228 278 216.5 262 c 128,-1,44
 205 246 205 246 168 177 c 1,45,46
 229 51 229 51 240 51 c 0,0,1
EndSplineSet
EndChar

StartChar: f_f
Encoding: 65540 -1 30
Width: 424
Flags: HMW
HStem: -320 39<84 113.5 84 125> -248 39<285.5 307 285.5 307> 254 28<413 432.5 400.5 433> 565 55<367.5 384> 578 42<156.5 170.5>
VStem: -37 31<265 278> 0 75<-156.5 -145> 160 26<-27 19> 176 22<503 547.5> 202 72<-199 5> 352 31<-36.5 60> 393 24<492.5 526>
LayerCount: 2
Fore
SplineSet
233 243 m 1,0,-1
 240 281 l 1,1,2
 199 289 199 289 199 326.5 c 128,-1,3
 199 364 199 364 253 364 c 1,4,5
 304 620 304 620 380 620 c 0,6,7
 395 620 395 620 406 595 c 128,-1,8
 417 570 417 570 417 522 c 128,-1,9
 417 474 417 474 395 407.5 c 128,-1,10
 373 341 373 341 342 302 c 1,11,-1
 345 295 l 1,12,13
 374 282 374 282 404.5 282 c 128,-1,14
 435 282 435 282 452.5 285.5 c 128,-1,15
 470 289 470 289 472 289 c 0,16,17
 484 289 484 289 484 276 c 0,18,19
 484 265 484 265 463.5 259.5 c 128,-1,20
 443 254 443 254 416 254 c 128,-1,21
 389 254 389 254 353 265 c 1,22,23
 383 181 383 181 383 46.5 c 128,-1,24
 383 -88 383 -88 353 -168 c 128,-1,25
 323 -248 323 -248 274 -248 c 0,26,27
 246 -248 246 -248 224 -229 c 128,-1,28
 202 -210 202 -210 202 -165 c 0,29,30
 202 -7 202 -7 228 203 c 1,31,32
 199 188 199 188 170 179 c 1,33,34
 186 109 186 109 186 48 c 128,-1,35
 186 -13 186 -13 184 -51.5 c 128,-1,36
 182 -90 182 -90 175 -140.5 c 128,-1,37
 168 -191 168 -191 157 -229 c 128,-1,38
 146 -267 146 -267 125 -293.5 c 128,-1,39
 104 -320 104 -320 72.5 -320 c 128,-1,40
 41 -320 41 -320 20.5 -299 c 128,-1,41
 0 -278 0 -278 0 -215 c 0,42,43
 0 -37 0 -37 20 172 c 1,44,45
 -37 195 -37 195 -37 254 c 0,46,47
 -37 290 -37 290 -18.5 314 c 128,-1,48
 0 338 0 338 28 338 c 0,49,50
 36 338 36 338 40 337 c 1,51,52
 54 426 54 426 66.5 483 c 128,-1,53
 79 540 79 540 108.5 580 c 128,-1,54
 138 620 138 620 166 620 c 0,55,56
 198 620 198 620 198 549 c 0,57,58
 198 439 198 439 116 298 c 1,59,60
 141 271 141 271 161 214 c 1,61,62
 195 223 195 223 233 243 c 1,0,-1
85 164 m 1,63,64
 75 27 75 27 75 -85 c 128,-1,65
 75 -197 75 -197 78 -239 c 128,-1,66
 81 -281 81 -281 92 -281 c 0,67,68
 122 -281 122 -281 141 -193.5 c 128,-1,69
 160 -106 160 -106 160 -5 c 128,-1,70
 160 96 160 96 139 171 c 1,71,72
 115 164 115 164 85 164 c 1,63,64
274 -25 m 0,73,74
 274 -209 274 -209 291 -209 c 0,75,76
 315 -209 315 -209 333.5 -138 c 128,-1,77
 352 -67 352 -67 352 23 c 0,78,79
 352 213 352 213 314 267 c 1,80,-1
 296 249 l 1,81,82
 274 81 274 81 274 -25 c 0,73,74
369 402.5 m 128,-1,84
 393 466 393 466 393 499.5 c 0,85,86
 393 565 393 565 381 565 c 0,87,88
 344 565 344 565 310 349 c 1,89,90
 320 341 320 341 330 325 c 1,91,83
 345 339 345 339 369 402.5 c 128,-1,84
176 538 m 0,92,93
 176 578 176 578 167 578 c 0,94,95
 151 578 151 578 132.5 506 c 128,-1,96
 114 434 114 434 99 314 c 1,97,98
 176 448 176 448 176 538 c 0,92,93
22 307 m 0,99,100
 -6 307 -6 307 -6 277 c 128,-1,101
 -6 247 -6 247 26 225 c 1,102,-1
 35 305 l 1,103,104
 28 307 28 307 22 307 c 0,99,100
88 206 m 1,105,106
 103 206 103 206 127 208 c 1,107,108
 113 245 113 245 95 265 c 1,109,-1
 93 261 l 1,110,111
 89 225 89 225 88 206 c 1,105,106
EndSplineSet
Ligature2: "'liga' Standard Ligatures in Latin lookup 0 subtable" f f
EndChar

StartChar: A
Encoding: 65 65 31
Width: 501
Flags: HMW
HStem: -5 51<391 403> 195 47 212 20G<159 196.5> 489 91<282.5 343>
VStem: 308 71<130.5 237>
LayerCount: 2
Fore
SplineSet
396 46 m 0,0,1
 414 46 414 46 444 87.5 c 128,-1,2
 474 129 474 129 503.5 194.5 c 128,-1,3
 533 260 533 260 539.5 260 c 128,-1,4
 546 260 546 260 546 252 c 0,5,6
 546 224 546 224 517 163 c 0,7,8
 438 -5 438 -5 383 -5 c 0,9,10
 337 -5 337 -5 317 11 c 1,11,12
 308 20 308 20 308 201 c 1,13,-1
 144 189 l 1,14,15
 125 137 125 137 110 85 c 128,-1,16
 95 33 95 33 90 21 c 0,17,18
 79 -5 79 -5 37 -5 c 0,19,20
 9 -5 9 -5 9 19 c 128,-1,21
 9 43 9 43 47 89 c 0,22,23
 54 98 54 98 93 186 c 1,24,25
 79 185 79 185 66 185 c 0,26,27
 31 185 31 185 31 215 c 0,28,29
 31 242 31 242 59 242 c 0,30,31
 61 242 61 242 116 237 c 1,32,33
 131 272 131 272 148 306 c 0,34,35
 279 580 279 580 328 580 c 0,36,37
 365 580 365 580 379 237 c 1,38,-1
 388 237 l 2,39,40
 395 237 395 237 395 227 c 128,-1,41
 395 217 395 217 380 210 c 1,42,43
 386 46 386 46 396 46 c 0,0,1
159 232 m 1,44,45
 276 232 276 232 308 233 c 1,46,47
 307 249 307 249 306 289 c 128,-1,48
 305 329 305 329 304 358.5 c 128,-1,49
 303 388 303 388 301.5 420.5 c 0,50,51
 298.338461538 489 298.338461538 489 290 489 c 0,52,53
 279 489 279 489 245 424 c 128,-1,54
 211 359 211 359 192.5 313.5 c 0,55,56
 166.071428571 248.5 166.071428571 248.5 159 232 c 1,44,45
EndSplineSet
EndChar

StartChar: B
Encoding: 66 66 32
Width: 506
Flags: HMW
HStem: -10 36<234 275.5> -10 64<114 275.5> 226 30<293 305> 226 85<270 297 263 305> 533 34<244 263.5> 533 87<176 263.5>
VStem: 0 193 90 102<19 178.5> 125 67 217 239<99.5 282.5> 392 64<118.5 168> 408 73<387.5 435>
LayerCount: 2
Fore
SplineSet
255 26 m 0,0,1
 309 26 309 26 350.5 64 c 128,-1,2
 392 102 392 102 392 151.5 c 128,-1,3
 392 201 392 201 361 243 c 1,4,5
 327 226 327 226 294 226 c 0,6,7
 217 226 217 226 217 274 c 0,8,9
 217 288 217 288 236 299.5 c 128,-1,10
 255 311 255 311 290.5 311 c 128,-1,11
 326 311 326 311 368 290 c 1,12,13
 408 333 408 333 408 387 c 0,14,15
 408 454 408 454 349.5 493.5 c 128,-1,16
 291 533 291 533 224 533 c 0,17,18
 210 533 210 533 203 532 c 1,19,20
 202 503 202 503 198 439 c 0,21,22
 192 343 192 343 192 146 c 0,23,24
 192 70 192 70 181 70 c 0,25,26
 138 70 138 70 126 82 c 128,-1,27
 114 94 114 94 114 151 c 0,28,29
 114 165 114 165 119.5 266 c 128,-1,30
 125 367 125 367 125 429 c 128,-1,31
 125 491 125 491 129 520 c 1,32,33
 76 502 76 502 72 462 c 0,34,35
 68 429 68 429 57.5 416 c 128,-1,36
 47 403 47 403 29.5 403 c 128,-1,37
 12 403 12 403 6 412.5 c 128,-1,38
 0 422 0 422 0 432 c 0,39,40
 0 519 0 519 135 552 c 1,41,42
 152 620 152 620 189 620 c 0,43,44
 204 620 204 620 204 564 c 1,45,46
 230 567 230 567 268.5 567 c 128,-1,47
 307 567 307 567 357 552.5 c 128,-1,48
 407 538 407 538 444 501.5 c 128,-1,49
 481 465 481 465 481 420.5 c 0,50,51
 481 336.5 481 336.5 400 269 c 1,52,53
 456 225 456 225 456 164 c 128,-1,54
 456 103 456 103 417.5 63 c 0,55,56
 347.2375 -10 347.2375 -10 228 -10 c 0,57,58
 147.25 -10 147.25 -10 111.5 1 c 0,59,60
 105 3 105 3 97.5 11.5 c 128,-1,61
 90 20 90 20 90 33 c 0,62,63
 90 54 90 54 131 54 c 0,64,65
 144 54 144 54 188 40 c 128,-1,66
 232 26 232 26 255 26 c 0,0,1
340 265 m 1,67,68
 310 290 310 290 283.5 290 c 128,-1,69
 257 290 257 290 257 279 c 0,70,71
 257 256 257 256 306 256 c 0,72,73
 324 256 324 256 340 265 c 1,67,68
EndSplineSet
EndChar

StartChar: C
Encoding: 67 67 33
Width: 412
Flags: HMW
HStem: -10 55<182.5 244.5> 369 211<329.5 337 226 360> 543 37<226 308>
VStem: 0 77<190 302.5 190 313.5> 311 101<378.5 510.5> 350 62<458 485>
LayerCount: 2
Fore
SplineSet
410 165 m 0,0,1
 417 175 417 175 430.5 199.5 c 0,2,3
 462.183673469 257 462.183673469 257 468.591836735 257 c 128,-1,4
 475 257 475 257 475 249 c 0,5,6
 475 200 475 200 424 125 c 0,7,8
 332 -10 332 -10 179 -10 c 0,9,10
 136 -10 136 -10 100 10 c 128,-1,11
 64 30 64 30 43 61 c 0,12,13
 0 124.476190476 0 124.476190476 0 193 c 0,14,15
 0 367 0 367 90.5 473.5 c 128,-1,16
 181 580 181 580 305 580 c 0,17,18
 352 580 352 580 382 552.5 c 128,-1,19
 412 525 412 525 412 483 c 128,-1,20
 412 441 412 441 391 405 c 128,-1,21
 370 369 370 369 340.5 369 c 128,-1,22
 311 369 311 369 311 385 c 0,23,24
 311 403 311 403 330.5 426 c 128,-1,25
 350 449 350 449 350 472 c 0,26,27
 350 543 350 543 274.5 543 c 128,-1,28
 199 543 199 543 138 442 c 128,-1,29
 77 341 77 341 77 234 c 0,30,31
 77 160 77 160 119 102.5 c 128,-1,32
 161 45 161 45 237 45 c 0,33,34
 327 45 327 45 410 165 c 0,0,1
EndSplineSet
EndChar

StartChar: D
Encoding: 68 68 34
Width: 654
Flags: HMW
HStem: -34 21G<232 250> -5 33<256 362.5> 521 39<315.5 367.5> 615 20G<239.5 267>
VStem: 21 57<350 389.5> 177 88 200 65 535 76<202.5 339>
LayerCount: 2
Fore
SplineSet
78 359 m 1,0,-1
 84 295 l 2,1,2
 84 285 84 285 73.5 279 c 128,-1,3
 63 273 63 273 56 273 c 0,4,5
 42 273 42 273 31.5 295.5 c 128,-1,6
 21 318 21 318 21 337 c 0,7,8
 21 411 21 411 72.5 462.5 c 128,-1,9
 124 514 124 514 203 540 c 1,10,11
 203 574 203 574 217.5 604.5 c 128,-1,12
 232 635 232 635 263 635 c 0,13,14
 276 635 276 635 276 598 c 2,15,-1
 276 556 l 1,16,17
 308 560 308 560 323 560 c 0,18,19
 456 560 456 560 533.5 485.5 c 128,-1,20
 611 411 611 411 611 298 c 0,21,22
 611 220 611 220 583 160 c 128,-1,23
 555 100 555 100 507 65 c 0,24,25
 411 -5 411 -5 277 -5 c 2,26,-1
 256 -5 l 1,27,28
 253 -34 253 -34 248 -34 c 0,29,30
 201 -34 201 -34 185 -21 c 1,31,32
 178 -14 178 -14 177 3 c 1,33,34
 88 28.4285714286 88 28.4285714286 88 58 c 0,35,36
 88 68 88 68 95 73.5 c 128,-1,37
 102 79 102 79 110.5 79 c 128,-1,38
 119 79 119 79 177 55 c 1,39,40
 186 317 186 317 200 505 c 1,41,42
 145 486 145 486 111.5 448 c 128,-1,43
 78 410 78 410 78 359 c 1,0,-1
296 521 m 0,44,45
 282 521 282 521 275 520 c 1,46,47
 271.285714286 345.428571429 271.285714286 345.428571429 265 226 c 1,48,49
 260 71 260 71 258 31 c 1,50,51
 277.5 28 277.5 28 300 28 c 0,52,53
 395 28 395 28 465 98.5 c 128,-1,54
 535 169 535 169 535 272 c 128,-1,55
 535 375 535 375 468 448 c 128,-1,56
 401 521 401 521 296 521 c 0,44,45
EndSplineSet
EndChar

StartChar: E
Encoding: 69 69 35
Width: 436
Flags: HMW
HStem: -15 41<196.5 256.5> 274 29<254.5 272.5> 344 29<241 247.5> 454 146<223.5 376.5> 570 30<243.5 295>
VStem: 22 80<147 189.5> 77 72<413.5 466 413.5 470> 336 73<503 522>
LayerCount: 2
Fore
SplineSet
271 335.5 m 128,-1,1
 255 344 255 344 234 344 c 128,-1,2
 213 344 213 344 193 334 c 1,3,4
 227 303 227 303 268 303 c 0,5,6
 277 303 277 303 282 307.5 c 128,-1,7
 287 312 287 312 287 315 c 0,8,0
 287 327 287 327 271 335.5 c 128,-1,1
334 482 m 1,9,-1
 336 509 l 1,10,11
 336 531 336 531 319.5 550.5 c 128,-1,12
 303 570 303 570 275 570 c 0,13,14
 227 570 227 570 188 527 c 128,-1,15
 149 484 149 484 149 435.5 c 128,-1,16
 149 387 149 387 174 354 c 1,17,18
 217 373 217 373 254 373 c 128,-1,19
 291 373 291 373 313.5 360.5 c 128,-1,20
 336 348 336 348 336 323 c 128,-1,21
 336 298 336 298 311.5 286 c 128,-1,22
 287 274 287 274 257 274 c 0,23,24
 201 274 201 274 155 305 c 1,25,26
 131 280 131 280 116.5 246 c 128,-1,27
 102 212 102 212 102 183 c 0,28,29
 102 124 102 124 140 75 c 128,-1,30
 178 26 178 26 241 26 c 0,31,32
 373 26 373 26 456 200 c 0,33,34
 484 257 484 257 491.5 257 c 128,-1,35
 499 257 499 257 499 249 c 0,36,37
 499 209 499 209 449.5 128.5 c 128,-1,38
 400 48 400 48 342.5 16.5 c 128,-1,39
 285 -15 285 -15 201.5 -15 c 128,-1,40
 118 -15 118 -15 70 34 c 128,-1,41
 22 83 22 83 22 156 c 0,42,43
 22 204 22 204 50.5 248.5 c 128,-1,44
 79 293 79 293 124 325 c 1,45,46
 77 364 77 364 77 419 c 0,47,48
 77 495 77 495 136 547.5 c 128,-1,49
 195 600 195 600 279 600 c 0,50,51
 334 600 334 600 371.5 571.5 c 128,-1,52
 409 543 409 543 409 504 c 0,53,54
 409 482 409 482 396 468 c 128,-1,55
 383 454 383 454 363 454 c 0,56,57
 334 454 334 454 334 482 c 1,9,-1
EndSplineSet
EndChar

StartChar: F
Encoding: 70 70 36
Width: 409
Flags: HMW
HStem: -34 21G<135.5 159> 185 58 315 194 423 65<348.5 375 319 409> 423 157<213 409> 465 44
VStem: 8 71<353.5 362 342.5 398.5> 8 230<353.5 556.5> 82 128
LayerCount: 2
Fore
SplineSet
69 401 m 1,0,-1
 79 354 l 1,1,2
 79 337 79 337 67 326 c 128,-1,3
 55 315 55 315 39 315 c 128,-1,4
 23 315 23 315 15.5 330 c 128,-1,5
 8 345 8 345 8 363 c 0,6,7
 8 417 8 417 54.5 460.5 c 128,-1,8
 101 504 101 504 160 504 c 2,9,-1
 166 504 l 1,10,11
 186 580 186 580 226 580 c 0,12,13
 238 580 238 580 238 548 c 0,14,15
 238 542 238 542 235 500 c 1,16,17
 250 498 250 498 270 495 c 0,18,19
 316.666666667 488 316.666666667 488 348.333333333 488 c 128,-1,20
 380 488 380 488 412.5 498.5 c 128,-1,21
 445 509 445 509 456 509 c 0,22,23
 484 509 484 509 484 480.5 c 128,-1,24
 484 452 484 452 454 437.5 c 128,-1,25
 424 423 424 423 367 423 c 128,-1,26
 310 423 310 423 228 449 c 1,27,28
 216 380 216 380 214 345 c 128,-1,29
 212 310 212 310 210 241 c 1,30,31
 252 243 252 243 326 243 c 0,32,33
 339 243 339 243 348.5 233 c 128,-1,34
 358 223 358 223 358 212 c 128,-1,35
 358 201 358 201 351 194 c 128,-1,36
 344 187 344 187 336 187 c 2,37,-1
 209 194 l 1,38,39
 205 96 205 96 202.5 61 c 128,-1,40
 200 26 200 26 183 -4 c 128,-1,41
 166 -34 166 -34 143 -34 c 0,42,43
 130 -34 130 -34 114.5 -20.5 c 128,-1,44
 99 -7 99 -7 99 5 c 128,-1,45
 99 17 99 17 102.5 23.5 c 128,-1,46
 106 30 106 30 110.5 36.5 c 128,-1,47
 115 43 115 43 117 47 c 0,48,49
 129 73 129 73 139 190 c 1,50,-1
 100 185 l 1,51,52
 92 185 92 185 87 190.5 c 128,-1,53
 82 196 82 196 82 203.5 c 128,-1,54
 82 211 82 211 85 217 c 128,-1,55
 88 223 88 223 97 226.5 c 128,-1,56
 106 230 106 230 110 231 c 0,57,58
 126 235 126 235 142 235 c 1,59,60
 144 259 144 259 147.5 339 c 128,-1,61
 151 419 151 419 158 464 c 1,62,63
 152 465 152 465 140 465 c 0,64,65
 69 465 69 465 69 401 c 1,0,-1
EndSplineSet
EndChar

StartChar: G
Encoding: 71 71 37
Width: 551
Flags: HMW
HStem: -15 51<206 280.5> 156 46<332.5 399> 257 34<358.5 383.5> 428 152<240.5 429> 537 43<240.5 308.5>
VStem: 0 81<190 326.5> 267 60<227 238> 267 220<214 238>
LayerCount: 2
Fore
SplineSet
487 214 m 1,0,1
 518 223 518 223 552 244.5 c 128,-1,2
 586 266 586 266 595 266 c 128,-1,3
 604 266 604 266 604 254.5 c 128,-1,4
 604 243 604 243 590 233 c 0,5,6
 539 197 539 197 484 178 c 1,7,8
 463 81 463 81 390 33 c 128,-1,9
 317 -15 317 -15 223 -15 c 0,10,11
 163 -15 163 -15 117.5 6 c 128,-1,12
 72 27 72 27 47.5 60.5 c 0,13,14
 0 125.448979592 0 125.448979592 0 197 c 0,15,16
 0 290 0 290 28.5 365.5 c 128,-1,17
 57 441 57 441 103 486.5 c 128,-1,18
 149 532 149 532 202.5 556 c 128,-1,19
 256 580 256 580 311 580 c 128,-1,20
 366 580 366 580 412 544.5 c 128,-1,21
 458 509 458 509 458 463 c 0,22,23
 458 448 458 448 446.5 438 c 128,-1,24
 435 428 435 428 419 428 c 0,25,26
 396 428 396 428 387 460 c 0,27,28
 365 537 365 537 282 537 c 0,29,30
 212 537 212 537 146.5 450 c 128,-1,31
 81 363 81 363 81 244 c 0,32,33
 81 160 81 160 131.5 98 c 128,-1,34
 182 36 182 36 258 36 c 0,35,36
 319 36 319 36 362 71 c 128,-1,37
 405 106 405 106 417 161 c 1,38,39
 392 156 392 156 356 156 c 128,-1,40
 320 156 320 156 293.5 173 c 128,-1,41
 267 190 267 190 267 219.5 c 128,-1,42
 267 249 267 249 297.5 270 c 128,-1,43
 328 291 328 291 375 291 c 128,-1,44
 422 291 422 291 454.5 272 c 128,-1,45
 487 253 487 253 487 214 c 1,0,1
372 257 m 0,46,47
 327 257 327 257 327 237 c 0,48,49
 327 222 327 222 345 212 c 128,-1,50
 363 202 363 202 382.5 202 c 128,-1,51
 402 202 402 202 422 204 c 1,52,53
 421 228 421 228 406 242.5 c 128,-1,54
 391 257 391 257 372 257 c 0,46,47
EndSplineSet
EndChar

StartChar: H
Encoding: 72 72 38
Width: 550
Flags: HMW
HStem: -34 21G<444.5 461> -5 211<136 238> 162 44 386 214<59 184> 555 45<119.5 142> 605 55<501.5 516.5>
VStem: 32 35<468 506.5> 32 59<407.5 506.5> 88 144 121 84 159 73<444.5 490.5> 377 72 377 111 528 32<543 574.5>
LayerCount: 2
Fore
SplineSet
79 446.5 m 128,-1,1
 91 427 91 427 91 415.5 c 128,-1,2
 91 404 91 404 85.5 395 c 128,-1,3
 80 386 80 386 71 386 c 0,4,5
 54 386 54 386 43 415 c 128,-1,6
 32 444 32 444 32 476 c 0,7,8
 32 524 32 524 67.5 562 c 128,-1,9
 103 600 103 600 158 600 c 0,10,11
 195 600 195 600 213.5 564.5 c 128,-1,12
 232 529 232 529 232 484 c 128,-1,13
 232 439 232 439 229.5 399.5 c 128,-1,14
 227 360 227 360 225 338.5 c 128,-1,15
 223 317 223 317 217 270.5 c 128,-1,16
 211 224 211 224 209 206 c 1,17,18
 289 206 289 206 377 287 c 1,19,20
 389.307917889 430.592375367 389.307917889 430.592375367 410.653958944 512.296187683 c 128,-1,21
 432 594 432 594 454 627 c 128,-1,22
 476 660 476 660 501.5 660 c 128,-1,23
 527 660 527 660 543.5 637 c 128,-1,24
 560 614 560 614 560 582 c 0,25,26
 560 464 560 464 455 327 c 1,27,28
 449 248 449 248 449 181.5 c 128,-1,29
 449 115 449 115 468.5 52.5 c 128,-1,30
 488 -10 488 -10 488 -17.5 c 128,-1,31
 488 -25 488 -25 477 -29.5 c 128,-1,32
 466 -34 466 -34 453 -34 c 0,33,34
 418 -34 418 -34 396 -16 c 0,35,36
 384.676470588 -6.94117647059 384.676470588 -6.94117647059 377.838235294 45.0294117647 c 128,-1,37
 371 97 371 97 371 142.75 c 128,-1,38
 371 188.5 371 188.5 374 241 c 1,39,40
 285 165 285 165 205 162 c 1,41,42
 204 148 204 148 203 115.5 c 128,-1,43
 202 83 202 83 200 67.5 c 128,-1,44
 198 52 198 52 192.5 32 c 0,45,46
 182.325 -5 182.325 -5 144 -5 c 0,47,48
 121 -5 121 -5 121 34.5 c 128,-1,49
 121 74 121 74 133 172 c 1,50,51
 88 191 88 191 88 239 c 0,52,53
 88 274 88 274 106 298.5 c 128,-1,54
 124 323 124 323 150 323 c 1,55,56
 159 415 159 415 159 465 c 0,57,58
 159 555 159 555 131 555 c 0,59,60
 67 555 67 555 67 490 c 0,61,0
 67 466 67 466 79 446.5 c 128,-1,1
528 565 m 0,62,63
 528 580 528 580 523.5 592.5 c 128,-1,64
 519 605 519 605 512 605 c 0,65,66
 484 605 484 605 461 388 c 1,67,68
 528 490 528 490 528 565 c 0,62,63
147 291 m 1,69,70
 133 281 133 281 133 264 c 128,-1,71
 133 247 133 247 141 236 c 1,72,-1
 147 291 l 1,69,70
EndSplineSet
EndChar

StartChar: I
Encoding: 73 73 39
Width: 429
Flags: HMW
HStem: -20 41<133.5 227.5 133.5 240.5> -20 148<62 240.5> 596 20G<378.5 406>
VStem: 27 63<62.5 82 62.5 84.5> 108 67<363 403> 301 74<283.5 347 233.5 377> 301 138
LayerCount: 2
Fore
SplineSet
371 502 m 1,0,-1
 375 316 l 1,1,2
 375 -20 375 -20 145 -20 c 0,3,4
 100 -20 100 -20 63.5 1 c 128,-1,5
 27 22 27 22 27 66 c 0,6,7
 27 93 27 93 41 110.5 c 128,-1,8
 55 128 55 128 78.5 128 c 128,-1,9
 102 128 102 128 102 117 c 0,10,11
 102 112 102 112 96 97.5 c 128,-1,12
 90 83 90 83 90 68.5 c 128,-1,13
 90 54 90 54 107 37.5 c 128,-1,14
 124 21 124 21 158 21 c 128,-1,15
 192 21 192 21 217 35 c 128,-1,16
 242 49 242 49 257 76.5 c 128,-1,17
 272 104 272 104 281.5 133 c 128,-1,18
 291 162 291 162 295 205.5 c 0,19,20
 301 270.75 301 270.75 301 353.375 c 128,-1,21
 301 436 301 436 303 490 c 1,22,23
 175 468 175 468 175 380 c 0,24,25
 175 355 175 355 164.5 341 c 128,-1,26
 154 327 154 327 138 327 c 0,27,28
 108 327 108 327 108 361 c 0,29,30
 108 422 108 422 161.5 463 c 128,-1,31
 215 504 215 504 307 524 c 1,32,33
 314 565 314 565 341 590.5 c 128,-1,34
 368 616 368 616 390 616 c 128,-1,35
 412 616 412 616 425.5 603.5 c 128,-1,36
 439 591 439 591 439 570 c 0,37,38
 439 521 439 521 371 502 c 1,0,-1
398 582 m 0,39,40
 376 582 376 582 372 537 c 1,41,42
 408 547.588235294 408 547.588235294 408 566 c 0,43,44
 408 582 408 582 398 582 c 0,39,40
EndSplineSet
EndChar

StartChar: J
Encoding: 74 74 40
Width: 415
Flags: HMW
HStem: -320 36<119 171.5 119 190.5> 596 20G<348.5 376>
VStem: 0 73<-157 -95> 78 67<363 403> 233 81 248 66 261 79 261 148
LayerCount: 2
Fore
SplineSet
78 361 m 0,0,1
 78 422 78 422 131 463 c 128,-1,2
 184 504 184 504 275 524 c 1,3,4
 281 566 281 566 309 591 c 128,-1,5
 337 616 337 616 359.5 616 c 128,-1,6
 382 616 382 616 395.5 603.5 c 128,-1,7
 409 591 409 591 409 570 c 0,8,9
 409 521 409 521 340 502 c 1,10,11
 325 222 325 222 325 215 c 1,12,13
 355 232 355 232 395.5 247.5 c 128,-1,14
 436 263 436 263 453 263 c 128,-1,15
 470 263 470 263 470 256 c 0,16,17
 470 243 470 243 458 239 c 0,18,19
 393 218 393 218 324 176 c 1,20,21
 316 -36 316 -36 314 -78 c 0,22,23
 307 -196 307 -196 262 -258 c 128,-1,24
 217 -320 217 -320 137 -320 c 0,25,26
 74 -320 74 -320 37 -268.5 c 128,-1,27
 0 -217 0 -217 0 -155 c 0,28,29
 0 -67 0 -67 62 11.5 c 128,-1,30
 124 90 124 90 251 173 c 1,31,-1
 272 489 l 1,32,33
 145 467 145 467 145 380 c 0,34,35
 145 355 145 355 134.5 341 c 128,-1,36
 124 327 124 327 108 327 c 0,37,38
 78 327 78 327 78 361 c 0,0,1
151 -284 m 0,39,40
 219.078947368 -284 219.078947368 -284 231 -133 c 0,41,42
 237 -57 237 -57 241.5 18 c 128,-1,43
 246 93 246 93 248 125 c 1,44,45
 207 96 207 96 182 75.5 c 128,-1,46
 157 55 157 55 128.5 23.5 c 0,47,48
 73 -37.8421052632 73 -37.8421052632 73 -126 c 0,49,50
 73 -211.351351351 73 -211.351351351 102.5 -256 c 0,51,52
 121 -284 121 -284 151 -284 c 0,39,40
368 582 m 0,53,54
 346 582 346 582 342 537 c 1,55,56
 378 547.588235294 378 547.588235294 378 566 c 0,57,58
 378 582 378 582 368 582 c 0,53,54
EndSplineSet
EndChar

StartChar: K
Encoding: 75 75 41
Width: 653
Flags: HMW
HStem: -95 62<537 624.5> -40 41<106.5 187> -40 148<35 187> 596 20G<355.5 383>
VStem: 0 63<42.5 62 42.5 64.5> 82 67<363 402.5> 275 77<298 347 298 377> 275 141
LayerCount: 2
Fore
SplineSet
617 -33 m 1,0,-1
 657 -29 l 2,1,2
 666 -29 666 -29 666 -37 c 0,3,4
 664 -55 664 -55 634.5 -75 c 128,-1,5
 605 -95 605 -95 566 -95 c 0,6,7
 524.5 -95 524.5 -95 477.5 -1 c 0,8,9
 438.142857143 77.7142857143 438.142857143 77.7142857143 397 184 c 1,10,11
 368.5 167.5 368.5 167.5 337 163 c 1,12,13
 293 -40 293 -40 121 -40 c 0,14,15
 76 -40 76 -40 38 -19 c 128,-1,16
 0 2 0 2 0 46 c 0,17,18
 0 73 0 73 14 90.5 c 128,-1,19
 28 108 28 108 51.5 108 c 128,-1,20
 75 108 75 108 75 97 c 0,21,22
 75 92 75 92 69 77.5 c 128,-1,23
 63 63 63 63 63 48.5 c 128,-1,24
 63 34 63 34 80 17.5 c 128,-1,25
 97 1 97 1 131 1 c 128,-1,26
 165 1 165 1 190 16.5 c 128,-1,27
 215 32 215 32 230 62 c 128,-1,28
 245 92 245 92 254.5 123 c 128,-1,29
 264 154 264 154 268.5 200 c 0,30,31
 275 266.444444444 275 266.444444444 275 352.222222222 c 128,-1,32
 275 438 275 438 277 490 c 1,33,34
 149 468 149 468 149 380 c 0,35,36
 149 355 149 355 138.5 341 c 128,-1,37
 128 327 128 327 112 327 c 0,38,39
 82 327 82 327 82 361 c 0,40,41
 82 421 82 421 136 462.5 c 128,-1,42
 190 504 190 504 280 524 c 1,43,44
 287 564 287 564 315.5 590 c 128,-1,45
 344 616 344 616 366.5 616 c 128,-1,46
 389 616 389 616 402.5 603.5 c 128,-1,47
 416 591 416 591 416 570 c 0,48,49
 416 521 416 521 348 502 c 1,50,-1
 352 316 l 1,51,52
 352 258 352 258 345 208 c 1,53,54
 396 224 396 224 445 299 c 128,-1,55
 494 374 494 374 529 490 c 0,56,57
 556 580 556 580 620 580 c 0,58,59
 647 580 647 580 647 547 c 0,60,61
 647 514.666666667 647 514.666666667 607 488 c 0,62,63
 592 478 592 478 590 474 c 0,64,65
 512 295 512 295 447 226 c 1,66,67
 510 97 510 97 549.5 32 c 128,-1,68
 589 -33 589 -33 617 -33 c 1,0,-1
375 582 m 0,69,70
 354 582 354 582 349 537 c 1,71,72
 385 547.588235294 385 547.588235294 385 566 c 0,73,74
 385 582 385 582 375 582 c 0,69,70
EndSplineSet
EndChar

StartChar: L
Encoding: 76 76 42
Width: 482
Flags: HMW
HStem: -27 70<381 402> 0 121<62.5 89 60.5 103> 555 25<357 402.5>
VStem: 425 61<467.5 516.5>
LayerCount: 2
Fore
SplineSet
266.5 521.5 m 128,-1,1
 318 580 318 580 402 580 c 128,-1,2
 486 580 486 580 486 522 c 0,3,4
 486 483 486 483 467.5 450.5 c 128,-1,5
 449 418 449 418 417.5 396.5 c 0,6,7
 356.554347826 354.902173913 356.554347826 354.902173913 275 337 c 1,8,9
 255 165 255 165 216 91 c 1,10,11
 308 60 308 60 340 51.5 c 128,-1,12
 372 43 372 43 407.5 43 c 128,-1,13
 443 43 443 43 456 72 c 128,-1,14
 469 101 469 101 475 101 c 0,15,16
 487 101 487 101 487 86 c 0,17,18
 487 39 487 39 452 6 c 128,-1,19
 417 -27 417 -27 376 -27 c 0,20,21
 333.529411765 -27 333.529411765 -27 299.764705882 -13 c 128,-1,22
 266 1 266 1 257 5 c 128,-1,23
 248 9 248 9 220.5 22 c 128,-1,24
 193 35 193 35 182 40 c 1,25,26
 144 0 144 0 80 0 c 0,27,28
 54 0 54 0 34 19 c 128,-1,29
 14 38 14 38 14 64 c 0,30,31
 14 121 14 121 79 121 c 0,32,33
 107 121 107 121 157 108 c 1,34,35
 176 168 176 168 197 326 c 1,36,37
 186 325 186 325 167.5 325 c 128,-1,38
 149 325 149 325 149 331 c 0,39,40
 149 350 149 350 201 355 c 1,41,0
 215 463 215 463 266.5 521.5 c 128,-1,1
383.5 413.5 m 128,-1,43
 425 447 425 447 425 501 c 128,-1,44
 425 555 425 555 388 555 c 0,45,46
 307 555 307 555 278 366 c 1,47,42
 342 380 342 380 383.5 413.5 c 128,-1,43
134 61 m 1,48,49
 76 86 76 86 62.5 86 c 128,-1,50
 49 86 49 86 49 72 c 128,-1,51
 49 58 49 58 61.5 48 c 128,-1,52
 74 38 74 38 94 38 c 128,-1,53
 114 38 114 38 134 61 c 1,48,49
EndSplineSet
EndChar

StartChar: M
Encoding: 77 77 43
Width: 651
Flags: HMW
HStem: -15 61 -5 21G<498.5 536> 0 46 639 20G<519 546>
VStem: 250 29<75.5 97> 309 61<105 127> 443 68<92 286.5>
LayerCount: 2
Fore
SplineSet
529 46 m 128,-1,1
 547 46 547 46 577.5 87.5 c 128,-1,2
 608 129 608 129 637.5 194.5 c 128,-1,3
 667 260 667 260 673.5 260 c 128,-1,4
 680 260 680 260 680 252 c 0,5,6
 680 224 680 224 645.5 150.5 c 0,7,8
 572.510204082 -5 572.510204082 -5 515 -5 c 0,9,10
 493 -5 493 -5 475 0.5 c 128,-1,11
 457 6 457 6 453 11 c 0,12,13
 443 23 443 23 443 99 c 0,14,15
 443 279 443 279 455 391 c 1,16,17
 397 334 397 334 349 261 c 1,18,19
 370 181 370 181 370 122.5 c 128,-1,20
 370 64 370 64 347.5 32 c 128,-1,21
 325 0 325 0 291 0 c 0,22,23
 250 0 250 0 250 79 c 0,24,25
 250 133 250 133 293 222 c 1,26,27
 273 292 273 292 235 359 c 1,28,29
 219 268 219 268 186 173 c 128,-1,30
 153 78 153 78 118 31.5 c 128,-1,31
 83 -15 83 -15 35 -15 c 0,32,33
 0 -15 0 -15 0 12 c 0,34,35
 0 34 0 34 15 43 c 128,-1,36
 30 52 30 52 50.5 56.5 c 128,-1,37
 71 61 71 61 77 67 c 0,38,39
 116 108 116 108 150.5 207 c 128,-1,40
 185 306 185 306 201 410 c 1,41,42
 158 466 158 466 158 493.5 c 128,-1,43
 158 521 158 521 172.5 542 c 128,-1,44
 187 563 187 563 220 563 c 0,45,46
 230 563 230 563 237 537.5 c 128,-1,47
 244 512 244 512 244 484 c 1,48,49
 305 395 305 395 337 300 c 1,50,51
 393 392 393 392 465 470 c 1,52,53
 496 659 496 659 537 659 c 0,54,55
 551 659 551 659 566.5 638 c 128,-1,56
 582 617 582 617 582 595 c 0,57,58
 582 527 582 527 523 457 c 1,59,60
 511 372 511 372 511 209 c 128,-1,0
 511 46 511 46 529 46 c 128,-1,1
303 179 m 1,61,62
 279 126 279 126 279 84.5 c 128,-1,63
 279 43 279 43 289 43 c 128,-1,64
 299 43 299 43 304 67.5 c 128,-1,65
 309 92 309 92 309 119 c 128,-1,66
 309 146 309 146 303 179 c 1,61,62
EndSplineSet
EndChar

StartChar: N
Encoding: 78 78 44
Width: 497
Flags: HMW
HStem: -15 21G<27 51.5> 485 115<502 559> 528 72<502 513>
VStem: 148 87<474.5 499.5> 280 31<84 117 84 125> 339 70<62 81>
LayerCount: 2
Fore
SplineSet
179.5 171 m 128,-1,1
 151 75 151 75 117 30 c 128,-1,2
 83 -15 83 -15 35 -15 c 0,3,4
 0 -15 0 -15 0 12 c 0,5,6
 0 34 0 34 15 43 c 128,-1,7
 30 52 30 52 50.5 56.5 c 128,-1,8
 71 61 71 61 77 67 c 0,9,10
 114 106 114 106 145.5 206.5 c 128,-1,11
 177 307 177 307 191 411 c 1,12,13
 148 456 148 456 148 484 c 128,-1,14
 148 512 148 512 164 548.5 c 128,-1,15
 180 585 180 585 202 585 c 0,16,17
 215 585 215 585 225 553 c 128,-1,18
 235 521 235 521 235 473 c 1,19,20
 287 407 287 407 316 359 c 1,21,22
 347 461 347 461 401 530.5 c 128,-1,23
 455 600 455 600 525 600 c 0,24,25
 550 600 550 600 565 582 c 128,-1,26
 580 564 580 564 580 542 c 128,-1,27
 580 520 580 520 571.5 502.5 c 128,-1,28
 563 485 563 485 549 485 c 128,-1,29
 535 485 535 485 535 499 c 128,-1,30
 535 513 535 513 526.5 520.5 c 128,-1,31
 518 528 518 528 505 528 c 0,32,33
 464 528 464 528 428 485 c 0,34,35
 377 424 377 424 343 311 c 1,36,37
 409 169 409 169 409 81 c 0,38,39
 409 45 409 45 393 17.5 c 128,-1,40
 377 -10 377 -10 346 -10 c 0,41,42
 280 -10 280 -10 280 102 c 0,43,44
 280 181 280 181 292 252 c 1,45,46
 262 316 262 316 224 369 c 1,47,0
 208 267 208 267 179.5 171 c 128,-1,1
316 186 m 1,48,49
 311 150 311 150 311 112 c 128,-1,50
 311 74 311 74 316 53 c 128,-1,51
 321 32 321 32 327 32 c 0,52,53
 339 32 339 32 339 73 c 128,-1,54
 339 114 339 114 316 186 c 1,48,49
EndSplineSet
EndChar

StartChar: O
Encoding: 79 79 45
Width: 586
Flags: HMW
HStem: -10 51<216 295.5> 154 33<365.5 432> 492 34<275.5 289.5 258 307.5> 569 41<263.5 343>
VStem: 21 70<202.5 266> 456 78<319.5 360>
LayerCount: 2
Fore
SplineSet
21 223 m 0,0,1
 21 290 21 290 46.5 355.5 c 128,-1,2
 72 421 72 421 120 464 c 1,3,4
 132 529 132 529 182.5 569.5 c 128,-1,5
 233 610 233 610 327 610 c 0,6,7
 421 610 421 610 477.5 536.5 c 128,-1,8
 534 463 534 463 534 345 c 0,9,10
 534 268 534 268 511 199 c 1,11,12
 557 215 557 215 594.5 239.5 c 0,13,14
 632 264 632 264 633 264 c 0,15,16
 644 264 644 264 644 251 c 0,17,18
 644 240 644 240 596 208.5 c 0,19,20
 548 177 548 177 497 164 c 1,21,22
 460 83 460 83 392 36.5 c 128,-1,23
 324 -10 324 -10 227.5 -10 c 0,24,25
 131 -10 131 -10 76 54.5 c 128,-1,26
 21 119 21 119 21 223 c 0,0,1
443 187 m 1,27,28
 456 232 456 232 456 287 c 0,29,30
 456 405 456 405 411.5 487 c 128,-1,31
 367 569 367 569 285 569 c 0,32,33
 250 569 250 569 215.5 549.5 c 128,-1,34
 181 530 181 530 166 497 c 1,35,36
 218 526 218 526 271.5 526 c 0,37,38
 325 526 325 526 325 511 c 0,39,40
 325 502 325 502 318 497 c 128,-1,41
 311 492 311 492 304 492 c 0,42,43
 218 492 218 492 158 434 c 1,44,45
 166 332 166 332 247.5 259.5 c 128,-1,46
 329 187 329 187 443 187 c 1,27,28
265 41 m 0,47,48
 385 41 385 41 432 154 c 1,49,50
 312 154 312 154 223.5 217 c 128,-1,51
 135 280 135 280 119 382 c 1,52,53
 91 329 91 329 91 263 c 0,54,55
 91 172 91 172 141.5 106.5 c 128,-1,56
 192 41 192 41 265 41 c 0,47,48
EndSplineSet
EndChar

StartChar: P
Encoding: 80 80 46
Width: 553
Flags: HMW
HStem: -27 230<190 355> 168 35<291 353.5> 538 42 538 97
VStem: 16 67<392 436.5> 154 119<208 224.5> 197 76 464 75<316 414.5>
LayerCount: 2
Fore
SplineSet
291 579 m 1,0,1
 297 580 297 580 323.5 580 c 0,2,3
 350 580 350 580 387.5 570.5 c 128,-1,4
 425 561 425 561 460.5 539.5 c 128,-1,5
 496 518 496 518 517.5 476.5 c 128,-1,6
 539 435 539 435 539 378 c 0,7,8
 539 284 539 284 466 226 c 128,-1,9
 393 168 393 168 273 168 c 1,10,11
 273 -27 273 -27 204 -27 c 0,12,13
 158 -27 158 -27 158 12 c 0,14,15
 158 24 158 24 170 45 c 0,16,17
 182 66 182 66 187 93 c 128,-1,18
 192 120 192 120 195 180 c 1,19,20
 154 193 154 193 154 216 c 128,-1,21
 154 239 154 239 175 239 c 0,22,23
 186 239 186 239 197 236 c 1,24,25
 210 503 210 503 215 531 c 1,26,27
 158 517 158 517 120.5 485 c 128,-1,28
 83 453 83 453 83 409 c 0,29,30
 83 384 83 384 72.5 370 c 128,-1,31
 62 356 62 356 46 356 c 0,32,33
 16 356 16 356 16 390 c 0,34,35
 16 457 16 457 75.5 505.5 c 128,-1,36
 135 554 135 554 224 571 c 1,37,38
 243 635 243 635 277 635 c 0,39,40
 291 635 291 635 291 579 c 1,0,1
464 350 m 0,41,42
 464 440 464 440 412.5 487.5 c 128,-1,43
 361 535 361 535 288 538 c 1,44,45
 273 361 273 361 273 205 c 1,46,47
 287 203 287 203 295 203 c 0,48,49
 379 203 379 203 421.5 246 c 128,-1,50
 464 289 464 289 464 350 c 0,41,42
EndSplineSet
EndChar

StartChar: Q
Encoding: 81 81 47
Width: 599
Flags: HMW
HStem: -83 64<424 434.5> -10 118<235.5 250.5> 546 46<239.5 361.5>
VStem: 36 71<221 308.5> 472 79<282.5 367.5>
LayerCount: 2
Fore
SplineSet
342 592 m 0,0,1
 439 592 439 592 495 529 c 128,-1,2
 551 466 551 466 551 355 c 128,-1,3
 551 244 551 244 503.5 153 c 128,-1,4
 456 62 456 62 371 19 c 1,5,6
 414 -19 414 -19 432 -19 c 0,7,8
 485 -19 485 -19 518 30 c 0,9,10
 535 55 535 55 545 55 c 128,-1,11
 555 55 555 55 555 45 c 0,12,13
 555 21 555 21 538 -5 c 0,14,15
 488 -83 488 -83 399 -83 c 0,16,17
 360 -83 360 -83 293 -5 c 1,18,19
 265 -10 265 -10 242 -10 c 0,20,21
 151 -10 151 -10 93.5 56 c 128,-1,22
 36 122 36 122 36 217 c 0,23,24
 36 362.732394366 36 362.732394366 107.5 472.5 c 0,25,26
 143 527 143 527 203.5 559.5 c 128,-1,27
 264 592 264 592 342 592 c 0,0,1
315 546 m 0,28,29
 208 546 208 546 157.5 467 c 128,-1,30
 107 388 107 388 107 258 c 0,31,32
 107 204 107 204 129 157 c 128,-1,33
 151 110 151 110 186 79 c 1,34,35
 215 108 215 108 246 108 c 128,-1,36
 277 108 277 108 339 50 c 1,37,38
 404 71 404 71 438 136.5 c 128,-1,39
 472 202 472 202 472 303 c 128,-1,40
 472 404 472 404 428 475 c 128,-1,41
 384 546 384 546 315 546 c 0,28,29
EndSplineSet
EndChar

StartChar: R
Encoding: 82 82 48
Width: 584
Flags: HMW
HStem: -118 83<496 589.5> 157 89<312 342> 220 26<316 332.5> 538 42<290 307.5> 538 97<239 307.5>
VStem: 0 67<392 438 392 438> 122 118<-1 165.5> 164 76 467 75<334 416>
LayerCount: 2
Fore
SplineSet
551 -43 m 1,0,-1
 584 -35 l 1,1,2
 600 -35 600 -35 600 -51 c 0,3,4
 599 -77 599 -77 573.5 -97.5 c 128,-1,5
 548 -118 548 -118 516 -118 c 128,-1,6
 484 -118 484 -118 465 -87 c 0,7,8
 437.6875 -42.4375 437.6875 -42.4375 414.5 73.5 c 0,9,10
 403.238095238 129.80952381 403.238095238 129.80952381 388 166 c 1,11,12
 361 157 361 157 331 157 c 128,-1,13
 301 157 301 157 278.5 169.5 c 128,-1,14
 256 182 256 182 256 200 c 0,15,16
 258 246 258 246 330 246 c 0,17,18
 365 246 365 246 405 215 c 1,19,20
 467 262 467 262 467 346 c 0,21,22
 467 396 467 396 448 434.5 c 128,-1,23
 429 473 429 473 398 495 c 0,24,25
 337.409090909 538 337.409090909 538 262 538 c 1,26,27
 260 516 260 516 255 468 c 0,28,29
 244.566929134 367.842519685 244.566929134 367.842519685 243 313 c 2,30,-1
 240 155 l 1,31,32
 240 -27 240 -27 168 -27 c 0,33,34
 122 -27 122 -27 122 12 c 0,35,36
 122 22 122 22 135.5 46 c 128,-1,37
 149 70 149 70 155 101.5 c 128,-1,38
 161 133 161 133 168 286.5 c 128,-1,39
 175 440 175 440 187 528 c 1,40,41
 134 513 134 513 100.5 482 c 128,-1,42
 67 451 67 451 67 409 c 0,43,44
 67 385 67 385 56 370.5 c 128,-1,45
 45 356 45 356 29 356 c 0,46,47
 0 356 0 356 0 387 c 0,48,49
 0 457 0 457 56.5 502.5 c 128,-1,50
 113 548 113 548 196 568 c 1,51,52
 216 635 216 635 252 635 c 0,53,54
 266 635 266 635 266 603 c 0,55,56
 266 596 266 596 264 578 c 1,57,58
 275 580 275 580 306 580 c 128,-1,59
 337 580 337 580 376 571 c 128,-1,60
 415 562 415 562 454.5 540.5 c 128,-1,61
 494 519 494 519 518 475.5 c 128,-1,62
 542 432 542 432 542 374 c 128,-1,63
 542 316 542 316 512 266 c 128,-1,64
 482 216 482 216 434 186 c 1,65,66
 468 144 468 144 487.5 83 c 128,-1,67
 507 22 507 22 524 -10.5 c 128,-1,68
 541 -43 541 -43 551 -43 c 1,0,-1
311 198 m 128,-1,70
 325 192 325 192 340.5 192 c 128,-1,71
 356 192 356 192 369 197 c 1,72,73
 349 220 349 220 323 220 c 128,-1,74
 297 220 297 220 297 212 c 128,-1,69
 297 204 297 204 311 198 c 128,-1,70
EndSplineSet
EndChar

StartChar: S
Encoding: 83 83 49
Width: 479
Flags: HMW
HStem: -10 39<167.5 244 167.5 247.5> -10 203<67.5 247.5> 444 137<224 369> 539 42<238 280.5>
VStem: 12 78<116 124.5 116 127.5> 81 85<396 469.5 396 481> 342 57 342 80<123 225>
LayerCount: 2
Fore
SplineSet
333 459 m 1,0,-1
 338 485 l 1,1,2
 334 539 334 539 265 539 c 0,3,4
 225 539 225 539 195.5 510.5 c 128,-1,5
 166 482 166 482 166 450.5 c 128,-1,6
 166 419 166 419 192.5 395.5 c 128,-1,7
 219 372 219 372 256.5 353.5 c 128,-1,8
 294 335 294 335 331.5 313.5 c 128,-1,9
 369 292 369 292 395.5 258 c 128,-1,10
 422 224 422 224 422 181 c 0,11,12
 422 92 422 92 352 41 c 128,-1,13
 282 -10 282 -10 201 -10 c 128,-1,14
 120 -10 120 -10 66 19.5 c 128,-1,15
 12 49 12 49 12 109 c 0,16,17
 12 141 12 141 34 167 c 128,-1,18
 56 193 56 193 97 193 c 0,19,20
 113 193 113 193 126 184 c 128,-1,21
 139 175 139 175 142 160 c 1,22,23
 142 145 142 145 124 145 c 0,24,25
 90 145 90 145 90 116 c 0,26,27
 91 83 91 83 121.5 56 c 128,-1,28
 152 29 152 29 207.5 29 c 128,-1,29
 263 29 263 29 302.5 67 c 128,-1,30
 342 105 342 105 342 159 c 0,31,32
 342 195 342 195 315 224 c 128,-1,33
 288 253 288 253 250 273.5 c 128,-1,34
 212 294 212 294 173.5 315 c 128,-1,35
 135 336 135 336 108 366 c 128,-1,36
 81 396 81 396 81 434 c 0,37,38
 81 501 81 501 138.5 541 c 128,-1,39
 196 581 196 581 269 581 c 0,40,41
 318 581 318 581 358 561 c 128,-1,42
 398 541 398 541 399 500 c 0,43,44
 399 476 399 476 387 460 c 128,-1,45
 375 444 375 444 354.5 444 c 128,-1,46
 334 444 334 444 333 459 c 1,0,-1
EndSplineSet
EndChar

StartChar: T
Encoding: 84 84 50
Width: 420
Flags: HMW
HStem: -5 40<182.5 253.5 182.5 271> -5 148<108 271> 370 35<107.5 138.5 107.5 161.5> 370 57<100 190.5> 469 40<513 549.5> 533 73<92.5 126 68.5 134.5> 601 20G<346.5 366>
VStem: 11 33<480 513 469.5 543.5> 11 191<398.5 543.5> 73 63<77.5 97 77.5 99.5> 307 69<219 496>
LayerCount: 2
Fore
SplineSet
307 326 m 2,0,-1
 307 496 l 1,1,2
 288 500 288 500 252 508.5 c 128,-1,3
 216 517 216 517 197 521 c 0,4,5
 140 533 140 533 107 533 c 0,6,7
 44 533 44 533 44 498 c 0,8,9
 44 459 44 459 70.5 432 c 128,-1,10
 97 405 97 405 118 405 c 128,-1,11
 139 405 139 405 155.5 416 c 128,-1,12
 172 427 172 427 185 427 c 0,13,14
 202 427 202 427 202 409.5 c 128,-1,15
 202 392 202 392 186.5 381 c 128,-1,16
 171 370 171 370 138 370 c 0,17,18
 85 370 85 370 48 416 c 128,-1,19
 11 462 11 462 11 510 c 128,-1,20
 11 558 11 558 33 582 c 128,-1,21
 55 606 55 606 88 606 c 0,22,23
 164 606 164 606 314 558 c 1,24,25
 326 621 326 621 359 621 c 0,26,27
 374 621 374 621 374 539 c 1,28,29
 471 509 471 509 541 509 c 0,30,31
 586 509 586 509 620 538 c 0,32,33
 630 546 630 546 637.5 546 c 128,-1,34
 645 546 645 546 645 539 c 0,35,36
 645 512 645 512 605 490.5 c 128,-1,37
 565 469 565 469 509 469 c 128,-1,38
 453 469 453 469 374 483 c 1,39,40
 376 345 376 345 376 293 c 128,-1,41
 376 241 376 241 372.5 204 c 128,-1,42
 369 167 369 167 357 126.5 c 128,-1,43
 345 86 345 86 325.5 58.5 c 128,-1,44
 306 31 306 31 271.5 13 c 128,-1,45
 237 -5 237 -5 191.5 -5 c 128,-1,46
 146 -5 146 -5 109.5 16 c 128,-1,47
 73 37 73 37 73 81 c 0,48,49
 73 108 73 108 87 125.5 c 128,-1,50
 101 143 101 143 124.5 143 c 128,-1,51
 148 143 148 143 148 132 c 0,52,53
 148 127 148 127 142 112.5 c 128,-1,54
 136 98 136 98 136 83.5 c 128,-1,55
 136 69 136 69 154.5 52 c 128,-1,56
 173 35 173 35 208 35 c 0,57,58
 307 35 307 35 307 326 c 2,0,-1
EndSplineSet
EndChar

StartChar: U
Encoding: 85 85 51
Width: 509
Flags: HMW
HStem: -5 55<181.5 201.5> 560 20G<113.5 153 433.5 452>
VStem: 77 70<140.5 234> 107 40 107 65<521 522.5> 340 80
LayerCount: 2
Fore
SplineSet
415 46 m 0,0,1
 432 46 432 46 462 87.5 c 128,-1,2
 492 129 492 129 521.5 194.5 c 128,-1,3
 551 260 551 260 557.5 260 c 128,-1,4
 564 260 564 260 564 252 c 0,5,6
 564 224 564 224 535 163 c 0,7,8
 456 -5 456 -5 403 -5 c 0,9,10
 357 -5 357 -5 338 10 c 1,11,12
 330 18 330 18 330 49 c 128,-1,13
 330 80 330 80 335 145 c 1,14,15
 297 80 297 80 254.5 37.5 c 128,-1,16
 212 -5 212 -5 170.5 -5 c 128,-1,17
 129 -5 129 -5 103 39.5 c 128,-1,18
 77 84 77 84 77 159.5 c 128,-1,19
 77 235 77 235 92 348.5 c 128,-1,20
 107 462 107 462 107 517 c 0,21,22
 107 531 107 531 100 531 c 0,23,24
 84 531 84 531 63.5 507.5 c 128,-1,25
 43 484 43 484 36 435 c 0,26,27
 35 424 35 424 27.5 415.5 c 128,-1,28
 20 407 20 407 12 407 c 0,29,30
 0 407 0 407 0 427 c 128,-1,31
 0 447 0 447 20 483.5 c 128,-1,32
 40 520 40 520 72.5 550 c 128,-1,33
 105 580 105 580 136 580 c 0,34,35
 172 580 172 580 171.5 522.5 c 128,-1,36
 171 465 171 465 159 355 c 128,-1,37
 147 245 147 245 147 190 c 0,38,39
 147 50 147 50 199 50 c 0,40,41
 229 50 229 50 269 98 c 128,-1,42
 309 146 309 146 340 210 c 1,43,44
 360 466 360 466 369 527 c 0,45,46
 371 536 371 536 400 558 c 128,-1,47
 429 580 429 580 444.5 580 c 128,-1,48
 460 580 460 580 460 522 c 0,49,50
 460 478 460 478 453 446 c 128,-1,51
 446 414 446 414 435.5 371 c 128,-1,52
 425 328 425 328 420 307 c 1,53,54
 410 173 410 173 410 73 c 0,55,56
 410 46 410 46 415 46 c 0,0,1
EndSplineSet
EndChar

StartChar: V
Encoding: 86 86 52
Width: 507
Flags: HMW
HStem: -20 50<240 290.5 240 292> 694 20G<369.5 424>
VStem: 76 80<343.5 385.5> 212 38<448 495> 340 144<350.5 686> 431 53<350.5 494.5>
LayerCount: 2
Fore
SplineSet
234 -20 m 0,0,1
 151 -20 151 -20 121 52 c 0,2,3
 100 101 100 101 88 176 c 1,4,5
 58 142 58 142 48 129.5 c 128,-1,6
 38 117 38 117 30 117 c 0,7,8
 18 117 18 117 18 127 c 0,9,10
 18 133 18 133 24 139 c 0,11,12
 59 174 59 174 84 203 c 1,13,14
 76 260 76 260 76 324.5 c 128,-1,15
 76 389 76 389 88 446 c 128,-1,16
 100 503 100 503 128.5 541.5 c 128,-1,17
 157 580 157 580 199 580 c 0,18,19
 250 580 250 580 250 493 c 0,20,21
 250 381 250 381 160 262 c 1,22,23
 167 172 167 172 195 93 c 0,24,25
 206 61 206 61 219.5 45.5 c 128,-1,26
 233 30 233 30 257.5 30 c 128,-1,27
 282 30 282 30 312.5 63.5 c 128,-1,28
 343 97 343 97 369 150.5 c 128,-1,29
 395 204 395 204 413 279.5 c 128,-1,30
 431 355 431 355 431 437 c 128,-1,31
 431 519 431 519 419 552.5 c 128,-1,32
 407 586 407 586 378 613 c 1,33,34
 340 645 340 645 340 676 c 0,35,36
 340 691 340 691 352.5 702.5 c 128,-1,37
 365 714 365 714 378 714 c 0,38,39
 411 714 411 714 433.5 693 c 128,-1,40
 456 672 456 672 466 636.5 c 0,41,42
 484 572.6 484 572.6 484 498 c 0,43,44
 484 357 484 357 445.5 235 c 128,-1,45
 407 113 407 113 349.5 46.5 c 128,-1,46
 292 -20 292 -20 234 -20 c 0,0,1
212 480 m 0,47,48
 212 533 212 533 200 533 c 0,49,50
 192 533 192 533 182 509 c 128,-1,51
 172 485 172 485 164 442 c 128,-1,52
 156 399 156 399 156 358 c 128,-1,53
 156 317 156 317 157 300 c 1,54,55
 212 392 212 392 212 480 c 0,47,48
EndSplineSet
EndChar

StartChar: W
Encoding: 87 87 53
Width: 689
Flags: HMW
HStem: -15 68<204 232.5 204 232.5 490.5 503.5> 579 48<219.5 239.5>
VStem: 92 75<309 309> 257 34<481 532> 377 69<313 332> 537 128 623 42<272 401.5>
LayerCount: 2
Fore
SplineSet
452 480 m 1,0,-1
 446 406 l 1,1,2
 446 266 446 266 464 159.5 c 128,-1,3
 482 53 482 53 507 53 c 0,4,5
 541 53 541 53 582 148 c 128,-1,6
 623 243 623 243 623 338 c 0,7,8
 623 447.294117647 623 447.294117647 599.5 486 c 0,9,10
 591 500 591 500 572 519 c 0,11,12
 537 554 537 554 537 586 c 0,13,14
 537 601 537 601 545.5 610.5 c 128,-1,15
 554 620 554 620 566 620 c 0,16,17
 597 620 597 620 618 595.5 c 128,-1,18
 639 571 639 571 648.5 531.5 c 0,19,20
 665 462.894736842 665 462.894736842 665 386 c 0,21,22
 665 207 665 207 598.5 96 c 128,-1,23
 532 -15 532 -15 468 -15 c 0,24,25
 422 -15 422 -15 399.5 83 c 128,-1,26
 377 181 377 181 377 332 c 1,27,28
 317.364505527 82.2763668957 317.364505527 82.2763668957 249.5 16.5 c 0,29,30
 217 -15 217 -15 179 -15 c 0,31,32
 159 -15 159 -15 139.5 2.5 c 128,-1,33
 120 20 120 20 111 49 c 0,34,35
 91 108 91 108 91 274 c 1,36,37
 49 280 49 280 16 296 c 0,38,39
 0 304 0 304 0 314 c 128,-1,40
 0 324 0 324 20 324 c 1,41,-1
 92 309 l 1,42,43
 100.999051233 482.231736243 100.999051233 482.231736243 157 576.5 c 0,44,45
 187 627 187 627 224 627 c 0,46,47
 291 627 291 627 291 527 c 0,48,49
 291 446 291 446 260 372 c 128,-1,50
 229 298 229 298 167 278 c 1,51,52
 167 211 167 211 175 157.5 c 0,53,54
 190.626168224 53 190.626168224 53 214 53 c 0,55,56
 233 53 233 53 264 110.5 c 128,-1,57
 295 168 295 168 324.5 266 c 128,-1,58
 354 364 354 364 363 459 c 0,59,60
 364 473 364 473 390 491 c 128,-1,61
 416 509 416 509 426 509 c 0,62,63
 452 509 452 509 452 480 c 1,0,-1
233.5 390.5 m 128,-1,65
 257 455 257 455 257 492.5 c 128,-1,66
 257 530 257 530 253.5 547.5 c 0,67,68
 247.2 579 247.2 579 235 579 c 0,69,70
 213 579 213 579 191.5 487.5 c 128,-1,71
 170 396 170 396 167 309 c 1,72,64
 210 326 210 326 233.5 390.5 c 128,-1,65
EndSplineSet
EndChar

StartChar: X
Encoding: 88 88 54
Width: 524
Flags: HMW
HStem: -20 81<416 436> 214 20G<66.5 74.5> 580 20G<123 158.5 438.5 473>
LayerCount: 2
Fore
SplineSet
405 -20 m 0,0,1
 367 -20 367 -20 338 19.5 c 0,2,3
 309 59 309 59 249 189 c 1,4,5
 120 -20 120 -20 76 -20 c 0,6,7
 26 -20 26 -20 26 9 c 0,8,9
 26 25 26 25 50 48.5 c 128,-1,10
 74 72 74 72 127 124 c 128,-1,11
 180 176 180 176 227 238 c 1,12,13
 184 324 184 324 148 378 c 1,14,15
 147 376 147 376 96 260 c 1,16,17
 86 234 86 234 70 234 c 0,18,19
 59 234 59 234 59 248 c 0,20,21
 59 262 59 262 70 284 c 1,22,23
 102 341 102 341 127 410 c 1,24,25
 96 460 96 460 96 473 c 0,26,27
 96 517 96 517 107 558.5 c 128,-1,28
 118 600 118 600 139 600 c 0,29,30
 187 600 187 600 187 517 c 1,31,32
 201 489 201 489 282 317 c 1,33,34
 304 344 304 344 341 418.5 c 128,-1,35
 378 493 378 493 410 546.5 c 128,-1,36
 442 600 442 600 467 600 c 0,37,38
 492 600 492 600 492 579 c 0,39,40
 492 553 492 553 483.5 538 c 128,-1,41
 475 523 475 523 456 506 c 128,-1,42
 437 489 437 489 426 474 c 0,43,44
 370 393 370 393 302 275 c 1,45,46
 403 61 403 61 425 61 c 0,47,48
 459 61 459 61 537 234 c 0,49,50
 549 261 549 261 558 261 c 0,51,52
 561 261 561 261 564.5 255.5 c 128,-1,53
 568 250 568 250 568 242 c 0,54,55
 566 200 566 200 506 90 c 128,-1,56
 446 -20 446 -20 405 -20 c 0,0,1
EndSplineSet
EndChar

StartChar: Y
Encoding: 89 89 55
Width: 519
Flags: HMW
HStem: -320 36<268 302.5 268 337> -5 55<187.5 212> 580 20G
VStem: 83 70<140.5 234> 113 40 158 68<-228 -179> 352 77
LayerCount: 2
Fore
SplineSet
113 517 m 0,0,1
 113 531 113 531 106 531 c 0,2,3
 90 531 90 531 69.5 507.5 c 128,-1,4
 49 484 49 484 42 435 c 0,5,6
 41 424 41 424 33.5 415.5 c 128,-1,7
 26 407 26 407 18 407 c 0,8,9
 6 407 6 407 6 427 c 128,-1,10
 6 447 6 447 26 483.5 c 128,-1,11
 46 520 46 520 78.5 550 c 128,-1,12
 111 580 111 580 142 580 c 0,13,14
 178 580 178 580 177.5 522.5 c 128,-1,15
 177 465 177 465 165 355 c 128,-1,16
 153 245 153 245 153 190 c 0,17,18
 153 50 153 50 205 50 c 0,19,20
 243 50 243 50 293.5 121 c 128,-1,21
 344 192 344 192 370 266 c 1,22,23
 390 484 390 484 401 547 c 0,24,25
 403 556 403 556 432 578 c 128,-1,26
 461 600 461 600 476.5 600 c 128,-1,27
 492 600 492 600 492 553 c 0,28,29
 492 498.375 492 498.375 481.5 457.6875 c 0,30,31
 455 355 455 355 448 327 c 1,32,33
 436 247 436 247 431 100 c 1,34,35
 475 123 475 123 507 123 c 0,36,37
 519 123 519 123 519 114.5 c 128,-1,38
 519 106 519 106 507 101 c 1,39,40
 466 88 466 88 429 64 c 1,41,42
 429 -159 429 -159 398.5 -239.5 c 128,-1,43
 368 -320 368 -320 268 -320 c 0,44,45
 158 -320 158 -320 158 -227 c 0,46,47
 158 -158 158 -158 211.5 -85.5 c 128,-1,48
 265 -13 265 -13 355 51 c 1,49,50
 358 114 358 114 363 186 c 1,51,52
 323 107 323 107 273.5 51 c 128,-1,53
 224 -5 224 -5 179.5 -5 c 128,-1,54
 135 -5 135 -5 109 39.5 c 128,-1,55
 83 84 83 84 83 159.5 c 128,-1,56
 83 235 83 235 98 348.5 c 128,-1,57
 113 462 113 462 113 517 c 0,0,1
260.5 -91.5 m 128,-1,59
 226 -150 226 -150 226 -194.5 c 128,-1,60
 226 -239 226 -239 243 -261.5 c 128,-1,61
 260 -284 260 -284 282 -284 c 0,62,63
 313 -284 313 -284 329.5 -217.5 c 128,-1,64
 346 -151 346 -151 352 9 c 1,65,58
 295 -33 295 -33 260.5 -91.5 c 128,-1,59
EndSplineSet
EndChar

StartChar: Z
Encoding: 90 90 56
Width: 501
Flags: HMW
HStem: -25 85<381 384> 0 21G<58.5 79> 435 127<451.5 453.5> 540 80<134 172.5>
LayerCount: 2
Fore
SplineSet
490 456 m 128,-1,1
 467 435 467 435 435.5 435 c 128,-1,2
 404 435 404 435 363 454 c 1,3,4
 255 324 255 324 155 125 c 1,5,6
 203 118 203 118 293.5 89 c 128,-1,7
 384 60 384 60 395 60 c 0,8,9
 452 60 452 60 518 203 c 0,10,11
 544 260 544 260 556 260 c 0,12,13
 562 260 562 260 562 247.5 c 128,-1,14
 562 235 562 235 528 158.5 c 128,-1,15
 494 82 494 82 471.5 45 c 128,-1,16
 449 8 449 8 424 -8.5 c 128,-1,17
 399 -25 399 -25 350 -25 c 0,18,19
 326 -25 326 -25 248 18 c 128,-1,20
 170 61 170 61 130 61 c 1,21,22
 99 0 99 0 72 0 c 0,23,24
 29 0 29 0 29 38 c 0,25,26
 29 55 29 55 49.5 82.5 c 128,-1,27
 70 110 70 110 97 122 c 1,28,29
 221 334 221 334 338 467 c 1,30,31
 210 540 210 540 143 540 c 0,32,33
 118 540 118 540 118 497 c 0,34,35
 118 485 118 485 124 462.5 c 128,-1,36
 130 440 130 440 130 436 c 0,37,38
 130 424 130 424 118.5 424 c 128,-1,39
 107 424 107 424 94.5 458.5 c 128,-1,40
 82 493 82 493 82 530 c 128,-1,41
 82 567 82 567 97 593.5 c 128,-1,42
 112 620 112 620 136.5 620 c 128,-1,43
 161 620 161 620 187 614 c 128,-1,44
 213 608 213 608 232 601 c 128,-1,45
 251 594 251 594 276.5 579.5 c 128,-1,46
 302 565 302 565 313.5 557.5 c 0,47,48
 358.222222222 528.333333333 358.222222222 528.333333333 380 512 c 1,49,50
 432 562 432 562 462 562 c 0,51,52
 482 562 482 562 497.5 549 c 128,-1,53
 513 536 513 536 513 506.5 c 128,-1,0
 513 477 513 477 490 456 c 128,-1,1
460 507 m 0,54,55
 460 521 460 521 444 521 c 128,-1,56
 428 521 428 521 403 498 c 1,57,58
 419.5 489 419.5 489 430 489 c 0,59,60
 460 489 460 489 460 507 c 0,54,55
EndSplineSet
EndChar

StartChar: period
Encoding: 46 46 57
Width: 178
Flags: HMW
HStem: -18 88<77.5 87.5>
VStem: 28 97<18.5 39>
LayerCount: 2
Fore
SplineSet
42 -8.5 m 128,-1,1
 28 1 28 1 28 23 c 128,-1,2
 28 45 28 45 48 57.5 c 128,-1,3
 68 70 68 70 85 70 c 128,-1,4
 102 70 102 70 113.5 60.5 c 128,-1,5
 125 51 125 51 125 37 c 0,6,7
 125 -18 125 -18 71 -18 c 0,8,0
 56 -18 56 -18 42 -8.5 c 128,-1,1
EndSplineSet
EndChar

StartChar: question
Encoding: 63 63 58
Width: 386
Flags: HMW
HStem: -18 88<139.5 149.5> 428 132<60.5 230> 524 36<167.5 196.5>
VStem: 90 97<18.5 20> 106 54<202.5 243.5 202.5 248> 257 80<360.5 452.5>
LayerCount: 2
Fore
SplineSet
160 133 m 0,0,1
 136 133 136 133 121 152 c 128,-1,2
 106 171 106 171 106 197.5 c 128,-1,3
 106 224 106 224 121.5 244.5 c 128,-1,4
 137 265 137 265 159 279 c 128,-1,5
 181 293 181 293 203.5 309 c 128,-1,6
 226 325 226 325 241.5 354 c 128,-1,7
 257 383 257 383 257 425.5 c 128,-1,8
 257 468 257 468 233.5 496 c 128,-1,9
 210 524 210 524 168 524 c 0,10,11
 150 524 150 524 134 507.5 c 0,12,13
 113.927272727 486.8 113.927272727 486.8 102 454 c 1,14,15
 90 428 90 428 69 428 c 0,16,17
 57 428 57 428 50.5 437 c 128,-1,18
 44 446 44 446 44 456 c 0,19,20
 45 499 45 499 96.5 529.5 c 128,-1,21
 148 560 148 560 200 560 c 128,-1,22
 252 560 252 560 294.5 529.5 c 128,-1,23
 337 499 337 499 337 448.5 c 128,-1,24
 337 398 337 398 319 362.5 c 128,-1,25
 301 327 301 327 275 307.5 c 128,-1,26
 249 288 249 288 222.5 273 c 128,-1,27
 196 258 196 258 178 243.5 c 128,-1,28
 160 229 160 229 160 215.5 c 128,-1,29
 160 202 160 202 175 189 c 128,-1,30
 190 176 190 176 190 169.5 c 128,-1,31
 190 163 190 163 179 148 c 128,-1,32
 168 133 168 133 160 133 c 0,0,1
104 -8.5 m 128,-1,34
 90 1 90 1 90.5 23 c 128,-1,35
 91 45 91 45 110.5 57.5 c 128,-1,36
 130 70 130 70 147 70 c 128,-1,37
 164 70 164 70 175.5 60.5 c 128,-1,38
 187 51 187 51 187 37 c 0,39,40
 187 -18 187 -18 133 -18 c 0,41,33
 118 -18 118 -18 104 -8.5 c 128,-1,34
EndSplineSet
EndChar

StartChar: zero
Encoding: 48 48 59
Width: 467
Flags: HMW
HStem: -5 49<184.5 271.5 184.5 278.5> 504 46<258 289>
VStem: 29 77<181.5 251> 191 241<248 521> 354 78<248 329>
LayerCount: 2
Fore
SplineSet
251 504 m 1,0,-1
 199 499 l 2,1,2
 191 499 191 499 191 509 c 0,3,4
 191 526 191 526 218 538 c 128,-1,5
 245 550 245 550 281 550 c 0,6,7
 344 550 344 550 388 490 c 128,-1,8
 432 430 432 430 432 316 c 0,9,10
 432 204.814814815 432 204.814814815 377 105 c 0,11,12
 350 56 350 56 302 25.5 c 128,-1,13
 254 -5 254 -5 193 -5 c 0,14,15
 108 -5 108 -5 68.5 53.5 c 128,-1,16
 29 112 29 112 29 202 c 0,17,18
 29 371 29 371 110 477 c 0,19,20
 144 522 144 522 168 522 c 0,21,22
 175 522 175 522 175 515 c 0,23,24
 175 509.083333333 175 509.083333333 166.5 497.041666667 c 0,25,26
 124.13800206 437.028836251 124.13800206 437.028836251 115.06900103 381.014418126 c 128,-1,27
 106 325 106 325 106 239 c 128,-1,28
 106 153 106 153 137 98.5 c 128,-1,29
 168 44 168 44 212 44 c 128,-1,30
 256 44 256 44 284.5 66.5 c 128,-1,31
 313 89 313 89 327 126.5 c 0,32,33
 354 198.821428571 354 198.821428571 354 281.910714286 c 128,-1,34
 354 365 354 365 328 434.5 c 128,-1,35
 302 504 302 504 251 504 c 1,0,-1
EndSplineSet
EndChar

StartChar: one
Encoding: 49 49 60
Width: 313
Flags: HMW
HStem: -10 21G<178 212.5> 540 20G<229 250>
VStem: 29 227<202.5 231> 163 93 200 56 200 71<391.5 426>
LayerCount: 2
Fore
SplineSet
169 503 m 0,0,1
 203 560 203 560 237 560 c 128,-1,2
 271 560 271 560 271 426 c 0,3,4
 271 387 271 387 264.5 323 c 128,-1,5
 258 259 258 259 256 231 c 1,6,7
 256 156 256 156 250.5 100.5 c 128,-1,8
 245 45 245 45 243 35 c 128,-1,9
 241 25 241 25 235 12 c 0,10,11
 224.846153846 -10 224.846153846 -10 185 -10 c 0,12,13
 163 -10 163 -10 163 38 c 128,-1,14
 163 86 163 86 181.5 212.5 c 128,-1,15
 200 339 200 339 200 406 c 128,-1,16
 200 473 200 473 192.5 473 c 128,-1,17
 185 473 185 473 152 408 c 128,-1,18
 119 343 119 343 103.5 307 c 128,-1,19
 88 271 88 271 81 241.5 c 128,-1,20
 74 212 74 212 67 198 c 128,-1,21
 60 184 60 184 48 184 c 0,22,23
 29 184 29 184 29 204.5 c 128,-1,24
 29 225 29 225 74.5 323 c 128,-1,25
 120 421 120 421 169 503 c 0,0,1
EndSplineSet
EndChar

StartChar: two
Encoding: 50 50 61
Width: 415
Flags: HMW
HStem: -5 84<240.5 314.5> 0 21G<27.5 44> 347 213<86.5 263> 517 43<189.5 228>
VStem: 63 45<441 460.5> 63 64<375.5 460.5> 286 86<365 444.5>
LayerCount: 2
Fore
SplineSet
108 455 m 0,0,1
 108 441 108 441 117.5 418.5 c 128,-1,2
 127 396 127 396 127 383.5 c 0,3,4
 127 371 127 371 118.5 359 c 128,-1,5
 110 347 110 347 96 347 c 0,6,7
 82 347 82 347 72.5 370 c 128,-1,8
 63 393 63 393 63 416 c 0,9,10
 63 480 63 480 114 520 c 128,-1,11
 165 560 165 560 225 560 c 0,12,13
 285 560 285 560 328.5 527 c 128,-1,14
 372 494 372 494 372 439.5 c 0,15,16
 372 385 372 385 351.5 346 c 128,-1,17
 331 307 331 307 304 283 c 128,-1,18
 277 259 277 259 223.5 212 c 128,-1,19
 170 165 170 165 130 122 c 1,20,21
 166 116 166 116 229.5 97.5 c 128,-1,22
 293 79 293 79 304 79 c 0,23,24
 341 79 341 79 374 133 c 0,25,26
 391 162 391 162 398 162 c 0,27,28
 407 162 407 162 407 150 c 0,29,30
 407 122 407 122 378.5 76 c 0,31,32
 350 30 350 30 327 12.5 c 128,-1,33
 304 -5 304 -5 258 -5 c 0,34,35
 244 -5 244 -5 185 28 c 128,-1,36
 126 61 126 61 90 61 c 1,37,38
 62 0 62 0 39 0 c 0,39,40
 22 0 22 0 11.5 10 c 128,-1,41
 1 20 1 20 1 42 c 0,42,43
 1 64 1 64 24 93 c 128,-1,44
 47 122 47 122 77 126 c 1,45,46
 111 162 111 162 154 203 c 128,-1,47
 197 244 197 244 215.5 263 c 128,-1,48
 234 282 234 282 253.5 308 c 128,-1,49
 273 334 273 334 279.5 359 c 128,-1,50
 286 384 286 384 286 422 c 0,51,52
 286 460 286 460 263 488.5 c 128,-1,53
 240 517 240 517 202 517 c 0,54,55
 164 517 164 517 136 503 c 128,-1,56
 108 489 108 489 108 455 c 0,0,1
EndSplineSet
EndChar

StartChar: three
Encoding: 51 51 62
Width: 404
Flags: HMW
HStem: -10 37<121 190.5> -10 114<28 190.5> 308 41<192 293> 308 227 459 101 514 62<107.5 126.5>
VStem: 57 42<464.5 530.5> 298 77<151.5 213.5>
LayerCount: 2
Fore
SplineSet
94 492 m 1,0,-1
 99 467 l 1,1,2
 99 459 99 459 86.5 459 c 128,-1,3
 74 459 74 459 65.5 477.5 c 128,-1,4
 57 496 57 496 57 518 c 128,-1,5
 57 540 57 540 72 558 c 128,-1,6
 87 576 87 576 109 576 c 128,-1,7
 131 576 131 576 190 556 c 128,-1,8
 249 536 249 536 293 535 c 1,9,10
 314 560 314 560 335 560 c 0,11,12
 376 560 376 560 376 500 c 0,13,14
 376 481 376 481 351 469 c 128,-1,15
 326 457 326 457 302 457 c 1,16,17
 287 439 287 439 257.5 406.5 c 128,-1,18
 228 374 228 374 204 345 c 1,19,20
 228 349 228 349 252 349 c 0,21,22
 309 349 309 349 342 301.5 c 128,-1,23
 375 254 375 254 375 201 c 0,24,25
 375 101 375 101 302 45.5 c 128,-1,26
 229 -10 229 -10 130 -10 c 0,27,28
 89 -10 89 -10 50.5 18 c 128,-1,29
 12 46 12 46 12 74 c 0,30,31
 12 87 12 87 18.5 95.5 c 128,-1,32
 25 104 25 104 39.5 104 c 128,-1,33
 54 104 54 104 69 92 c 128,-1,34
 84 80 84 80 92 65.5 c 128,-1,35
 100 51 100 51 115.5 39 c 128,-1,36
 131 27 131 27 151 27 c 0,37,38
 219 27 219 27 258.5 76.5 c 128,-1,39
 298 126 298 126 298 192 c 0,40,41
 298 230 298 230 272 269 c 128,-1,42
 246 308 246 308 206 308 c 0,43,44
 190 308 190 308 170 304 c 128,-1,45
 150 300 150 300 138.5 300 c 128,-1,46
 127 300 127 300 127 309 c 128,-1,47
 127 318 127 318 135 326 c 0,48,49
 209 396 209 396 255 462 c 1,50,51
 219 470 219 470 172 492 c 128,-1,52
 125 514 125 514 117 514 c 0,53,54
 94 514 94 514 94 492 c 1,0,-1
EndSplineSet
EndChar

StartChar: four
Encoding: 52 52 63
Width: 440
Flags: HMW
HStem: -10 244<239.5 340.5> 161 41 161 73 161 241 584 20G<196 231>
VStem: 226 79<20.5 46>
LayerCount: 2
Fore
SplineSet
239 161 m 1,0,-1
 44 150 l 2,1,2
 27 150 27 150 17 159 c 128,-1,3
 7 168 7 168 7 178.5 c 128,-1,4
 7 189 7 189 34 197 c 1,5,6
 42 223 42 223 96.5 352 c 128,-1,7
 151 481 151 481 155.5 497.5 c 128,-1,8
 160 514 160 514 165 536 c 128,-1,9
 170 558 170 558 174 569 c 128,-1,10
 178 580 178 580 191 592 c 128,-1,11
 204 604 204 604 219 604 c 128,-1,12
 234 604 234 604 240.5 591 c 128,-1,13
 247 578 247 578 247 563 c 0,14,15
 247 525 247 525 221 485.5 c 128,-1,16
 195 446 195 446 151 362 c 128,-1,17
 107 278 107 278 78 202 c 1,18,19
 125.857142857 202 125.857142857 202 178.428571429 213.5 c 128,-1,20
 231 225 231 225 250 228 c 1,21,22
 265 402 265 402 288 402 c 0,23,24
 299 402 299 402 310.5 387 c 128,-1,25
 322 372 322 372 322 357 c 2,26,-1
 314 234 l 1,27,28
 353 234 353 234 382.5 216 c 128,-1,29
 412 198 412 198 412 177 c 0,30,31
 412 151 412 151 379 151 c 0,32,33
 365 151 365 151 343.5 156.5 c 128,-1,34
 322 162 322 162 307 162 c 1,35,36
 305 120 305 120 305 32 c 0,37,38
 305 14 305 14 289.5 2 c 128,-1,39
 274 -10 274 -10 246 -10 c 0,40,41
 226 -10 226 -10 226 23 c 0,42,43
 226 76 226 76 239 161 c 1,0,-1
EndSplineSet
EndChar

StartChar: five
Encoding: 53 53 64
Width: 391
Flags: HMW
HStem: -10 36<117.5 177> -10 120<24.5 177> 306 53 318 41<132 254> 318 229<78 185.5> 455 58<131 160> 575 20G<321.5 341.5>
VStem: 276 76<129.5 220>
LayerCount: 2
Fore
SplineSet
119 348 m 1,0,1
 154 359 154 359 213 359 c 128,-1,2
 272 359 272 359 312 312 c 128,-1,3
 352 265 352 265 352 207.5 c 128,-1,4
 352 150 352 150 330 105 c 128,-1,5
 308 60 308 60 273.5 36.5 c 0,6,7
 205.234042553 -10 205.234042553 -10 147.117021277 -10 c 128,-1,8
 89 -10 89 -10 46 16 c 128,-1,9
 3 42 3 42 3 71 c 0,10,11
 3 85 3 85 12 97.5 c 128,-1,12
 21 110 21 110 35 110 c 128,-1,13
 49 110 49 110 62.5 97 c 128,-1,14
 76 84 76 84 84 68 c 128,-1,15
 92 52 92 52 111 39 c 128,-1,16
 130 26 130 26 157 26 c 0,17,18
 202 26 202 26 239 67.5 c 128,-1,19
 276 109 276 109 276 174 c 128,-1,20
 276 239 276 239 239.5 278.5 c 128,-1,21
 203 318 203 318 151 318 c 0,22,23
 131 318 131 318 112.5 312 c 128,-1,24
 94 306 94 306 79 306 c 128,-1,25
 64 306 64 306 64 319 c 128,-1,26
 64 332 64 332 77 337 c 1,27,28
 92 408 92 408 92 457 c 1,29,30
 73 461 73 461 59.5 473 c 128,-1,31
 46 485 46 485 46 501.5 c 128,-1,32
 46 518 46 518 59.5 532.5 c 128,-1,33
 73 547 73 547 86 547 c 128,-1,34
 99 547 99 547 110 537.5 c 128,-1,35
 121 528 121 528 125 513 c 1,36,37
 165 513 165 513 203.5 526 c 128,-1,38
 242 539 242 539 265 554 c 128,-1,39
 288 569 288 569 307.5 582 c 128,-1,40
 327 595 327 595 334 595 c 0,41,42
 353 595 353 595 353 552 c 0,43,44
 353 528 353 528 331.5 507 c 128,-1,45
 310 486 310 486 259.5 470.5 c 128,-1,46
 209 455 209 455 131 455 c 1,47,48
 131 421 131 421 119 348 c 1,0,1
EndSplineSet
EndChar

StartChar: six
Encoding: 54 54 65
Width: 447
Flags: HMW
HStem: -10 38<175 256.5 175 271> 286 36<224 274> 521 39<251 291.5>
VStem: 38 77<184.5 216 184.5 239> 337 54
LayerCount: 2
Fore
SplineSet
278 560 m 0,0,1
 332 560 332 560 364 532 c 128,-1,2
 396 504 396 504 396 457 c 0,3,4
 396 438 396 438 387 418 c 128,-1,5
 378 398 378 398 356 398 c 0,6,7
 326 398 326 398 326 426 c 0,8,9
 326 433 326 433 331.5 446.5 c 128,-1,10
 337 460 337 460 337 468 c 0,11,12
 336 521 336 521 273.5 521 c 128,-1,13
 211 521 211 521 168 454.5 c 128,-1,14
 125 388 125 388 116 263 c 1,15,16
 165 322 165 322 258 322 c 0,17,18
 314 322 314 322 352.5 279.5 c 128,-1,19
 391 237 391 237 391 168.5 c 128,-1,20
 391 100 391 100 343.5 45 c 128,-1,21
 296 -10 296 -10 214 -10 c 0,22,23
 38 -10 38 -10 38 197 c 0,24,25
 38 390 38 390 129 492 c 0,26,27
 189 560 189 560 278 560 c 0,0,1
307.5 246 m 128,-1,29
 285 286 285 286 245.5 286 c 128,-1,30
 206 286 206 286 174.5 269.5 c 0,31,32
 127.937931034 245.110344828 127.937931034 245.110344828 115 216 c 1,33,34
 115 156.6 115 156.6 133 99 c 0,35,36
 143 67 143 67 166 47.5 c 128,-1,37
 189 28 189 28 221 28 c 0,38,39
 272 28 272 28 301 68.5 c 128,-1,40
 330 109 330 109 330 157.5 c 128,-1,28
 330 206 330 206 307.5 246 c 128,-1,29
EndSplineSet
EndChar

StartChar: seven
Encoding: 55 55 66
Width: 354
Flags: HMW
HStem: -10 21G<93.5 134> 214 47 227 34 438 127<37 44> 503 62<51.5 70.5>
VStem: 1 48<443.5 519.5>
LayerCount: 2
Fore
SplineSet
167 225 m 1,0,1
 154 225 154 225 137 219.5 c 128,-1,2
 120 214 120 214 110 214 c 0,3,4
 90 214 90 214 90 230 c 0,5,6
 90 269 90 269 187 269 c 1,7,8
 234 373 234 373 259 441 c 1,9,10
 212.79020979 450.902097902 212.79020979 450.902097902 140.895104895 476.951048951 c 128,-1,11
 69 503 69 503 61 503 c 0,12,13
 40 503 40 503 40 481 c 0,14,15
 40 473 40 473 44.5 461.5 c 128,-1,16
 49 450 49 450 49 446 c 0,17,18
 49 438 49 438 42 438 c 0,19,20
 26 438 26 438 13.5 461.5 c 128,-1,21
 1 485 1 485 1 507 c 128,-1,22
 1 529 1 529 15 547 c 128,-1,23
 29 565 29 565 51 565 c 128,-1,24
 73 565 73 565 154.5 540.5 c 128,-1,25
 236 516 236 516 280 515 c 1,26,27
 286 524 286 524 302 535.5 c 128,-1,28
 318 547 318 547 330.5 547 c 128,-1,29
 343 547 343 547 354 528.5 c 128,-1,30
 365 510 365 510 365 480 c 0,31,32
 365 462 365 462 344.5 451 c 128,-1,33
 324 440 324 440 299 437 c 1,34,35
 276 368 276 368 237 264 c 1,36,37
 268 261 268 261 303.5 261 c 128,-1,38
 339 261 339 261 339 245 c 0,39,40
 339 232 339 232 312 230 c 0,41,42
 303 229 303 229 223 227 c 1,43,44
 180 112 180 112 175 95 c 128,-1,45
 170 78 170 78 166 58 c 128,-1,46
 162 38 162 38 157.5 26 c 128,-1,47
 153 14 153 14 139 2 c 128,-1,48
 125 -10 125 -10 107.5 -10 c 128,-1,49
 90 -10 90 -10 82.5 3 c 128,-1,50
 75 16 75 16 75 31 c 0,51,52
 75 67 75 67 111 116 c 0,53,54
 127 139 127 139 167 225 c 1,0,1
EndSplineSet
EndChar

StartChar: eight
Encoding: 56 56 67
Width: 405
Flags: HMW
HStem: -10 28<154.5 220 154.5 225> 521 39<251 269.5>
VStem: 13 72<82 139 82 144.5> 67 60<425.5 459> 194 180 295 79<104.5 163> 313 61
LayerCount: 2
Fore
SplineSet
135 542 m 0,0,1
 160 560 160 560 168.5 560 c 128,-1,2
 177 560 177 560 177 551.5 c 128,-1,3
 177 543 177 543 158 520 c 0,4,5
 127 483 127 483 127 443 c 0,6,7
 127 381 127 381 212 331 c 1,8,9
 313 395 313 395 313 451 c 0,10,11
 313 484 313 484 295.5 502.5 c 128,-1,12
 278 521 278 521 259 521 c 128,-1,13
 240 521 240 521 224 515 c 128,-1,14
 208 509 208 509 203 509 c 0,15,16
 194 509 194 509 194 523 c 128,-1,17
 194 537 194 537 217 548.5 c 128,-1,18
 240 560 240 560 274.5 560 c 128,-1,19
 309 560 309 560 341 538 c 128,-1,20
 373 516 373 516 373 480 c 0,21,22
 373 443 373 443 361 425 c 2,23,-1
 343 398 l 2,24,25
 330.857142857 379.785714286 330.857142857 379.785714286 288.428571429 349.892857143 c 128,-1,26
 246 320 246 320 240 315 c 1,27,28
 374 237 374 237 374 143 c 0,29,30
 374 66 374 66 317 28 c 128,-1,31
 260 -10 260 -10 163 -10 c 0,32,33
 104 -10 104 -10 58.5 18 c 128,-1,34
 13 46 13 46 13 104 c 0,35,36
 13 211 13 211 169 304 c 1,37,38
 137 325 137 325 119 338.5 c 128,-1,39
 101 352 101 352 84 377.5 c 128,-1,40
 67 403 67 403 67 431 c 0,41,42
 67 494 67 494 135 542 c 0,0,1
295 134 m 0,43,44
 295 214 295 214 200 284 c 1,45,46
 85 187 85 187 85 107 c 0,47,48
 85 70 85 70 113 44 c 128,-1,49
 141 18 141 18 188.5 18 c 128,-1,50
 236 18 236 18 265.5 52 c 128,-1,51
 295 86 295 86 295 134 c 0,43,44
EndSplineSet
EndChar

StartChar: nine
Encoding: 57 57 68
Width: 428
Flags: HMW
HStem: -10 37<144 234 144 248> -10 114<57 248> 213 37<155.5 213> 526 34<189 257.5>
VStem: 50 63<353 415.5 353 417> 312 77<265.5 355.5>
LayerCount: 2
Fore
SplineSet
174 27 m 0,0,1
 216 27 216 27 245.5 57 c 128,-1,2
 275 87 275 87 288.5 135.5 c 0,3,4
 312 219.925925926 312 219.925925926 312 314 c 0,5,6
 312 526 312 526 217 526 c 0,7,8
 176 526 176 526 144.5 480.5 c 128,-1,9
 113 435 113 435 113 379 c 0,10,11
 113 307.857142857 113 307.857142857 140.5 272.5 c 0,12,13
 158 250 158 250 189.5 250 c 128,-1,14
 221 250 221 250 252.5 264 c 128,-1,15
 284 278 284 278 289.5 278 c 128,-1,16
 295 278 295 278 295 270 c 0,17,18
 295 251 295 251 261 232 c 128,-1,19
 227 213 227 213 171 213 c 128,-1,20
 115 213 115 213 82.5 260 c 128,-1,21
 50 307 50 307 50 366 c 0,22,23
 50 443 50 443 101.5 501.5 c 128,-1,24
 153 560 153 560 224 560 c 0,25,26
 263 560 263 560 293 545 c 128,-1,27
 323 530 323 530 340.5 507 c 128,-1,28
 358 484 358 484 369.5 452 c 0,29,30
 389 397.739130435 389 397.739130435 389 328 c 0,31,32
 389 -10 389 -10 156 -10 c 0,33,34
 113 -10 113 -10 78.5 15.5 c 128,-1,35
 44 41 44 41 43.5 72.5 c 128,-1,36
 43 104 43 104 63 104 c 128,-1,37
 83 104 83 104 97 92 c 128,-1,38
 111 80 111 80 118 65.5 c 128,-1,39
 125 51 125 51 139.5 39 c 128,-1,40
 154 27 154 27 174 27 c 0,0,1
EndSplineSet
EndChar

StartChar: questiondown
Encoding: 191 191 69
Width: 355
Flags: HMW
HStem: -213 36<177.5 206.5> -213 132<144 313.5> 277 88<224.5 234.5>
VStem: 37 80<-105.5 -13.5> 187 97<308 328.5> 214 54<103.5 144.5>
LayerCount: 2
Fore
SplineSet
214 214 m 0,0,1
 238 214 238 214 253 195 c 128,-1,2
 268 176 268 176 268 149.5 c 128,-1,3
 268 123 268 123 252.5 102.5 c 128,-1,4
 237 82 237 82 215 68 c 128,-1,5
 193 54 193 54 170.5 38 c 128,-1,6
 148 22 148 22 132.5 -7 c 128,-1,7
 117 -36 117 -36 117 -78.5 c 128,-1,8
 117 -121 117 -121 140.5 -149 c 128,-1,9
 164 -177 164 -177 205.5 -177 c 128,-1,10
 247 -177 247 -177 272 -107 c 0,11,12
 281 -81 281 -81 305 -81 c 0,13,14
 317 -81 317 -81 323.5 -90 c 128,-1,15
 330 -99 330 -99 330 -109 c 0,16,17
 329 -152 329 -152 277.5 -182.5 c 128,-1,18
 226 -213 226 -213 174 -213 c 128,-1,19
 122 -213 122 -213 79.5 -182.5 c 128,-1,20
 37 -152 37 -152 37 -101.5 c 128,-1,21
 37 -51 37 -51 55 -15.5 c 128,-1,22
 73 20 73 20 99 39.5 c 128,-1,23
 125 59 125 59 151.5 74 c 128,-1,24
 178 89 178 89 196 103.5 c 128,-1,25
 214 118 214 118 214 131.5 c 128,-1,26
 214 145 214 145 199 158 c 128,-1,27
 184 171 184 171 184 177.5 c 128,-1,28
 184 184 184 184 195 199 c 128,-1,29
 206 214 206 214 214 214 c 0,0,1
270 355.5 m 128,-1,31
 284 346 284 346 284 324 c 128,-1,32
 284 302 284 302 264 289.5 c 128,-1,33
 244 277 244 277 227 277 c 128,-1,34
 210 277 210 277 198.5 286.5 c 128,-1,35
 187 296 187 296 187 310 c 0,36,37
 187 365 187 365 241 365 c 0,38,30
 256 365 256 365 270 355.5 c 128,-1,31
EndSplineSet
EndChar

StartChar: exclam
Encoding: 33 33 70
Width: 253
Flags: HMW
HStem: -18 88<114.5 124.5> 560 20G<162.5 179>
VStem: 65 97<18.5 20>
LayerCount: 2
Fore
SplineSet
79 -8.5 m 128,-1,1
 65 1 65 1 65.5 23 c 128,-1,2
 66 45 66 45 85.5 57.5 c 128,-1,3
 105 70 105 70 122 70 c 128,-1,4
 139 70 139 70 150.5 60.5 c 128,-1,5
 162 51 162 51 162 37 c 0,6,7
 162 -18 162 -18 108 -18 c 0,8,0
 93 -18 93 -18 79 -8.5 c 128,-1,1
194 569.5 m 128,-1,10
 205 559 205 559 205 544.5 c 128,-1,11
 205 530 205 530 203 516.5 c 128,-1,12
 201 503 201 503 196.5 484.5 c 128,-1,13
 192 466 192 466 186.5 435 c 128,-1,14
 181 404 181 404 165 301 c 128,-1,15
 149 198 149 198 142 158 c 0,16,17
 140 149 140 149 132.5 141 c 128,-1,18
 125 133 125 133 117 133 c 0,19,20
 95 133 95 133 95 172 c 0,21,22
 95 235 95 235 98 278.5 c 128,-1,23
 101 322 101 322 101.5 359.5 c 0,24,25
 102.610887097 442.816532258 102.610887097 442.816532258 112.305443548 483.408266129 c 128,-1,26
 122 524 122 524 139.5 552 c 128,-1,27
 157 580 157 580 174 580 c 0,28,9
 183 580 183 580 194 569.5 c 128,-1,10
EndSplineSet
EndChar

StartChar: exclamdown
Encoding: 161 161 71
Width: 223
Flags: HMW
HStem: -233 21G<63 79.5> 277 88<117.5 127.5>
VStem: 80 97<308 328.5>
LayerCount: 2
Fore
SplineSet
163 355.5 m 128,-1,1
 177 346 177 346 177 324 c 128,-1,2
 177 302 177 302 157 289.5 c 128,-1,3
 137 277 137 277 120 277 c 128,-1,4
 103 277 103 277 91.5 286.5 c 128,-1,5
 80 296 80 296 80 310 c 0,6,7
 80 365 80 365 134 365 c 0,8,0
 149 365 149 365 163 355.5 c 128,-1,1
47 -225 m 128,-1,10
 36 -217 36 -217 36 -201 c 128,-1,11
 36 -185 36 -185 43.5 -154.5 c 128,-1,12
 51 -124 51 -124 56.5 -94.5 c 128,-1,13
 62 -65 62 -65 77.5 42.5 c 128,-1,14
 93 150 93 150 100 189 c 0,15,16
 102 198 102 198 109.5 206 c 128,-1,17
 117 214 117 214 125 214 c 0,18,19
 147 214 147 214 147 175 c 0,20,21
 147 112 147 112 144 68.5 c 128,-1,22
 141 25 141 25 140.5 -12.5 c 0,23,24
 139.389112903 -95.8165322581 139.389112903 -95.8165322581 129.694556452 -136.408266129 c 128,-1,25
 120 -177 120 -177 102.5 -205 c 128,-1,26
 85 -233 85 -233 71.5 -233 c 128,-1,9
 58 -233 58 -233 47 -225 c 128,-1,10
EndSplineSet
EndChar

StartChar: slash
Encoding: 47 47 72
Width: 274
Flags: HMW
HStem: -151 21G<-7 13.5> 557 20G<239 251>
LayerCount: 2
Fore
SplineSet
-19 -137.5 m 128,-1,1
 -28 -124 -28 -124 -28 -108.5 c 128,-1,2
 -28 -93 -28 -93 -15 -59.5 c 128,-1,3
 -2 -26 -2 -26 12.5 1.5 c 0,4,5
 39.4285714286 52.5714285714 39.4285714286 52.5714285714 73 113 c 1,6,7
 114 194 114 194 156 353 c 128,-1,8
 198 512 198 512 213 544.5 c 128,-1,9
 228 577 228 577 248 577 c 0,10,11
 255 577 255 577 255 565 c 128,-1,12
 255 553 255 553 249 529 c 0,13,14
 158 138 158 138 83 -52 c 0,15,16
 67 -92 67 -92 43 -121.5 c 128,-1,17
 19 -151 19 -151 4.5 -151 c 128,-1,0
 -10 -151 -10 -151 -19 -137.5 c 128,-1,1
EndSplineSet
EndChar

StartChar: acute
Encoding: 180 180 73
Width: 348
Flags: HMW
HStem: 415 21G<114 126.5> 544 20G<207 220>
VStem: 179 68<513 520.5>
LayerCount: 2
Fore
SplineSet
179 513 m 0,0,1
 179 521 179 521 174 528.5 c 128,-1,2
 169 536 169 536 169 541 c 0,3,4
 169 546 169 546 186.5 555 c 128,-1,5
 204 564 204 564 215 564 c 0,6,7
 226 564 226 564 236.5 552 c 128,-1,8
 247 540 247 540 247 518 c 0,9,10
 247 484 247 484 204 452 c 0,11,12
 184 437 184 437 157.5 426 c 128,-1,13
 131 415 131 415 118.5 415 c 0,14,15
 106 415 106 415 106 424 c 0,16,17
 106 429 106 429 120 437 c 1,18,19
 178 465 178 465 179 513 c 0,0,1
EndSplineSet
EndChar

StartChar: grave
Encoding: 96 96 74
Width: 344
Flags: HMW
HStem: 416 21G<225 238> 543 20G<126 139>
LayerCount: 2
Fore
SplineSet
159.5 522 m 128,-1,1
 167 504 167 504 171 498 c 128,-1,2
 175 492 175 492 178.5 487.5 c 128,-1,3
 182 483 182 483 185 480 c 128,-1,4
 188 477 188 477 193 473.5 c 128,-1,5
 198 470 198 470 201 468 c 128,-1,6
 204 466 204 466 210.5 462.5 c 128,-1,7
 217 459 217 459 219.5 458 c 128,-1,8
 222 457 222 457 230 453 c 2,9,-1
 240 448 l 2,10,11
 253 442 253 442 253 431 c 0,12,13
 253 416 253 416 235.5 416 c 128,-1,14
 218 416 218 416 190 425.5 c 128,-1,15
 162 435 162 435 141 449 c 0,16,17
 91 483 91 483 91 521 c 0,18,19
 91 532 91 532 107 547.5 c 128,-1,20
 123 563 123 563 130.5 563 c 128,-1,21
 138 563 138 563 145 551.5 c 128,-1,0
 152 540 152 540 159.5 522 c 128,-1,1
EndSplineSet
EndChar

StartChar: dieresis
Encoding: 168 168 75
Width: 367
Flags: HMW
HStem: 448 82<109 118.5 254 263>
VStem: 63 91<482 500.5> 207 91<482 500.5>
LayerCount: 2
Fore
SplineSet
76.5 457 m 128,-1,1
 63 466 63 466 63 486 c 128,-1,2
 63 506 63 506 81.5 518 c 128,-1,3
 100 530 100 530 116 530 c 128,-1,4
 132 530 132 530 143 521 c 128,-1,5
 154 512 154 512 154 499 c 0,6,7
 154 448 154 448 103 448 c 0,8,0
 90 448 90 448 76.5 457 c 128,-1,1
220.5 457 m 128,-1,10
 207 466 207 466 207 486 c 128,-1,11
 207 506 207 506 226 518 c 128,-1,12
 245 530 245 530 261 530 c 128,-1,13
 277 530 277 530 287.5 521 c 128,-1,14
 298 512 298 512 298 499 c 0,15,16
 298 448 298 448 248 448 c 0,17,9
 234 448 234 448 220.5 457 c 128,-1,10
EndSplineSet
EndChar

StartChar: circumflex
Encoding: 710 710 76
Width: 342
Flags: HMW
HStem: 420 21G<239 255> 555 20G<181.5 189.5>
LayerCount: 2
Fore
SplineSet
269 428 m 128,-1,1
 257 420 257 420 251 420 c 0,2,3
 199 420 199 420 164 491 c 1,4,5
 152 465 152 465 121 448 c 128,-1,6
 90 431 90 431 75.5 431 c 128,-1,7
 61 431 61 431 60 440 c 0,8,9
 60 444.272727273 60 444.272727273 68.5 448.136363636 c 128,-1,10
 77 452 77 452 85.5 457.5 c 128,-1,11
 94 463 94 463 105 473.5 c 128,-1,12
 116 484 116 484 122 489.5 c 128,-1,13
 128 495 128 495 132 505.5 c 128,-1,14
 136 516 136 516 137 518.5 c 0,15,16
 142 531 142 531 142 546 c 1,17,18
 143 554 143 554 160.5 564.5 c 128,-1,19
 178 575 178 575 186 575 c 0,20,21
 198 575 198 575 201 555.5 c 128,-1,22
 204 536 204 536 207.5 523 c 128,-1,23
 211 510 211 510 223.5 490 c 0,24,25
 239.902439024 463.756097561 239.902439024 463.756097561 265 453 c 0,26,27
 281 446.142857143 281 446.142857143 281 441.071428571 c 128,-1,0
 281 436 281 436 269 428 c 128,-1,1
EndSplineSet
EndChar

StartChar: tilde
Encoding: 732 732 77
Width: 328
Flags: HMW
HStem: 461 58<212 220.5> 504 56<80 106>
VStem: 42 234<489 538>
LayerCount: 2
Fore
SplineSet
163.5 539.5 m 128,-1,1
 214 519 214 519 224.5 519 c 128,-1,2
 235 519 235 519 246 535.5 c 128,-1,3
 257 552 257 552 263 552 c 0,4,5
 276 552 276 552 276 530.5 c 128,-1,6
 276 509 276 509 253 485 c 128,-1,7
 230 461 230 461 204 461 c 128,-1,8
 178 461 178 461 142 482.5 c 128,-1,9
 106 504 106 504 87 504 c 0,10,11
 80 504 80 504 73.5 490 c 128,-1,12
 67 476 67 476 59 476 c 0,13,14
 42 476 42 476 42 496 c 128,-1,15
 42 516 42 516 56.5 538 c 128,-1,16
 71 560 71 560 92 560 c 128,-1,0
 113 560 113 560 163.5 539.5 c 128,-1,1
EndSplineSet
EndChar

StartChar: ccedilla
Encoding: 231 231 78
Width: 286
Flags: HMW
HStem: -150 34<91.5 96.5 80.5 118.5> -4 51 224 131<189 198 127.5 208> 323 32<136 170>
VStem: 0 71<125.5 188.5 125.5 201.5> 47 126<-133.5 -56.5> 119 54<-91 -61> 187 57<284.5 301>
LayerCount: 2
Fore
SplineSet
179 243 m 1,0,-1
 187 294 l 1,1,2
 187 305 187 305 180 314 c 128,-1,3
 173 323 173 323 162 323 c 0,4,5
 125 323 125 323 98 267.5 c 128,-1,6
 71 212 71 212 71 161 c 128,-1,7
 71 110 71 110 92 78.5 c 128,-1,8
 113 47 113 47 143.5 47 c 128,-1,9
 174 47 174 47 198 61 c 128,-1,10
 222 75 222 75 242 101 c 0,11,12
 284.258064516 155.935483871 284.258064516 155.935483871 314.5 226.5 c 0,13,14
 322 244 322 244 326.5 252 c 128,-1,15
 331 260 331 260 336.5 260 c 128,-1,16
 342 260 342 260 342 252 c 0,17,18
 342 219 342 219 310 154.5 c 128,-1,19
 278 90 278 90 235.5 45 c 128,-1,20
 193 0 193 0 129 -4 c 1,21,22
 125 -7 125 -7 125 -12 c 128,-1,23
 125 -17 125 -17 137 -25 c 0,24,25
 173 -49 173 -49 173 -78 c 128,-1,26
 173 -107 173 -107 150.5 -128.5 c 128,-1,27
 128 -150 128 -150 106 -150 c 128,-1,28
 84 -150 84 -150 65.5 -143 c 128,-1,29
 47 -136 47 -136 47 -125 c 0,30,31
 47 -107 47 -107 63 -107 c 0,32,33
 66 -107 66 -107 73 -111.5 c 128,-1,34
 80 -116 80 -116 90.5 -116 c 128,-1,35
 101 -116 101 -116 110 -106 c 128,-1,36
 119 -96 119 -96 119 -77 c 128,-1,37
 119 -58 119 -58 103 -42 c 128,-1,38
 87 -26 87 -26 87 -20 c 128,-1,39
 87 -14 87 -14 94 -3 c 1,40,41
 47 5 47 5 23.5 42.5 c 128,-1,42
 0 80 0 80 0 122 c 0,43,44
 0 236 0 236 49.5 295.5 c 128,-1,45
 99 355 99 355 175 355 c 0,46,47
 207 355 207 355 225.5 338.5 c 128,-1,48
 244 322 244 322 244 301 c 0,49,50
 244 262 244 262 230 243 c 128,-1,51
 216 224 216 224 196 224 c 0,52,53
 179 224 179 224 179 243 c 1,0,-1
EndSplineSet
EndChar

StartChar: Ccedilla
Encoding: 199 199 79
Width: 412
Flags: HMW
HStem: -150 34<161.5 166.5 150.5 188.5> -9 54<195 249.5> 369 211<329.5 337 226 360> 543 37<226 308>
VStem: 0 77<190 302.5 190 313.5> 117 126<-133.5 -56.5> 189 54<-91 -61> 311 101<378.5 510.5> 350 62<458 485>
LayerCount: 2
Fore
SplineSet
195 -9 m 1,0,1
 195 -15 195 -15 207 -24 c 0,2,3
 243 -51 243 -51 243 -79 c 128,-1,4
 243 -107 243 -107 220.5 -128.5 c 128,-1,5
 198 -150 198 -150 176 -150 c 128,-1,6
 154 -150 154 -150 135.5 -143 c 128,-1,7
 117 -136 117 -136 117 -125 c 0,8,9
 117 -107 117 -107 133 -107 c 0,10,11
 136 -107 136 -107 143 -111.5 c 128,-1,12
 150 -116 150 -116 160.5 -116 c 128,-1,13
 171 -116 171 -116 180 -106 c 128,-1,14
 189 -96 189 -96 189 -77 c 128,-1,15
 189 -58 189 -58 173 -42 c 128,-1,16
 157 -26 157 -26 157 -20.5 c 128,-1,17
 157 -15 157 -15 160 -9 c 1,18,19
 85 -1 85 -1 42.5 62 c 128,-1,20
 0 125 0 125 0 193 c 0,21,22
 0 367 0 367 90.5 473.5 c 128,-1,23
 181 580 181 580 305 580 c 0,24,25
 352 580 352 580 382 552.5 c 128,-1,26
 412 525 412 525 412 483 c 128,-1,27
 412 441 412 441 391 405 c 128,-1,28
 370 369 370 369 340.5 369 c 128,-1,29
 311 369 311 369 311 385 c 0,30,31
 311 403 311 403 330.5 426 c 128,-1,32
 350 449 350 449 350 472 c 0,33,34
 350 543 350 543 274.5 543 c 128,-1,35
 199 543 199 543 138 442 c 128,-1,36
 77 341 77 341 77 234 c 0,37,38
 77 160 77 160 119 102.5 c 128,-1,39
 161 45 161 45 238 45 c 0,40,41
 328 45 328 45 411 165 c 0,42,43
 418 175 418 175 431.5 199.5 c 0,44,45
 463.183673469 257 463.183673469 257 469.591836735 257 c 128,-1,46
 476 257 476 257 476 249 c 0,47,48
 476 200 476 200 425 125 c 0,49,50
 391 75 391 75 329.5 33 c 128,-1,51
 268 -9 268 -9 195 -9 c 1,0,1
EndSplineSet
EndChar

StartChar: comma
Encoding: 44 44 80
Width: 152
Flags: HMW
HStem: -114 190<22 92.5>
VStem: 16 106<-108 30> 30 92<19.5 30 -0.5 37.5> 56 66<-39.5 30>
LayerCount: 2
Fore
SplineSet
49 58.5 m 128,-1,1
 68 76 68 76 83 76 c 128,-1,2
 98 76 98 76 110 57.5 c 128,-1,3
 122 39 122 39 122 14 c 128,-1,4
 122 -11 122 -11 85.5 -62.5 c 128,-1,5
 49 -114 49 -114 24 -114 c 0,6,7
 16 -114 16 -114 16 -103 c 128,-1,8
 16 -92 16 -92 36 -66 c 128,-1,9
 56 -40 56 -40 56 -25.5 c 128,-1,10
 56 -11 56 -11 43 4 c 128,-1,11
 30 19 30 19 30 30 c 128,-1,0
 30 41 30 41 49 58.5 c 128,-1,1
EndSplineSet
EndChar

StartChar: parenright
Encoding: 41 41 81
Width: 258
Flags: HMW
HStem: -102 21G<12.5 23.5> 598 20G<62 78>
VStem: 143 71<240.5 316.5>
LayerCount: 2
Fore
SplineSet
40.5 589.5 m 128,-1,1
 33 601 33 601 33 606.5 c 128,-1,2
 33 612 33 612 45 615 c 128,-1,3
 57 618 57 618 67 618 c 0,4,5
 101 618 101 618 118 600 c 0,6,7
 167 551 167 551 190.5 472 c 128,-1,8
 214 393 214 393 214 306 c 0,9,10
 214 125 214 125 76 -54 c 0,11,12
 39 -102 39 -102 15 -102 c 0,13,14
 6 -102 6 -102 6 -89 c 128,-1,15
 6 -76 6 -76 34 -45 c 1,16,17
 143 85 143 85 143 261.5 c 128,-1,18
 143 438 143 438 79 537 c 0,19,20
 73 546 73 546 60.5 562 c 128,-1,0
 48 578 48 578 40.5 589.5 c 128,-1,1
EndSplineSet
EndChar

StartChar: quotedblleft
Encoding: 8220 8220 82
Width: 305
Flags: HMW
HStem: 390 190<75.5 146 126.5 206.5>
VStem: 46 66<436 505.5> 46 92<436 446.5 428.5 466.5> 46 106<436 574> 156 66<436 505.5> 156 92<436 446.5 428.5 466.5> 156 106<436 574>
LayerCount: 2
Fore
SplineSet
119 407.5 m 128,-1,1
 100 390 100 390 85 390 c 128,-1,2
 70 390 70 390 58 408.5 c 128,-1,3
 46 427 46 427 46 452 c 128,-1,4
 46 477 46 477 82.5 528.5 c 128,-1,5
 119 580 119 580 144 580 c 0,6,7
 152 580 152 580 152 569 c 128,-1,8
 152 558 152 558 132 532 c 128,-1,9
 112 506 112 506 112 491.5 c 128,-1,10
 112 477 112 477 125 462 c 128,-1,11
 138 447 138 447 138 436 c 128,-1,0
 138 425 138 425 119 407.5 c 128,-1,1
229 407.5 m 128,-1,13
 210 390 210 390 195 390 c 128,-1,14
 180 390 180 390 168 408.5 c 128,-1,15
 156 427 156 427 156 452 c 128,-1,16
 156 477 156 477 192.5 528.5 c 128,-1,17
 229 580 229 580 254 580 c 0,18,19
 262 580 262 580 262 569 c 128,-1,20
 262 558 262 558 242 532 c 128,-1,21
 222 506 222 506 222 491.5 c 128,-1,22
 222 477 222 477 235 462 c 128,-1,23
 248 447 248 447 248 436 c 128,-1,12
 248 425 248 425 229 407.5 c 128,-1,13
EndSplineSet
EndChar

StartChar: quotesinglbase
Encoding: 8218 8218 83
Width: 129
Flags: HMW
HStem: -114 190<5 75.5>
VStem: -1 106<-108 30> 13 92<19.5 30 -0.5 37.5> 39 66<-39.5 30>
LayerCount: 2
Fore
SplineSet
32 58.5 m 128,-1,1
 51 76 51 76 66 76 c 128,-1,2
 81 76 81 76 93 57.5 c 128,-1,3
 105 39 105 39 105 14 c 128,-1,4
 105 -11 105 -11 68.5 -62.5 c 128,-1,5
 32 -114 32 -114 7 -114 c 0,6,7
 -1 -114 -1 -114 -1 -103 c 128,-1,8
 -1 -92 -1 -92 19 -66 c 128,-1,9
 39 -40 39 -40 39 -25.5 c 128,-1,10
 39 -11 39 -11 26 4 c 128,-1,11
 13 19 13 19 13 30 c 128,-1,0
 13 41 13 41 32 58.5 c 128,-1,1
EndSplineSet
EndChar

StartChar: quoteleft
Encoding: 8216 8216 84
Width: 199
Flags: HMW
HStem: 390 190<75.5 146>
VStem: 46 66<436 505.5> 46 92<436 446.5 428.5 466.5> 46 106<436 574>
LayerCount: 2
Fore
SplineSet
119 407.5 m 128,-1,1
 100 390 100 390 85 390 c 128,-1,2
 70 390 70 390 58 408.5 c 128,-1,3
 46 427 46 427 46 452 c 128,-1,4
 46 477 46 477 82.5 528.5 c 128,-1,5
 119 580 119 580 144 580 c 0,6,7
 152 580 152 580 152 569 c 128,-1,8
 152 558 152 558 132 532 c 128,-1,9
 112 506 112 506 112 491.5 c 128,-1,10
 112 477 112 477 125 462 c 128,-1,11
 138 447 138 447 138 436 c 128,-1,0
 138 425 138 425 119 407.5 c 128,-1,1
EndSplineSet
EndChar

StartChar: quotedblright
Encoding: 8221 8221 85
Width: 281
Flags: HMW
HStem: 390 190<41 111.5 90.5 170.5>
VStem: 35 106<396 534> 49 92<523.5 534 503.5 541.5> 75 66<464.5 534> 145 106<396 534> 159 92<523.5 534 503.5 541.5> 185 66<464.5 534>
LayerCount: 2
Fore
SplineSet
178 562.5 m 128,-1,1
 197 580 197 580 212 580 c 128,-1,2
 227 580 227 580 239 561.5 c 128,-1,3
 251 543 251 543 251 518 c 128,-1,4
 251 493 251 493 214.5 441.5 c 128,-1,5
 178 390 178 390 153 390 c 0,6,7
 145 390 145 390 145 401 c 128,-1,8
 145 412 145 412 165 438 c 128,-1,9
 185 464 185 464 185 478.5 c 128,-1,10
 185 493 185 493 172 508 c 128,-1,11
 159 523 159 523 159 534 c 128,-1,0
 159 545 159 545 178 562.5 c 128,-1,1
68 562.5 m 128,-1,13
 87 580 87 580 102 580 c 128,-1,14
 117 580 117 580 129 561.5 c 128,-1,15
 141 543 141 543 141 518 c 128,-1,16
 141 493 141 493 104.5 441.5 c 128,-1,17
 68 390 68 390 43 390 c 0,18,19
 35 390 35 390 35 401 c 128,-1,20
 35 412 35 412 55 438 c 128,-1,21
 75 464 75 464 75 478.5 c 128,-1,22
 75 493 75 493 62 508 c 128,-1,23
 49 523 49 523 49 534 c 128,-1,12
 49 545 49 545 68 562.5 c 128,-1,13
EndSplineSet
EndChar

StartChar: quotedblbase
Encoding: 8222 8222 86
Width: 255
Flags: HMW
HStem: -114 190<45 115.5 94.5 174.5>
VStem: 39 106<-108 30> 53 92<19.5 30 -0.5 37.5> 79 66<-39.5 30> 149 106<-108 30> 163 92<19.5 30 -0.5 37.5> 189 66<-39.5 30>
LayerCount: 2
Fore
SplineSet
72 58.5 m 128,-1,1
 91 76 91 76 106 76 c 128,-1,2
 121 76 121 76 133 57.5 c 128,-1,3
 145 39 145 39 145 14 c 128,-1,4
 145 -11 145 -11 108.5 -62.5 c 128,-1,5
 72 -114 72 -114 47 -114 c 0,6,7
 39 -114 39 -114 39 -103 c 128,-1,8
 39 -92 39 -92 59 -66 c 128,-1,9
 79 -40 79 -40 79 -25.5 c 128,-1,10
 79 -11 79 -11 66 4 c 128,-1,11
 53 19 53 19 53 30 c 128,-1,0
 53 41 53 41 72 58.5 c 128,-1,1
182 58.5 m 128,-1,13
 201 76 201 76 216 76 c 128,-1,14
 231 76 231 76 243 57.5 c 128,-1,15
 255 39 255 39 255 14 c 128,-1,16
 255 -11 255 -11 218.5 -62.5 c 128,-1,17
 182 -114 182 -114 157 -114 c 0,18,19
 149 -114 149 -114 149 -103 c 128,-1,20
 149 -92 149 -92 169 -66 c 128,-1,21
 189 -40 189 -40 189 -25.5 c 128,-1,22
 189 -11 189 -11 176 4 c 128,-1,23
 163 19 163 19 163 30 c 128,-1,12
 163 41 163 41 182 58.5 c 128,-1,13
EndSplineSet
EndChar

StartChar: quoteright
Encoding: 8217 8217 87
Width: 140
Flags: HMW
HStem: 390 190<40 110.5>
VStem: 34 106<396 534> 48 92<523.5 534 503.5 541.5> 74 66<464.5 534>
LayerCount: 2
Fore
SplineSet
67 562.5 m 128,-1,1
 86 580 86 580 101 580 c 128,-1,2
 116 580 116 580 128 561.5 c 128,-1,3
 140 543 140 543 140 518 c 128,-1,4
 140 493 140 493 103.5 441.5 c 128,-1,5
 67 390 67 390 42 390 c 0,6,7
 34 390 34 390 34 401 c 128,-1,8
 34 412 34 412 54 438 c 128,-1,9
 74 464 74 464 74 478.5 c 128,-1,10
 74 493 74 493 61 508 c 128,-1,11
 48 523 48 523 48 534 c 128,-1,0
 48 545 48 545 67 562.5 c 128,-1,1
EndSplineSet
EndChar

StartChar: semicolon
Encoding: 59 59 88
Width: 203
Flags: HMW
HStem: -114 190<60 130.5> 267 88<118.5 128.5>
VStem: 54 106<-108 30> 68 92<19.5 30 -0.5 37.5> 94 66<-39.5 30>
LayerCount: 2
Fore
SplineSet
87 58.5 m 128,-1,1
 106 76 106 76 121 76 c 128,-1,2
 136 76 136 76 148 57.5 c 128,-1,3
 160 39 160 39 160 14 c 128,-1,4
 160 -11 160 -11 123.5 -62.5 c 128,-1,5
 87 -114 87 -114 62 -114 c 0,6,7
 54 -114 54 -114 54 -103 c 128,-1,8
 54 -92 54 -92 74 -66 c 128,-1,9
 94 -40 94 -40 94 -25.5 c 128,-1,10
 94 -11 94 -11 81 4 c 128,-1,11
 68 19 68 19 68 30 c 128,-1,0
 68 41 68 41 87 58.5 c 128,-1,1
83 276.5 m 128,-1,13
 69 286 69 286 69 308 c 128,-1,14
 69 330 69 330 89 342.5 c 128,-1,15
 109 355 109 355 126 355 c 128,-1,16
 143 355 143 355 154.5 345.5 c 128,-1,17
 166 336 166 336 166 322 c 0,18,19
 166 267 166 267 112 267 c 0,20,12
 97 267 97 267 83 276.5 c 128,-1,13
EndSplineSet
EndChar

StartChar: colon
Encoding: 58 58 89
Width: 205
Flags: HMW
HStem: -18 88<118.5 128.5> 267 88<118.5 128.5>
VStem: 69 97<18.5 39 303.5 324>
LayerCount: 2
Fore
SplineSet
83 -8.5 m 128,-1,1
 69 1 69 1 69 23 c 128,-1,2
 69 45 69 45 89 57.5 c 128,-1,3
 109 70 109 70 126 70 c 128,-1,4
 143 70 143 70 154.5 60.5 c 128,-1,5
 166 51 166 51 166 37 c 0,6,7
 166 -18 166 -18 112 -18 c 0,8,0
 97 -18 97 -18 83 -8.5 c 128,-1,1
83 276.5 m 128,-1,10
 69 286 69 286 69 308 c 128,-1,11
 69 330 69 330 89 342.5 c 128,-1,12
 109 355 109 355 126 355 c 128,-1,13
 143 355 143 355 154.5 345.5 c 128,-1,14
 166 336 166 336 166 322 c 0,15,16
 166 267 166 267 112 267 c 0,17,9
 97 267 97 267 83 276.5 c 128,-1,10
EndSplineSet
EndChar

StartChar: percent
Encoding: 37 37 90
Width: 521
Flags: HMW
HStem: -4 21G<74.5 96.5> 13 34<356 394.5> 181 41<403.5 404> 181 54<325.5 404> 317 32<127 169 127 169> 433 86 507 25<179 186.5> 541 20G<427.5 445.5>
VStem: 34 49<404.5 438.5> 256 53<101.5 139> 442 39<109.5 153>
LayerCount: 2
Fore
SplineSet
51 18 m 0,0,1
 51 33 51 33 67.5 52.5 c 128,-1,2
 84 72 84 72 117.5 111.5 c 128,-1,3
 151 151 151 151 178 199 c 0,4,5
 270 360 270 360 328 450 c 1,6,7
 289 438 289 438 258 435 c 1,8,9
 254 387 254 387 220 352 c 128,-1,10
 186 317 186 317 134 317 c 128,-1,11
 82 317 82 317 58 346 c 128,-1,12
 34 375 34 375 34 415 c 128,-1,13
 34 455 34 455 62 487 c 128,-1,14
 90 519 90 519 137 519 c 0,15,16
 142 519 142 519 145 518 c 1,17,18
 162 532 162 532 188 532 c 128,-1,19
 214 532 214 532 233.5 512.5 c 128,-1,20
 253 493 253 493 258 463 c 1,21,22
 302 466 302 466 353 487 c 1,23,24
 367 508 367 508 387.5 534.5 c 128,-1,25
 408 561 408 561 435 561 c 128,-1,26
 462 561 462 561 462 541 c 0,27,28
 462 511 462 511 427 496 c 0,29,30
 387.368188513 478.385861561 387.368188513 478.385861561 262 233.5 c 0,31,32
 152.940366972 20.4701834862 152.940366972 20.4701834862 116 2 c 0,33,34
 104 -4 104 -4 86 -4 c 0,35,36
 51 -4 51 -4 51 18 c 0,0,1
328.5 69.5 m 128,-1,38
 348 47 348 47 377.5 47 c 128,-1,39
 407 47 407 47 424.5 71 c 128,-1,40
 442 95 442 95 442 123 c 128,-1,41
 442 151 442 151 436.5 164.5 c 128,-1,42
 431 178 431 178 425.5 182.5 c 128,-1,43
 420 187 420 187 418.5 187 c 128,-1,44
 417 187 417 187 411 184 c 128,-1,45
 405 181 405 181 397 181 c 0,46,47
 378 181 378 181 378 195 c 0,48,49
 378 222 378 222 417 222 c 0,50,51
 442 222 442 222 461.5 201 c 128,-1,52
 481 180 481 180 481 134 c 128,-1,53
 481 88 481 88 447 50.5 c 128,-1,54
 413 13 413 13 350 13 c 0,55,56
 307 13 307 13 281.5 42.5 c 128,-1,57
 256 72 256 72 256 115 c 128,-1,58
 256 158 256 158 284 196.5 c 128,-1,59
 312 235 312 235 359 235 c 0,60,61
 373 235 373 235 373 225 c 0,62,63
 373 218 373 218 357.5 214.5 c 128,-1,64
 342 211 342 211 325.5 182.5 c 128,-1,65
 309 154 309 154 309 123 c 128,-1,37
 309 92 309 92 328.5 69.5 c 128,-1,38
142 349 m 0,66,67
 179 349 179 349 197.5 374.5 c 128,-1,68
 216 400 216 400 218 433 c 1,69,70
 177 434 177 434 153 449 c 128,-1,71
 129 464 129 464 129 485 c 0,72,73
 129 495 129 495 133 503 c 1,74,75
 83 494 83 494 83 425 c 0,76,77
 83 395 83 395 101 372 c 128,-1,78
 119 349 119 349 142 349 c 0,66,67
176 507 m 0,79,80
 167 507 167 507 167 496.5 c 128,-1,81
 167 486 167 486 180 477.5 c 128,-1,82
 193 469 193 469 215 465 c 1,83,84
 205 507 205 507 176 507 c 0,79,80
EndSplineSet
EndChar

StartChar: parenleft
Encoding: 40 40 91
Width: 274
Flags: HMW
HStem: -102 21G<201 217> 598 20G<255.5 266.5>
VStem: 65 71<199.5 275.5>
LayerCount: 2
Fore
SplineSet
238.5 -73.5 m 128,-1,1
 246 -85 246 -85 246 -90.5 c 128,-1,2
 246 -96 246 -96 234 -99 c 128,-1,3
 222 -102 222 -102 212 -102 c 0,4,5
 178 -102 178 -102 161 -84 c 0,6,7
 112 -35 112 -35 88.5 44 c 128,-1,8
 65 123 65 123 65 210 c 0,9,10
 65 391 65 391 203 570 c 0,11,12
 240 618 240 618 264 618 c 0,13,14
 273 618 273 618 273 605 c 128,-1,15
 273 592 273 592 245 561 c 1,16,17
 136 431 136 431 136 254.5 c 128,-1,18
 136 78 136 78 200 -21 c 0,19,20
 206 -30 206 -30 218.5 -46 c 128,-1,0
 231 -62 231 -62 238.5 -73.5 c 128,-1,1
EndSplineSet
EndChar

StartChar: at
Encoding: 64 64 92
Width: 727
Flags: HMW
HStem: -181 57<271 337> -5 38<489.5 530.5 489.5 541.5> -5 53<289.5 311> 315 40<323.5 351> 481 38<293.5 465.5>
VStem: 0 77<49.5 216.5 49.5 217.5> 180 68<137.5 200> 401 66 606 78<182 284.5>
LayerCount: 2
Fore
SplineSet
406 11 m 1,0,1
 399 18 399 18 399 47.5 c 0,2,3
 399 77 399 77 401 133 c 1,4,5
 373 62 373 62 347.5 28.5 c 128,-1,6
 322 -5 322 -5 281 -5 c 0,7,8
 240 -5 240 -5 210 32.5 c 128,-1,9
 180 70 180 70 180 150.5 c 0,10,11
 180 231 180 231 225.5 293 c 128,-1,12
 271 355 271 355 345 355 c 0,13,14
 377 355 377 355 417 313 c 1,15,16
 426 326 426 326 447 345.5 c 128,-1,17
 468 365 468 365 482.5 365 c 0,18,19
 497 365 497 365 497 322 c 0,20,21
 497 279 497 279 482 246 c 0,22,23
 467 213 467 213 467 134 c 0,24,25
 467 55 467 55 473 44 c 0,26,27
 479 33 479 33 495 33 c 0,28,29
 528 33 528 33 554.5 65 c 128,-1,30
 581 97 581 97 593.5 137.5 c 128,-1,31
 606 178 606 178 606 213 c 0,32,33
 606 328 606 328 551.5 404.5 c 128,-1,34
 497 481 497 481 397.5 481 c 0,35,36
 298 481 298 481 224.5 428.5 c 128,-1,37
 151 376 151 376 114 297 c 128,-1,38
 77 218 77 218 77 133 c 0,39,40
 77 14 77 14 154 -55 c 128,-1,41
 231 -124 231 -124 337 -124 c 0,42,43
 423 -124 423 -124 513 -79 c 0,44,45
 563 -54 563 -54 570.5 -54 c 0,46,47
 578 -54 578 -54 578 -68 c 0,48,49
 578 -88 578 -88 515 -122 c 0,50,51
 406 -181 406 -181 282.5 -181 c 0,52,53
 159 -181 159 -181 79.5 -105.5 c 128,-1,54
 0 -30 0 -30 0 95 c 0,55,56
 0 281 0 281 113 400 c 128,-1,57
 226 519 226 519 412 519 c 0,58,59
 494 519 494 519 558.5 475.5 c 128,-1,60
 623 432 623 432 653.5 373 c 128,-1,61
 684 314 684 314 684 257 c 0,62,63
 684 140 684 140 629 67.5 c 128,-1,64
 574 -5 574 -5 470 -5 c 0,65,66
 426 -5 426 -5 406 11 c 1,0,1
339 315 m 0,67,68
 311 315 311 315 279.5 273.5 c 128,-1,69
 248 232 248 232 248 176 c 0,70,71
 248 120 248 120 264.5 84 c 128,-1,72
 281 48 281 48 308 48 c 0,73,74
 342 48 342 48 407 219 c 1,75,-1
 411 269 l 1,76,77
 402 285 402 285 379 300 c 128,-1,78
 356 315 356 315 339 315 c 0,67,68
EndSplineSet
EndChar

StartChar: braceleft
Encoding: 123 123 93
Width: 295
Flags: HMW
HStem: -102 21G<165 203> 598 20G<189.5 238.5>
VStem: 40 145<253 363> 84 70<9.5 52.5 9.5 72.5> 108 77<342 494>
LayerCount: 2
Fore
SplineSet
179 473 m 1,0,-1
 185 363 l 1,1,2
 185 303 185 303 132 268 c 1,3,4
 153 256 153 256 164 228 c 128,-1,5
 175 200 175 200 175 174 c 128,-1,6
 175 148 175 148 164.5 100.5 c 128,-1,7
 154 53 154 53 154 27 c 0,8,9
 154 -41 154 -41 191 -71 c 1,10,-1
 202 -77 l 2,11,12
 220 -86.8181818182 220 -86.8181818182 220 -94.4090909091 c 128,-1,13
 220 -102 220 -102 192 -102 c 0,14,15
 149 -102 149 -102 116.5 -59.5 c 128,-1,16
 84 -17 84 -17 84 52 c 0,17,18
 84 72 84 72 95 112 c 128,-1,19
 106 152 106 152 106 171 c 128,-1,20
 106 190 106 190 100 214 c 128,-1,21
 94 238 94 238 88 245 c 1,22,23
 71 242 71 242 57 242 c 0,24,25
 40 242 40 242 40 260 c 0,26,27
 40 269 40 269 47 279 c 128,-1,28
 54 289 54 289 62 289 c 2,29,-1
 78 287 l 1,30,31
 93 287 93 287 99 296 c 0,32,33
 119 323 119 323 119 359 c 1,34,-1
 108 455 l 1,35,36
 108 518 108 518 141 568 c 128,-1,37
 174 618 174 618 227 618 c 0,38,39
 255 618 255 618 255 608 c 0,40,41
 255 602.263157895 255 602.263157895 241 595.631578947 c 128,-1,42
 227 589 227 589 224 587 c 0,43,44
 179 557 179 557 179 473 c 1,0,-1
EndSplineSet
EndChar

StartChar: braceright
Encoding: 125 125 94
Width: 274
Flags: HMW
HStem: -102 21G<26.5 75.5> 598 20G<62 100>
VStem: 80 77<22 174> 80 145<153 276> 111 70<463.5 506.5>
LayerCount: 2
Fore
SplineSet
86 43 m 1,0,-1
 80 153 l 1,1,2
 80 226 80 226 133 261 c 1,3,4
 90 286 90 286 90 345 c 0,5,6
 90 368 90 368 100.5 415.5 c 128,-1,7
 111 463 111 463 111 489 c 0,8,9
 111 557 111 557 74 587 c 1,10,-1
 63 593 l 2,11,12
 45 602.818181818 45 602.818181818 45 610.409090909 c 128,-1,13
 45 618 45 618 73 618 c 0,14,15
 116 618 116 618 148.5 575.5 c 128,-1,16
 181 533 181 533 181 464 c 0,17,18
 181 444 181 444 170 404 c 128,-1,19
 159 364 159 364 159 334 c 128,-1,20
 159 304 159 304 177 284 c 1,21,22
 194 287 194 287 208 287 c 0,23,24
 225 287 225 287 225 269 c 0,25,26
 225 260 225 260 218 250 c 128,-1,27
 211 240 211 240 203 240 c 2,28,29
 187 242 l 1,30,31
 172 242 172 242 166 233 c 0,32,33
 146 206 146 206 146 157 c 1,34,-1
 157 61 l 1,35,36
 157 -2 157 -2 124 -52 c 128,-1,37
 91 -102 91 -102 38 -102 c 0,38,39
 10 -102 10 -102 10 -92 c 0,40,41
 10 -86.2631578947 10 -86.2631578947 24 -79.6315789474 c 128,-1,42
 38 -73 38 -73 41 -71 c 0,43,44
 86 -41 86 -41 86 43 c 1,0,-1
EndSplineSet
EndChar

StartChar: backslash
Encoding: 92 92 95
Width: 274
Flags: HMW
HStem: -151 21G<241.5 262> 557 20G<4 16>
LayerCount: 2
Fore
SplineSet
283 -108.5 m 128,-1,1
 283 -124 283 -124 274 -137.5 c 128,-1,2
 265 -151 265 -151 250.5 -151 c 128,-1,3
 236 -151 236 -151 212 -121.5 c 128,-1,4
 188 -92 188 -92 172 -52 c 0,5,6
 97 138 97 138 6 529 c 0,7,8
 0 553 0 553 0 565 c 128,-1,9
 0 577 0 577 7 577 c 0,10,11
 27 577 27 577 42 544.5 c 128,-1,12
 57 512 57 512 99 353 c 128,-1,13
 141 194 141 194 182 113 c 1,14,15
 251.851485149 -12.7326732673 251.851485149 -12.7326732673 267.425742574 -52.8663366337 c 128,-1,0
 283 -93 283 -93 283 -108.5 c 128,-1,1
EndSplineSet
EndChar

StartChar: bracketleft
Encoding: 91 91 96
Width: 372
Flags: HMW
HStem: -130 37<201 211> -130 53 555 40
VStem: 75 69<-28.5 12 -28.5 18> 104 64<410.5 506.5> 104 245
LayerCount: 2
Fore
SplineSet
323 551 m 1,0,-1
 252 555 l 1,1,2
 189 555 189 555 183 549 c 0,3,4
 168 534 168 534 168 494 c 0,5,6
 168 399 168 399 156 199.5 c 128,-1,7
 144 0 144 0 144 -39.5 c 128,-1,8
 144 -79 144 -79 149 -86 c 128,-1,9
 154 -93 154 -93 202 -93 c 128,-1,10
 250 -93 250 -93 280.5 -85 c 128,-1,11
 311 -77 311 -77 325 -77 c 128,-1,12
 339 -77 339 -77 344 -82 c 128,-1,13
 349 -87 349 -87 349 -92 c 0,14,15
 349 -108 349 -108 326 -116 c 0,16,17
 286 -130 286 -130 199 -130 c 128,-1,18
 112 -130 112 -130 87 -119 c 0,19,20
 75 -114 75 -114 75 -84 c 0,21,22
 75 20 75 20 89.5 208 c 128,-1,23
 104 396 104 396 104 461 c 0,24,25
 104 595 104 595 145 595 c 1,26,-1
 227 590 l 1,27,-1
 330 595 l 2,28,29
 339 595 339 595 346.5 587 c 128,-1,30
 354 579 354 579 354 568 c 0,31,32
 354 551 354 551 323 551 c 1,0,-1
EndSplineSet
EndChar

StartChar: bar
Encoding: 124 124 97
Width: 191
Flags: HMW
HStem: -167 21G<66 86> 581 20G<106.5 121>
VStem: 53 53 92 40
LayerCount: 2
Fore
SplineSet
74 -167 m 0,0,1
 53 -167 53 -167 53 -76 c 0,2,3
 53 -48 53 -48 58 26 c 0,4,5
 79.5384615385 344.769230769 79.5384615385 344.769230769 92 558 c 0,6,7
 94 601 94 601 115 601 c 0,8,9
 132 601 132 601 132 570 c 0,10,11
 132 432 132 432 106 -45 c 0,12,13
 100 -167 100 -167 74 -167 c 0,0,1
EndSplineSet
EndChar

StartChar: bullet
Encoding: 8226 8226 98
Width: 215
Flags: HMW
HStem: 150 133<87.5 106>
VStem: 16 147<206 236.5>
LayerCount: 2
Fore
SplineSet
37.5 164.5 m 128,-1,1
 16 179 16 179 16 213 c 128,-1,2
 16 247 16 247 44 265 c 128,-1,3
 72 283 72 283 100.5 283 c 128,-1,4
 129 283 129 283 146 269 c 128,-1,5
 163 255 163 255 163 234 c 0,6,7
 163 193 163 193 141 171.5 c 128,-1,8
 119 150 119 150 89 150 c 128,-1,0
 59 150 59 150 37.5 164.5 c 128,-1,1
EndSplineSet
EndChar

StartChar: numbersign
Encoding: 35 35 99
Width: 572
Flags: HMW
HStem: -10 21G<107.5 128.5 286.5 305> 211 20G<438.5 473> 237 48 397 49 397 203
LayerCount: 2
Fore
SplineSet
289 240 m 2,0,-1
 200 237 l 1,1,2
 189 159 189 159 169 70 c 1,3,4
 149 -10 149 -10 116 -10 c 0,5,6
 101 -10 101 -10 85.5 -5 c 128,-1,7
 70 0 70 0 69 10 c 1,8,9
 69 36 69 36 99.5 102.5 c 128,-1,10
 130 169 130 169 135 189 c 2,11,-1
 147 236 l 1,12,13
 137 235 137 235 109.5 229.5 c 128,-1,14
 82 224 82 224 65 224 c 0,15,16
 33 224 33 224 33 242 c 0,17,18
 33 249 33 249 55.5 255 c 128,-1,19
 78 261 78 261 99 263 c 2,20,-1
 155 268 l 1,21,22
 166 322 166 322 177 397 c 1,23,-1
 89 386 l 1,24,25
 59 386 59 386 59 402 c 0,26,27
 59 409 59 409 82 415.5 c 128,-1,28
 105 422 105 422 125 424 c 2,29,-1
 181 430 l 1,30,31
 196 539 196 539 206 569 c 1,32,33
 214 600 214 600 227 600 c 0,34,35
 235 600 235 600 240.5 595 c 128,-1,36
 246 590 246 590 246 579 c 128,-1,37
 246 568 246 568 242 555 c 128,-1,38
 238 542 238 542 233.5 534 c 128,-1,39
 229 526 229 526 227 509.5 c 128,-1,40
 225 493 225 493 219 433 c 1,41,42
 290 440 290 440 359 444 c 1,43,44
 373 534 373 534 382.5 567 c 128,-1,45
 392 600 392 600 404.5 600 c 128,-1,46
 417 600 417 600 417 587.5 c 128,-1,47
 417 575 417 575 411 561 c 1,48,49
 405 518 405 518 398 446 c 1,50,51
 476 451 476 451 508.5 451 c 128,-1,52
 541 451 541 451 541 437 c 0,53,54
 541 432 541 432 535 420.5 c 128,-1,55
 529 409 529 409 513.5 397 c 128,-1,56
 498 385 498 385 471.5 385 c 128,-1,57
 445 385 445 385 391 394 c 1,58,59
 383 322 383 322 377 285 c 1,60,61
 452 290 452 290 483.5 290 c 128,-1,62
 515 290 515 290 515 276 c 0,63,64
 515 271 515 271 508.5 261 c 128,-1,65
 502 251 502 251 486.5 241 c 128,-1,66
 471 231 471 231 440 231 c 128,-1,67
 409 231 409 231 370 235 c 1,68,69
 358 157 358 157 341 73.5 c 128,-1,70
 324 -10 324 -10 294 -10 c 0,71,72
 280 -10 280 -10 266.5 -5 c 128,-1,73
 253 0 253 0 252 10 c 1,74,75
 252 37 252 37 279 105 c 128,-1,76
 306 173 306 173 310 189 c 2,77,-1
 322 239 l 1,78,79
 309 240 309 240 289 240 c 2,0,-1
317 401 m 2,80,-1
 217 398 l 1,81,82
 209.909090909 312.909090909 209.909090909 312.909090909 205 272 c 1,83,-1
 331 282 l 1,84,85
 333 295 333 295 337.5 319 c 0,86,87
 344 353.666666667 344 353.666666667 352 399 c 1,88,89
 343 401 343 401 317 401 c 2,80,-1
EndSplineSet
EndChar

StartChar: equal
Encoding: 61 61 100
Width: 511
Flags: HMW
HStem: 138 21G<328 379.5> 149 42 149 56<134 142> 287 53<190.5 210.5> 338 20G<416.5 423>
LayerCount: 2
Fore
SplineSet
365 138 m 0,0,1
 328 138 328 138 273.5 147 c 128,-1,2
 219 156 219 156 196.5 156 c 128,-1,3
 174 156 174 156 158.5 152.5 c 128,-1,4
 143 149 143 149 122 149 c 0,5,6
 84 149 84 149 84 176 c 0,7,8
 84 205 84 205 155 205 c 0,9,10
 189.2 205 189.2 205 221.1 199.5 c 0,11,12
 270.4 191 270.4 191 306.2 191 c 0,13,14
 351 191 351 191 395 218.5 c 0,15,16
 399 221 399 221 403.5 221 c 128,-1,17
 408 221 408 221 408 205 c 128,-1,18
 408 189 408 189 396 163.5 c 128,-1,19
 384 138 384 138 365 138 c 0,0,1
183 287 m 1,20,-1
 110 283 l 1,21,22
 89 284 89 284 89.5 304.5 c 128,-1,23
 90 325 90 325 110 333 c 1,24,25
 124 340 124 340 244.5 340 c 128,-1,26
 365 340 365 340 387.5 349 c 128,-1,27
 410 358 410 358 420 358 c 128,-1,28
 430 358 430 358 430 347 c 0,29,30
 427 278 427 278 345 278 c 1,31,-1
 183 287 l 1,20,-1
EndSplineSet
EndChar

StartChar: asciicircum
Encoding: 94 94 101
Width: 536
Flags: HMW
HStem: 395 21G<86 107.5> 616 20G<257.5 271>
LayerCount: 2
Fore
SplineSet
423.5 441 m 0,0,1
 433 436 433 436 433 430 c 128,-1,2
 433 424 433 424 418 413.5 c 128,-1,3
 403 403 403 403 391 403 c 0,4,5
 358 403 358 403 311.5 439.5 c 128,-1,6
 265 476 265 476 237 554 c 1,7,8
 211 487 211 487 164.5 441 c 128,-1,9
 118 395 118 395 96 395 c 0,10,11
 63 395 63 395 60 412 c 1,12,13
 60 418.777777778 60 418.777777778 75.5 427.388888889 c 128,-1,14
 91 436 91 436 109 451 c 128,-1,15
 127 466 127 466 148 488.5 c 128,-1,16
 169 511 169 511 176 523 c 128,-1,17
 183 535 183 535 195.5 560 c 128,-1,18
 208 585 208 585 216.5 599.5 c 128,-1,19
 225 614 225 614 239.5 625 c 128,-1,20
 254 636 254 636 265 636 c 0,21,22
 281 636 281 636 289.5 605 c 128,-1,23
 298 574 298 574 303.5 559 c 0,24,25
 317.885993485 519.765472313 317.885993485 519.765472313 373 472 c 0,26,27
 384.830985915 461.352112676 384.830985915 461.352112676 423.5 441 c 0,0,1
EndSplineSet
EndChar

StartChar: plus
Encoding: 43 43 102
Width: 402
Flags: HMW
HStem: 72 21G<178 194> 215 20G<119 149.5> 229 48<232 337.5> 229 63<302.5 355.5> 403 20G<222.5 229.5>
VStem: 50 184<240.5 345>
LayerCount: 2
Fore
SplineSet
187 72 m 128,-1,1
 174 72 174 72 166 80.5 c 128,-1,2
 158 89 158 89 158 99.5 c 128,-1,3
 158 110 158 110 166 134 c 0,4,5
 179.625 174.875 179.625 174.875 185 234 c 1,6,7
 173 235 173 235 144 235 c 128,-1,8
 115 235 115 235 95.5 232 c 128,-1,9
 76 229 76 229 74 229 c 0,10,11
 50 229 50 229 50 247 c 0,12,13
 50 260 50 260 61 271 c 128,-1,14
 72 282 72 282 79 282 c 128,-1,15
 86 282 86 282 94 281 c 0,16,17
 126 277 126 277 190 277 c 1,18,19
 199 358 199 358 199 380 c 128,-1,20
 199 402 199 402 209 412.5 c 128,-1,21
 219 423 219 423 225 423 c 0,22,23
 234 423 234 423 234 340 c 0,24,25
 234 317 234 317 232 277 c 1,26,27
 305 277 305 277 325 283 c 2,28,-1
 352 292 l 1,29,30
 363 292 363 292 363 276.5 c 128,-1,31
 363 261 363 261 352.5 245 c 128,-1,32
 342 229 342 229 327 229 c 0,33,34
 274 229 274 229 230 231 c 1,35,36
 217.519337017 102.033149171 217.519337017 102.033149171 208.759668508 87.0165745856 c 128,-1,0
 200 72 200 72 187 72 c 128,-1,1
EndSplineSet
EndChar

StartChar: less
Encoding: 60 60 103
Width: 443
Flags: HMW
HStem: 92 21G<354.5 377.5> 389 20G<385 392>
LayerCount: 2
Fore
SplineSet
388 409 m 0,0,1
 409 409 409 409 409 392 c 0,2,3
 409 367 409 367 360 341 c 0,4,5
 339 329 339 329 262 300.5 c 128,-1,6
 185 272 185 272 133 248 c 1,7,8
 218 224 218 224 303.5 183.5 c 128,-1,9
 389 143 389 143 389 125 c 0,10,11
 389 92 389 92 370 92 c 0,12,13
 355 92 355 92 244 142 c 128,-1,14
 133 192 133 192 85 205.5 c 128,-1,15
 37 219 37 219 37 238 c 0,16,17
 37 248 37 248 46 255 c 128,-1,18
 55 262 55 262 75 262 c 128,-1,19
 95 262 95 262 312 367 c 0,20,21
 335.446808511 378.106382979 335.446808511 378.106382979 360.723404255 393.553191489 c 128,-1,22
 386 409 386 409 388 409 c 0,0,1
EndSplineSet
EndChar

StartChar: greater
Encoding: 62 62 104
Width: 453
Flags: HMW
HStem: 88 21G<52 59> 215 20G<373 384> 389 20G<68.5 91.5>
LayerCount: 2
Fore
SplineSet
56 88 m 0,0,1
 35 88 35 88 35 105 c 0,2,3
 35 130 35 130 84 156 c 0,4,5
 105 168 105 168 182 196.5 c 128,-1,6
 259 225 259 225 311 249 c 1,7,8
 228 267 228 267 141.5 310 c 128,-1,9
 55 353 55 353 55 372 c 0,10,11
 55 409 55 409 76 409 c 0,12,13
 89 409 89 409 196.5 354 c 128,-1,14
 304 299 304 299 343.5 290 c 128,-1,15
 383 281 383 281 396 276 c 128,-1,16
 409 271 409 271 409 262 c 128,-1,17
 409 253 409 253 398.5 244 c 128,-1,18
 388 235 388 235 367 234 c 128,-1,19
 346 233 346 233 132 130 c 0,20,21
 108.553191489 118.893617021 108.553191489 118.893617021 83.2765957447 103.446808511 c 128,-1,22
 58 88 58 88 56 88 c 0,0,1
EndSplineSet
EndChar

StartChar: asciitilde
Encoding: 126 126 105
Width: 455
Flags: HMW
HStem: 169 73<292 322.5> 241 55<137 169>
LayerCount: 2
Fore
SplineSet
86.5 261 m 128,-1,1
 126 296 126 296 159 296 c 128,-1,2
 192 296 192 296 243.5 269 c 128,-1,3
 295 242 295 242 316 242 c 128,-1,4
 337 242 337 242 353.5 254 c 128,-1,5
 370 266 370 266 379.5 277.5 c 128,-1,6
 389 289 389 289 397 289 c 128,-1,7
 405 289 405 289 405 282 c 0,8,9
 405 239 405 239 371 204 c 128,-1,10
 337 169 337 169 298 169 c 128,-1,11
 259 169 259 169 213 205 c 128,-1,12
 167 241 167 241 146 241 c 128,-1,13
 125 241 125 241 97 210.5 c 128,-1,14
 69 180 69 180 57 180 c 0,15,16
 47 180 47 180 47 192 c 0,17,0
 47 226 47 226 86.5 261 c 128,-1,1
EndSplineSet
EndChar

StartChar: guillemotright
Encoding: 187 187 106
Width: 460
Flags: HMW
HStem: 6 21G<227 233> 326 20G<250.5 263.5>
LayerCount: 2
Fore
SplineSet
82.5 15.5 m 128,-1,1
 78 10 78 10 73.5 10 c 128,-1,2
 69 10 69 10 64.5 18 c 128,-1,3
 60 26 60 26 60 36 c 0,4,5
 60 62 60 62 89.5 88 c 128,-1,6
 119 114 119 114 200 165 c 1,7,8
 146 194 146 194 111.5 233 c 128,-1,9
 77 272 77 272 77 288.5 c 128,-1,10
 77 305 77 305 86.5 320.5 c 128,-1,11
 96 336 96 336 102.5 336 c 128,-1,12
 109 336 109 336 131.5 308.5 c 128,-1,13
 154 281 154 281 184.5 246.5 c 0,14,15
 220.2899729 206.016260163 220.2899729 206.016260163 243 197.5 c 0,16,17
 247 196 247 196 248 195 c 128,-1,18
 249 194 249 194 252.5 192 c 128,-1,19
 256 190 256 190 257 189 c 0,20,21
 263 183 263 183 263.5 181 c 128,-1,22
 264 179 264 179 265 176.5 c 128,-1,23
 266 174 266 174 266 167 c 128,-1,24
 266 160 266 160 259.5 152.5 c 128,-1,25
 253 145 253 145 245 145 c 128,-1,26
 237 145 237 145 191.5 114 c 128,-1,27
 146 83 146 83 126 63.5 c 128,-1,28
 106 44 106 44 96.5 32.5 c 128,-1,0
 87 21 87 21 82.5 15.5 c 128,-1,1
215 31 m 0,29,30
 215 89.8915662651 215 89.8915662651 349 169 c 1,31,32
 308 185 308 185 265.5 235.5 c 128,-1,33
 223 286 223 286 223 303 c 128,-1,34
 223 320 223 320 235 333 c 128,-1,35
 247 346 247 346 255 346 c 0,36,37
 261 346 261 346 270 328 c 128,-1,38
 279 310 279 310 302 278 c 128,-1,39
 325 246 325 246 348.5 228 c 128,-1,40
 372 210 372 210 386 204 c 128,-1,41
 400 198 400 198 407 194.5 c 128,-1,42
 414 191 414 191 414 183 c 128,-1,43
 414 175 414 175 408.5 163 c 128,-1,44
 403 151 403 151 397 151 c 128,-1,45
 391 151 391 151 376 142.5 c 0,46,47
 335.677966102 119.650847458 335.677966102 119.650847458 301.838983051 86.8254237288 c 128,-1,48
 268 54 268 54 255 37 c 128,-1,49
 242 20 242 20 237 13 c 128,-1,50
 232 6 232 6 230 6 c 0,51,52
 225 6 225 6 220 14.5 c 128,-1,53
 215 23 215 23 215 31 c 0,29,30
EndSplineSet
EndChar

StartChar: guillemotleft
Encoding: 171 171 107
Width: 458
Flags: HMW
HStem: 6 21G<189.5 202.5> 326 20G<220 226>
LayerCount: 2
Fore
SplineSet
370.5 336.5 m 128,-1,1
 375 342 375 342 379.5 342 c 128,-1,2
 384 342 384 342 388.5 334 c 128,-1,3
 393 326 393 326 393 316 c 0,4,5
 393 290 393 290 363.5 264 c 128,-1,6
 334 238 334 238 253 187 c 1,7,8
 307 158 307 158 341.5 119 c 128,-1,9
 376 80 376 80 376 63.5 c 128,-1,10
 376 47 376 47 366.5 31.5 c 128,-1,11
 357 16 357 16 350.5 16 c 128,-1,12
 344 16 344 16 321.5 43.5 c 128,-1,13
 299 71 299 71 268.5 105.5 c 0,14,15
 232.7100271 145.983739837 232.7100271 145.983739837 210 154.5 c 0,16,17
 206 156 206 156 205 157 c 128,-1,18
 204 158 204 158 200.5 160 c 128,-1,19
 197 162 197 162 196 163 c 0,20,21
 190 169 190 169 189.5 171 c 128,-1,22
 189 173 189 173 188 175.5 c 128,-1,23
 187 178 187 178 187 185 c 128,-1,24
 187 192 187 192 193.5 199.5 c 128,-1,25
 200 207 200 207 208 207 c 128,-1,26
 216 207 216 207 261.5 238 c 128,-1,27
 307 269 307 269 327 288.5 c 128,-1,28
 347 308 347 308 356.5 319.5 c 128,-1,0
 366 331 366 331 370.5 336.5 c 128,-1,1
238 321 m 0,29,30
 238 262.108433735 238 262.108433735 104 183 c 1,31,32
 145 167 145 167 187.5 116.5 c 128,-1,33
 230 66 230 66 230 49 c 128,-1,34
 230 32 230 32 218 19 c 128,-1,35
 206 6 206 6 198 6 c 0,36,37
 192 6 192 6 183 24 c 128,-1,38
 174 42 174 42 151 74 c 128,-1,39
 128 106 128 106 104.5 124 c 128,-1,40
 81 142 81 142 67 148 c 128,-1,41
 53 154 53 154 46 157.5 c 128,-1,42
 39 161 39 161 39 169 c 128,-1,43
 39 177 39 177 44.5 189 c 128,-1,44
 50 201 50 201 56 201 c 128,-1,45
 62 201 62 201 77 209.5 c 0,46,47
 117.322033898 232.349152542 117.322033898 232.349152542 151.161016949 265.174576271 c 128,-1,48
 185 298 185 298 198 315 c 128,-1,49
 211 332 211 332 216 339 c 128,-1,50
 221 346 221 346 223 346 c 0,51,52
 228 346 228 346 233 337.5 c 128,-1,53
 238 329 238 329 238 321 c 0,29,30
EndSplineSet
EndChar

StartChar: notequal
Encoding: 8800 8800 108
Width: 453
Flags: HMW
HStem: 37 168<118 133> 149 42 149 56<105 113> 284 51 284 73<333.5 390> 426 20G<295 304>
LayerCount: 2
Fore
SplineSet
336 138 m 0,0,1
 304 138 304 138 211 152 c 1,2,3
 193 112 193 112 182.5 91.5 c 128,-1,4
 172 71 172 71 154.5 54 c 128,-1,5
 137 37 137 37 126 37 c 128,-1,6
 115 37 115 37 109 44.5 c 128,-1,7
 103 52 103 52 103 60 c 0,8,9
 103 84 103 84 155 156 c 1,10,11
 146 156 146 156 130 152.5 c 128,-1,12
 114 149 114 149 93 149 c 0,13,14
 55 149 55 149 55 176 c 0,15,16
 55 205 55 205 126 205 c 0,17,18
 144 205 144 205 186 200 c 1,19,20
 206 233 206 233 227 290 c 1,21,22
 200 293 200 293 167.5 293 c 128,-1,23
 135 293 135 293 111 290 c 128,-1,24
 87 287 87 287 86 287 c 0,25,26
 65 287 65 287 65 307 c 0,27,28
 65 320 65 320 74 333.5 c 128,-1,29
 83 347 83 347 93 347 c 0,30,31
 94 347 94 347 106 344 c 0,32,33
 142 335 142 335 242 335 c 1,34,35
 264 404 264 404 276 425 c 128,-1,36
 288 446 288 446 297.5 446 c 128,-1,37
 307 446 307 446 307 437.5 c 128,-1,38
 307 429 307 429 277 335 c 1,39,40
 333 337 333 337 356 347 c 128,-1,41
 379 357 379 357 388 357 c 128,-1,42
 397 357 397 357 397 342.5 c 128,-1,43
 397 328 397 328 384 306 c 128,-1,44
 371 284 371 284 357 284 c 0,45,46
 295 284 295 284 262 287 c 1,47,48
 236 213 236 213 228 193 c 1,49,50
 250 191 250 191 264 191 c 0,51,52
 321.375 191 321.375 191 355.5 212 c 0,53,54
 362 216 362 216 366 218.5 c 128,-1,55
 370 221 370 221 374.5 221 c 128,-1,56
 379 221 379 221 379 205 c 128,-1,57
 379 189 379 189 367 163.5 c 128,-1,58
 355 138 355 138 336 138 c 0,0,1
EndSplineSet
EndChar

StartChar: brokenbar
Encoding: 166 166 109
Width: 191
Flags: HMW
HStem: -167 21G<68.5 92> 581 20G<116 133>
VStem: 53 62 81 65 99 47
LayerCount: 2
Fore
SplineSet
105 269 m 0,0,1
 81 269 81 269 81 310 c 128,-1,2
 81 351 81 351 89 440.5 c 128,-1,3
 97 530 97 530 99 558 c 0,4,5
 101 601 101 601 126 601 c 0,6,7
 146 601 146 601 146 570 c 0,8,9
 146 365 146 365 138 302 c 0,10,11
 136 288 136 288 126 278.5 c 128,-1,12
 116 269 116 269 105 269 c 0,0,1
73 201 m 0,13,14
 76 236 76 236 107 236 c 0,15,16
 132 236 132 236 132 207 c 0,17,18
 132 159 132 159 124 68 c 128,-1,19
 116 -23 116 -23 114.5 -48 c 128,-1,20
 113 -73 113 -73 111.5 -89.5 c 128,-1,21
 110 -106 110 -106 106 -126.5 c 0,22,23
 98.0975609756 -167 98.0975609756 -167 78 -167 c 0,24,25
 53 -167 53 -167 53 -88.5 c 128,-1,26
 53 -10 53 -10 73 201 c 0,13,14
EndSplineSet
EndChar

StartChar: dagger
Encoding: 8224 8224 110
Width: 367
Flags: HMW
HStem: -167 21G<137 157> 355 44<89 154> 355 66 355 246<89 192>
VStem: 15 188<363 577.5> 124 53 151 26 151 198
LayerCount: 2
Fore
SplineSet
199 399 m 1,0,1
 279 399 279 399 305 410 c 128,-1,2
 331 421 331 421 340 421 c 128,-1,3
 349 421 349 421 349 406.5 c 128,-1,4
 349 392 349 392 335 369 c 128,-1,5
 321 346 321 346 307 346 c 0,6,7
 246 346 246 346 198 350 c 1,8,9
 195 278 195 278 187 138 c 128,-1,10
 179 -2 179 -2 177 -45 c 0,11,12
 171 -167 171 -167 145 -167 c 0,13,14
 124 -167 124 -167 124 -76 c 0,15,16
 124 -54 124 -54 151 354 c 1,17,18
 139 355 139 355 112 355 c 128,-1,19
 85 355 85 355 61 352 c 128,-1,20
 37 349 37 349 36 349 c 0,21,22
 15 349 15 349 15 369 c 0,23,24
 15 382 15 382 25 396.5 c 128,-1,25
 35 411 35 411 41 411 c 128,-1,26
 47 411 47 411 56.5 408.5 c 0,27,28
 85.7777777778 400.795321637 85.7777777778 400.795321637 154 399 c 1,29,-1
 163 558 l 2,30,31
 165 601 165 601 186 601 c 0,32,33
 203 601 203 601 203 570 c 0,34,35
 203 515 203 515 199 399 c 1,0,1
EndSplineSet
EndChar

StartChar: minus
Encoding: 8722 8722 111
Width: 417
Flags: HMW
HStem: 198 21G<270.5 312> 207 53<131.5 151.5> 258 20G<357.5 364>
LayerCount: 2
Fore
SplineSet
124 207 m 1,0,-1
 51 203 l 1,1,2
 30 204 30 204 30.5 224.5 c 128,-1,3
 31 245 31 245 51 253 c 1,4,5
 65 260 65 260 185.5 260 c 128,-1,6
 306 260 306 260 328.5 269 c 128,-1,7
 351 278 351 278 361 278 c 128,-1,8
 371 278 371 278 371 267 c 0,9,10
 368 198 368 198 286 198 c 1,11,-1
 124 207 l 1,0,-1
EndSplineSet
EndChar

StartChar: degree
Encoding: 176 176 112
Width: 280
Flags: HMW
HStem: 386 29<111 152.5> 550 39<161.5 162> 550 51<84.5 162>
VStem: 18 49<470.5 504.5> 200 37<478.5 522>
LayerCount: 2
Fore
SplineSet
126 415 m 0,0,1
 200 415 200 415 200 502 c 0,2,3
 200 520 200 520 194.5 533.5 c 128,-1,4
 189 547 189 547 183.5 551.5 c 128,-1,5
 178 556 178 556 176.5 556 c 0,6,7
 175 556 175 556 169 553 c 128,-1,8
 163 550 163 550 155 550 c 0,9,10
 136 550 136 550 136 564 c 0,11,12
 136 589 136 589 174 589 c 0,13,14
 195 589 195 589 216 569.5 c 128,-1,15
 237 550 237 550 237 503.5 c 0,16,17
 237 457 237 457 204.5 421.5 c 128,-1,18
 172 386 172 386 108 386 c 0,19,20
 65 386 65 386 41.5 413.5 c 128,-1,21
 18 441 18 441 18 482 c 0,22,23
 18 523 18 523 45 562 c 128,-1,24
 72 601 72 601 117 601 c 0,25,26
 131 601 131 601 131 592 c 0,27,28
 131 587 131 587 114.5 584 c 0,29,30
 98 581 98 581 82.5 552.5 c 128,-1,31
 67 524 67 524 67 492.5 c 0,32,33
 67 461 67 461 85 438 c 128,-1,34
 103 415 103 415 126 415 c 0,0,1
EndSplineSet
EndChar

StartChar: ring
Encoding: 730 730 113
Width: 409
Flags: HMW
HStem: 435 29<198.5 213.5> 435 117<192 213.5>
VStem: 147 38<485 499> 235 29<487 502>
LayerCount: 2
Fore
SplineSet
165 531 m 128,-1,1
 183 552 183 552 210 552 c 128,-1,2
 237 552 237 552 250.5 536.5 c 128,-1,3
 264 521 264 521 264 496.5 c 128,-1,4
 264 472 264 472 244 453.5 c 128,-1,5
 224 435 224 435 197 435 c 128,-1,6
 170 435 170 435 158.5 449.5 c 128,-1,7
 147 464 147 464 147 487 c 128,-1,0
 147 510 147 510 165 531 c 128,-1,1
229 514 m 128,-1,9
 223 522 223 522 212.5 522 c 128,-1,10
 202 522 202 522 193.5 513 c 128,-1,11
 185 504 185 504 185 492 c 0,12,13
 185 464 185 464 206 464 c 0,14,15
 218 464 218 464 226.5 473.5 c 128,-1,16
 235 483 235 483 235 494.5 c 128,-1,8
 235 506 235 506 229 514 c 128,-1,9
EndSplineSet
EndChar

StartChar: bracketright
Encoding: 93 93 114
Width: 336
Flags: HMW
HStem: -129 33<109 125 98.5 143> 545 50 565 30<141 163.5>
VStem: 184 73<-40.5 54.5> 210 60<453 493.5>
LayerCount: 2
Fore
SplineSet
29 -86 m 1,0,-1
 108 -96 l 1,1,2
 157 -96 157 -96 170.5 -82.5 c 128,-1,3
 184 -69 184 -69 184 -29 c 0,4,5
 184 66 184 66 197 265.5 c 128,-1,6
 210 465 210 465 210 506.5 c 128,-1,7
 210 548 210 548 204 556.5 c 128,-1,8
 198 565 198 565 160 565 c 128,-1,9
 122 565 122 565 99 555 c 128,-1,10
 76 545 76 545 63 545 c 0,11,12
 37 545 37 545 37 563 c 0,13,14
 37 577 37 577 62.5 586 c 128,-1,15
 88 595 88 595 160.5 595 c 128,-1,16
 233 595 233 595 258 584 c 0,17,18
 270 579 270 579 270 549 c 0,19,20
 270 446 270 446 263.5 258 c 128,-1,21
 257 70 257 70 257 -18 c 128,-1,22
 257 -106 257 -106 224 -117 c 0,23,24
 215 -120 215 -120 182 -124.5 c 128,-1,25
 149 -129 149 -129 110.5 -129 c 128,-1,26
 72 -129 72 -129 22 -123 c 0,27,28
 5 -121 5 -121 5 -101 c 0,29,30
 5 -86 5 -86 29 -86 c 1,0,-1
EndSplineSet
EndChar

StartChar: multiply
Encoding: 215 215 115
Width: 445
Flags: HMW
HStem: 86 21G<77 93 290.5 320.5> 383 20G<110.5 120>
LayerCount: 2
Fore
SplineSet
217 287 m 1,0,-1
 310 378 l 2,1,2
 332 400 332 400 345.5 400 c 128,-1,3
 359 400 359 400 359 390 c 0,4,5
 359 382.16 359 382.16 307 328.08 c 128,-1,6
 255 274 255 274 237 254 c 1,7,8
 283.43254818 174.231263383 283.43254818 174.231263383 326.5 141.5 c 0,9,10
 351 122.88 351 122.88 351 117 c 0,11,12
 351 104 351 104 338.5 95 c 128,-1,13
 326 86 326 86 310 86 c 0,14,15
 259 86 259 86 194 207 c 1,16,17
 176 186 176 186 157.5 162.5 c 128,-1,18
 139 139 139 139 129.5 127.5 c 128,-1,19
 120 116 120 116 110.5 105 c 0,20,21
 94.0909090909 86 94.0909090909 86 83 86 c 0,22,23
 60 86 60 86 60 109 c 0,24,25
 60 130.40625 60 130.40625 84.5 157.203125 c 128,-1,26
 109 184 109 184 121 196 c 0,27,28
 164 239 164 239 173 245 c 1,29,30
 149.35 294.45 149.35 294.45 136.675 322.725 c 128,-1,31
 124 351 124 351 122 353.5 c 128,-1,32
 120 356 120 356 114.5 361 c 128,-1,33
 109 366 109 366 106 369 c 0,34,35
 98 377 98 377 98 387 c 0,36,37
 98 403 98 403 118 403 c 0,38,39
 128 403 128 403 136 399 c 0,40,41
 159 389 159 389 217 287 c 1,0,-1
EndSplineSet
EndChar

StartChar: hyphen
Encoding: 45 45 116
Width: 287
Flags: HMW
HStem: 198 21G<143.5 185> 207 53<68.5 88.5> 258 20G<230.5 237>
LayerCount: 2
Fore
SplineSet
244 267 m 0,0,1
 241 198 241 198 159 198 c 0,2,3
 146 198 146 198 119 202.5 c 128,-1,4
 92 207 92 207 65.5 207 c 0,5,6
 39 207 39 207 23.5 205 c 128,-1,7
 8 203 8 203 6 203 c 0,8,9
 -15 204 -15 204 -14.5 224.5 c 0,10,11
 -14 245 -14 245 6 253 c 1,12,13
 20 260 20 260 99.5 260 c 0,14,15
 179 260 179 260 201.5 269 c 0,16,17
 224 278 224 278 234 278 c 128,-1,18
 244 278 244 278 244 267 c 0,0,1
EndSplineSet
EndChar

StartChar: endash
Encoding: 8211 8211 117
Width: 372
Flags: HMW
HStem: 198 21G<225.5 267> 207 53<86.5 106.5> 258 20G<312.5 319>
LayerCount: 2
Fore
SplineSet
79 207 m 1,0,-1
 6 203 l 1,1,2
 -15 204 -15 204 -14.5 224.5 c 128,-1,3
 -14 245 -14 245 6 253 c 1,4,5
 20 260 20 260 140.5 260 c 128,-1,6
 261 260 261 260 283.5 269 c 128,-1,7
 306 278 306 278 316 278 c 128,-1,8
 326 278 326 278 326 267 c 0,9,10
 323 198 323 198 241 198 c 0,11,12
 229 198 229 198 169.5 202.5 c 128,-1,13
 110 207 110 207 79 207 c 1,0,-1
EndSplineSet
EndChar

StartChar: emdash
Encoding: 8212 8212 118
Width: 595
Flags: HMW
HStem: 201 21G<424.5 466> 210 53<112.5 132.5> 261 20G<511.5 518>
LayerCount: 2
Fore
SplineSet
105 210 m 1,0,-1
 32 206 l 1,1,2
 11 207 11 207 11.5 227.5 c 128,-1,3
 12 248 12 248 32 256 c 1,4,5
 46 263 46 263 253 263 c 128,-1,6
 460 263 460 263 482.5 272 c 128,-1,7
 505 281 505 281 515 281 c 128,-1,8
 525 281 525 281 525 270 c 0,9,10
 522 201 522 201 440 201 c 1,11,-1
 105 210 l 1,0,-1
EndSplineSet
EndChar

StartChar: quotedbl
Encoding: 34 34 119
Width: 248
Flags: HMW
HStem: 391 189<34 41.5 146 153.5>
VStem: 15 72<533.5 553.5> 127 72<533.5 553.5>
LayerCount: 2
Fore
SplineSet
48 580 m 0,0,1
 69 580 69 580 78 573.5 c 128,-1,2
 87 567 87 567 87 546 c 0,3,4
 87 525 87 525 76.5 473 c 128,-1,5
 66 421 66 421 57 400 c 1,6,7
 52 391 52 391 38.5 391 c 0,8,9
 25 391 25 391 23 402 c 0,10,11
 15 437 15 437 15 547 c 0,12,13
 15 580 15 580 48 580 c 0,0,1
160 580 m 0,14,15
 181 580 181 580 190 573.5 c 128,-1,16
 199 567 199 567 199 546 c 0,17,18
 199 525 199 525 188.5 473 c 128,-1,19
 178 421 178 421 169 400 c 1,20,21
 164 391 164 391 150.5 391 c 0,22,23
 137 391 137 391 135 402 c 0,24,25
 127 437 127 437 127 547 c 0,26,27
 127 580 127 580 160 580 c 0,14,15
EndSplineSet
EndChar

StartChar: dollar
Encoding: 36 36 120
Width: 481
Flags: HMW
HStem: -67 21G<212 227> -4 39<197 197> 151 48<66.5 126.5> 444 137<275 372> 613 20G<248.5 266>
VStem: 14 74<103.5 130.5 103.5 133.5> 84 71<430 464 430 471.5> 197 77 216 58 342 57<480.5 530> 342 79
LayerCount: 2
Fore
SplineSet
337 459 m 1,0,-1
 342 485 l 1,1,2
 340 537 340 537 274 539 c 1,3,4
 272 480 272 480 266 340 c 1,5,6
 385.781395349 275.502325581 385.781395349 275.502325581 409 231 c 0,7,8
 421 208 421 208 421 181 c 0,9,10
 421 108 421 108 371 62 c 128,-1,11
 321 16 321 16 247 2 c 1,12,13
 240 -67 240 -67 219 -67 c 128,-1,14
 198 -67 198 -67 197 -4 c 1,15,16
 117 -4 117 -4 65.5 24 c 128,-1,17
 14 52 14 52 14 115 c 0,18,19
 14 147 14 147 34.5 173 c 128,-1,20
 55 199 55 199 96 199 c 0,21,22
 112 199 112 199 125 189.5 c 128,-1,23
 138 180 138 180 140 166 c 1,24,25
 140 151 140 151 122 151 c 0,26,27
 88 151 88 151 88 122 c 0,28,29
 88 90 88 90 116.5 63 c 128,-1,30
 145 36 145 36 197 35 c 1,31,32
 197 44.25 197 44.25 216 296 c 1,33,34
 113.872340426 350.255319149 113.872340426 350.255319149 94 390 c 0,35,36
 84 410 84 410 84 434 c 0,37,38
 84 488 84 488 128.5 527 c 128,-1,39
 173 566 173 566 234 577 c 1,40,41
 234 633 234 633 260 633 c 0,42,43
 275 633 275 633 275 581 c 1,44,45
 323 581 323 581 361 561 c 128,-1,46
 399 541 399 541 399 500 c 0,47,48
 399 444 399 444 357 444 c 0,49,50
 337 444 337 444 337 459 c 1,0,-1
348 159 m 0,51,52
 348 218 348 218 263 270 c 1,53,54
 250 71 250 71 250 42 c 1,55,56
 292 54 292 54 320 86 c 128,-1,57
 348 118 348 118 348 159 c 0,51,52
155 446 m 0,58,59
 155 406 155 406 221 366 c 1,60,-1
 232 532 l 1,61,62
 200 520 200 520 177.5 496 c 128,-1,63
 155 472 155 472 155 446 c 0,58,59
EndSplineSet
EndChar

StartChar: ampersand
Encoding: 38 38 121
Width: 532
Flags: HMW
HStem: -41 21G<510 548.5> -13 41<182 218.5> 573 39<200 255.5>
VStem: 0 85<119.5 171> 89 63<457.5 499 457.5 499> 312 74<464.5 511> 402 65<207.5 217.5>
LayerCount: 2
Fore
SplineSet
140 312 m 1,0,1
 89 406 89 406 89 464 c 128,-1,2
 89 522 89 522 132 567 c 128,-1,3
 175 612 175 612 242.5 612 c 128,-1,4
 310 612 310 612 348 582.5 c 128,-1,5
 386 553 386 553 386 501 c 0,6,7
 386 448.565217391 386 448.565217391 341 406.5 c 0,8,9
 294.192982456 362.745614035 294.192982456 362.745614035 257.596491228 339.872807018 c 128,-1,10
 221 317 221 317 217 314 c 1,11,12
 285 216 285 216 385 129 c 1,13,14
 402 165 402 165 402 195.5 c 128,-1,15
 402 226 402 226 390 243.5 c 128,-1,16
 378 261 378 261 362.5 263 c 128,-1,17
 347 265 347 265 347 276 c 0,18,19
 347 290 347 290 361 298 c 128,-1,20
 375 306 375 306 402.5 306 c 128,-1,21
 430 306 430 306 448.5 284 c 128,-1,22
 467 262 467 262 467 230 c 0,23,24
 467 160 467 160 422 98 c 1,25,26
 491.636942675 42.7707006369 491.636942675 42.7707006369 553.5 20.5 c 0,27,28
 566 16 566 16 573 13.5 c 128,-1,29
 580 11 580 11 586.5 8 c 0,30,31
 598 2.69230769231 598 2.69230769231 598 -6.65384615385 c 128,-1,32
 598 -16 598 -16 576.5 -28.5 c 128,-1,33
 555 -41 555 -41 538 -41 c 0,34,35
 460 -41 460 -41 360 39 c 1,36,37
 285 -13 285 -13 187.5 -13 c 128,-1,38
 90 -13 90 -13 45 28.5 c 128,-1,39
 0 70 0 70 0 127.5 c 128,-1,40
 0 185 0 185 36.5 226.5 c 128,-1,41
 73 268 73 268 140 312 c 1,0,1
85 155 m 0,42,43
 85 102 85 102 124 65 c 128,-1,44
 163 28 163 28 222 28 c 128,-1,45
 281 28 281 28 331 65 c 1,46,47
 233 154 233 154 159 276 c 1,48,49
 85 221 85 221 85 155 c 0,42,43
282.5 416.5 m 128,-1,51
 312 448 312 448 312 486.5 c 128,-1,52
 312 525 312 525 290 549 c 128,-1,53
 268 573 268 573 228.5 573 c 128,-1,54
 189 573 189 573 170.5 544.5 c 128,-1,55
 152 516 152 516 152 469.5 c 128,-1,56
 152 423 152 423 196 348 c 1,57,50
 253 385 253 385 282.5 416.5 c 128,-1,51
EndSplineSet
EndChar

StartChar: quotesingle
Encoding: 39 39 122
Width: 130
Flags: HMW
HStem: 391 21G<27 34.5> 560 20G<27 54.5>
VStem: 8 72<533.5 553.5>
LayerCount: 2
Fore
SplineSet
41 580 m 0,0,1
 62 580 62 580 71 573.5 c 128,-1,2
 80 567 80 567 80 546 c 0,3,4
 80 525 80 525 69.5 473 c 128,-1,5
 59 421 59 421 50 400 c 0,6,7
 46 391 46 391 32 391 c 0,8,9
 18 391 18 391 16 402 c 0,10,11
 8 437 8 437 8 547 c 0,12,13
 8 580 8 580 41 580 c 0,0,1
EndSplineSet
EndChar

StartChar: asterisk
Encoding: 42 42 123
Width: 373
Flags: HMW
HStem: 320 127<46.5 152> 365 192<273 326> 419 28<59.5 74.5 46.5 84> 419 178<59.5 99> 623 20G<203.5 217.5>
VStem: 62 164<578.5 582.5> 98 202<339.5 387> 192 34 192 143
LayerCount: 2
Fore
SplineSet
132 320 m 0,0,1
 98 320 98 320 98 349.5 c 0,2,3
 98 364 98 364 118.5 389 c 128,-1,4
 139 414 139 414 145 427 c 1,5,6
 105 419 105 419 68 419 c 128,-1,7
 31 419 31 419 30 435 c 0,8,9
 30 447 30 447 52 447 c 0,10,11
 117 447 117 447 159 463 c 1,12,13
 122 504 122 504 116.5 508.5 c 128,-1,14
 111 513 111 513 101 520.5 c 128,-1,15
 91 528 91 528 88 530.5 c 128,-1,16
 85 533 85 533 78 539.5 c 128,-1,17
 71 546 71 546 69 550 c 0,18,19
 62 564 62 564 62 574 c 0,20,21
 62 597 62 597 90 597 c 0,22,23
 102 597 102 597 110 589 c 128,-1,24
 118 581 118 581 124.5 573 c 128,-1,25
 131 565 131 565 136.5 558 c 0,26,27
 154.571428571 535 154.571428571 535 176 505 c 1,28,29
 189 551 189 551 191.5 597 c 128,-1,30
 194 643 194 643 211 643 c 0,31,32
 226 643 226 643 226 598 c 128,-1,33
 226 553 226 553 213 491 c 1,34,35
 222 497 222 497 244 515 c 128,-1,36
 266 533 266 533 285.5 545 c 128,-1,37
 305 557 305 557 320 557 c 128,-1,38
 335 557 335 557 335 533.5 c 128,-1,39
 335 510 335 510 311 497 c 1,40,41
 266 470 266 470 221 452 c 1,42,43
 227 446 227 446 248.5 430.5 c 0,44,45
 300 393.372093023 300 393.372093023 300 376 c 0,46,47
 300 365 300 365 288 365 c 0,48,49
 250 365 250 365 196 423 c 1,50,51
 194 418 194 418 188.5 398 c 128,-1,52
 183 378 183 378 179 368.5 c 128,-1,53
 175 359 175 359 168 345.5 c 0,54,55
 154.777777778 320 154.777777778 320 132 320 c 0,0,1
EndSplineSet
EndChar

StartChar: cent
Encoding: 162 162 124
Width: 368
Flags: HMW
HStem: -67 21G<134 147> 42 182<168 244.5> 224 131<229 231 206 244.5> 224 176<168.5 244.5>
VStem: 19 66<129.5 179.5 129.5 188> 19 149 19 169 227 50<284.5 304>
LayerCount: 2
Fore
SplineSet
188 323 m 1,0,1
 187.297297297 308.945945946 187.297297297 308.945945946 168 42 c 1,2,3
 247 42 247 42 315 178 c 0,4,5
 324 194 324 194 331 194 c 128,-1,6
 338 194 338 194 338 179.5 c 128,-1,7
 338 165 338 165 318.5 125.5 c 128,-1,8
 299 86 299 86 256.5 44 c 128,-1,9
 214 2 214 2 165 -3 c 1,10,11
 158 -67 158 -67 140 -67 c 0,12,13
 125 -67 125 -67 125 -27 c 0,14,15
 125 -11 125 -11 126 -4 c 1,16,17
 77 3 77 3 48 42.5 c 128,-1,18
 19 82 19 82 19 122 c 0,19,20
 19 216 19 216 57.5 273.5 c 128,-1,21
 96 331 96 331 156 348 c 1,22,23
 158 400 158 400 178 400 c 0,24,25
 192 400 192 400 192 373 c 0,26,27
 192 370 192 370 191.5 363 c 128,-1,28
 191 356 191 356 191 354 c 1,29,30
 196 355 196 355 208 355 c 0,31,32
 240 355 240 355 258.5 338.5 c 128,-1,33
 277 322 277 322 277 301 c 0,34,35
 277 263 277 263 264 243.5 c 128,-1,36
 251 224 251 224 235 224 c 128,-1,37
 219 224 219 224 219 243 c 1,38,-1
 227 294 l 1,39,40
 227 323 227 323 188 323 c 1,0,1
105 243.5 m 128,-1,42
 85 196 85 196 85 158 c 0,43,44
 85 85.6666666667 85 85.6666666667 134 53 c 1,45,-1
 156 311 l 1,46,41
 125 291 125 291 105 243.5 c 128,-1,42
EndSplineSet
EndChar

StartChar: sterling
Encoding: 163 163 125
Width: 480
Flags: HMW
HStem: -5 70<365 377> -5 106 160 45<79 138> 268 41 268 43 383 137<247.5 393.5> 494 26<261.5 321.5>
VStem: 363 55<430 451.5>
LayerCount: 2
Fore
SplineSet
328 316 m 1,0,-1
 353 322 l 1,1,2
 363 322 363 322 363 310.5 c 128,-1,3
 363 299 363 299 354 283.5 c 128,-1,4
 345 268 345 268 332 268 c 0,5,6
 284 268 284 268 212 273 c 1,7,-1
 205 198 l 1,8,9
 227 196 227 196 251 196 c 128,-1,10
 275 196 275 196 294 198 c 128,-1,11
 313 200 313 200 323.5 203.5 c 128,-1,12
 334 207 334 207 338 207 c 0,13,14
 346 207 346 207 346 199 c 0,15,16
 346 152 346 152 311 152 c 0,17,18
 290 152 290 152 200 162 c 1,19,20
 190 107 190 107 182 89 c 1,21,-1
 241 80 l 2,22,23
 340 65 340 65 386 65 c 0,24,25
 406 65 406 65 406 34 c 0,26,27
 406 22 406 22 393.5 8.5 c 128,-1,28
 381 -5 381 -5 366 -5 c 0,29,30
 292 -5 292 -5 156 45 c 1,31,32
 121 3 121 3 71 3 c 0,33,34
 51 3 51 3 33.5 16 c 128,-1,35
 16 29 16 29 16 52.5 c 128,-1,36
 16 76 16 76 33 88.5 c 128,-1,37
 50 101 50 101 75 101 c 128,-1,38
 100 101 100 101 124 97 c 1,39,40
 129 116 129 116 134 164 c 1,41,-1
 95 160 l 1,42,43
 56 160 56 160 56 182.5 c 128,-1,44
 56 205 56 205 123 205 c 2,45,-1
 138 205 l 1,46,-1
 144 275 l 1,47,-1
 86 269 l 1,48,49
 66 269 66 269 66 285 c 0,50,51
 66 296 66 296 74 307 c 128,-1,52
 82 318 82 318 88 318 c 128,-1,53
 94 318 94 318 98.5 316.5 c 0,54,55
 109 313 109 313 147 311 c 1,56,57
 160.567988144 463.639866617 160.567988144 463.639866617 233.5 503 c 0,58,59
 265 520 265 520 312.5 520 c 128,-1,60
 360 520 360 520 389 493.5 c 128,-1,61
 418 467 418 467 418 422 c 0,62,63
 418 405 418 405 408.5 394 c 128,-1,64
 399 383 399 383 385 383 c 128,-1,65
 371 383 371 383 364.5 390 c 128,-1,66
 358 397 358 397 358 406 c 1,67,-1
 363 434 l 1,68,69
 363 461 363 461 346.5 477.5 c 128,-1,70
 330 494 330 494 308 494 c 128,-1,71
 286 494 286 494 272.5 487.5 c 128,-1,72
 259 481 259 481 250 467 c 128,-1,73
 241 453 241 453 235 439.5 c 128,-1,74
 229 426 229 426 225.5 404.5 c 128,-1,75
 222 383 222 383 220 370.5 c 128,-1,76
 218 358 218 358 216.5 336 c 128,-1,77
 215 314 215 314 214 309 c 1,78,-1
 231 309 l 2,79,80
 306 309 306 309 328 316 c 1,0,-1
107 60 m 1,81,82
 82 67 82 67 66.5 67 c 128,-1,83
 51 67 51 67 51 55 c 0,84,85
 51 48 51 48 58 42 c 128,-1,86
 65 36 65 36 78.5 36 c 128,-1,87
 92 36 92 36 107 60 c 1,81,82
EndSplineSet
EndChar

StartChar: yen
Encoding: 165 165 126
Width: 482
Flags: HMW
HStem: -10 168<108.5 216.5> 113 45<108.5 116> 228 34<186 186> 228 47 505 20G<384 393>
VStem: 60 186 167 79<38 43>
LayerCount: 2
Fore
SplineSet
333 269 m 1,0,-1
 358 275 l 1,1,2
 368 275 368 275 368 263.5 c 128,-1,3
 368 252 368 252 359 236.5 c 128,-1,4
 350 221 350 221 337 221 c 2,5,-1
 253 223 l 1,6,-1
 249 149 l 1,7,8
 306 149 306 149 322.5 154.5 c 128,-1,9
 339 160 339 160 343 160 c 0,10,11
 351 160 351 160 351 152 c 0,12,13
 351 105 351 105 316 105 c 0,14,15
 279 105 279 105 247 110 c 1,16,17
 246 90 246 90 246 65 c 128,-1,18
 246 40 246 40 244.5 30 c 128,-1,19
 243 20 243 20 238 9.5 c 0,20,21
 228.714285714 -10 228.714285714 -10 189 -10 c 0,22,23
 167 -10 167 -10 167 26.5 c 128,-1,24
 167 63 167 63 174 117 c 1,25,-1
 103 113 l 1,26,27
 77 113 77 113 70.5 118.5 c 128,-1,28
 64 124 64 124 64 135 c 0,29,30
 64 158 64 158 128 158 c 0,31,32
 144 158 144 158 179 154 c 1,33,34
 185 202 185 202 186 228 c 1,35,36
 143 228 143 228 118 225 c 128,-1,37
 93 222 93 222 91 222 c 0,38,39
 71 222 71 222 71 238 c 0,40,41
 71 249 71 249 79 260 c 128,-1,42
 87 271 87 271 93 271 c 128,-1,43
 99 271 99 271 105.5 269 c 0,44,45
 122.146341463 263.87804878 122.146341463 263.87804878 186 262 c 1,46,47
 179 309 179 309 134 378 c 0,48,49
 127 388 127 388 107.5 408.5 c 128,-1,50
 88 429 88 429 74 447 c 128,-1,51
 60 465 60 465 60 477 c 128,-1,52
 60 489 60 489 74 504.5 c 128,-1,53
 88 520 88 520 96 520 c 128,-1,54
 104 520 104 520 114 510.5 c 0,55,56
 136.833333333 488.808333333 136.833333333 488.808333333 173.916666667 431.404166667 c 128,-1,57
 211 374 211 374 230 318 c 1,58,59
 244 358 244 358 286 420.5 c 128,-1,60
 328 483 328 483 351 504 c 128,-1,61
 374 525 374 525 389 525 c 128,-1,62
 404 525 404 525 404 505 c 0,63,64
 404 470 404 470 380 461 c 1,65,66
 358 454 358 454 307 377.5 c 128,-1,67
 256 301 256 301 255 262 c 1,68,69
 311 262 311 262 333 269 c 1,0,-1
EndSplineSet
EndChar

StartChar: section
Encoding: 167 167 127
Width: 414
Flags: HMW
HStem: -153 32<172 211.5 172 233.5> -153 144<89.5 233.5> 405 144<176.5 320.5> 517 32<198.5 238>
VStem: 40 75 60 55<-76 -53 -77.5 -41.5> 84 56<410 472> 270 56<-76 -14.5> 295 55<449 473.5> 295 75
LayerCount: 2
Fore
SplineSet
138 -103.5 m 128,-1,1
 161 -121 161 -121 191 -121 c 128,-1,2
 221 -121 221 -121 245.5 -102 c 128,-1,3
 270 -83 270 -83 270 -62.5 c 128,-1,4
 270 -42 270 -42 234 -8 c 128,-1,5
 198 26 198 26 155 56.5 c 128,-1,6
 112 87 112 87 76 123 c 128,-1,7
 40 159 40 159 40 185 c 0,8,9
 41 231 41 231 73 272 c 128,-1,10
 105 313 105 313 167 323 c 1,11,12
 84 389 84 389 84 426 c 0,13,14
 84 471 84 471 121 510 c 128,-1,15
 158 549 158 549 221 549 c 128,-1,16
 284 549 284 549 317 520 c 128,-1,17
 350 491 350 491 350 449 c 0,18,19
 350 431 350 431 338 418 c 128,-1,20
 326 405 326 405 304 405 c 128,-1,21
 282 405 282 405 282 425 c 0,22,23
 282 429 282 429 288.5 439 c 128,-1,24
 295 449 295 449 295 455 c 0,25,26
 295 482 295 482 272 499.5 c 128,-1,27
 249 517 249 517 219 517 c 128,-1,28
 189 517 189 517 164.5 498 c 128,-1,29
 140 479 140 479 140 458.5 c 128,-1,30
 140 438 140 438 176 404 c 128,-1,31
 212 370 212 370 255 339.5 c 128,-1,32
 298 309 298 309 334 273 c 128,-1,33
 370 237 370 237 370 211 c 0,34,35
 369 164 369 164 337 123.5 c 128,-1,36
 305 83 305 83 242 73 c 1,37,38
 326 6 326 6 326 -30 c 0,39,40
 326 -74 326 -74 289 -113.5 c 128,-1,41
 252 -153 252 -153 189.5 -153 c 128,-1,42
 127 -153 127 -153 93.5 -122 c 128,-1,43
 60 -91 60 -91 60 -53 c 0,44,45
 60 -35 60 -35 72 -22 c 128,-1,46
 84 -9 84 -9 106 -9 c 128,-1,47
 128 -9 128 -9 128 -29 c 0,48,49
 128 -33 128 -33 121.5 -43 c 128,-1,50
 115 -53 115 -53 115 -59 c 0,51,0
 115 -86 115 -86 138 -103.5 c 128,-1,1
305 185 m 0,52,53
 305 205 305 205 281 229.5 c 128,-1,54
 257 254 257 254 210 290 c 1,55,56
 165 290 165 290 135 267 c 128,-1,57
 105 244 105 244 105 211 c 0,58,59
 105 196 105 196 120.5 176.5 c 128,-1,60
 136 157 136 157 151.5 144 c 128,-1,61
 167 131 167 131 200 106 c 1,62,63
 245 106 245 106 275 129 c 128,-1,64
 305 152 305 152 305 185 c 0,52,53
EndSplineSet
EndChar

StartChar: registered
Encoding: 174 174 128
Width: 448
Flags: HMW
HStem: 265 28<185 213> 265 170<206 213> 333 27<284.5 304.5 284.5 316.5> 333 196<191 316.5> 576 24<176 249>
VStem: 22 56<379.5 460> 156 27<388 439> 254 33<455.5 479.5> 338 49<430 480>
LayerCount: 2
Fore
SplineSet
184 452 m 2,0,-1
 183 397 l 2,1,2
 183 346 183 346 163 346 c 0,3,4
 139 346 139 346 139 357 c 0,5,6
 139 362 139 362 147.5 377 c 128,-1,7
 156 392 156 392 156 436.5 c 128,-1,8
 156 481 156 481 158 504 c 1,9,10
 149 499.5 149 499.5 144 493.25 c 128,-1,11
 139 487 139 487 132 487 c 128,-1,12
 125 487 125 487 125 499 c 0,13,14
 125 519 125 519 164 525 c 1,15,16
 171 543 171 543 187 543 c 0,17,18
 191 543 191 543 191 529 c 1,19,20
 287 529 287 529 287 466 c 0,21,22
 287 436 287 436 253 415 c 1,23,24
 258 409 258 409 266 384.5 c 128,-1,25
 274 360 274 360 292.5 360 c 128,-1,26
 311 360 311 360 324.5 384 c 128,-1,27
 338 408 338 408 338 440 c 0,28,29
 338 500 338 500 303 538 c 128,-1,30
 268 576 268 576 213.5 576 c 128,-1,31
 159 576 159 576 118.5 530.5 c 128,-1,32
 78 485 78 485 78 423 c 128,-1,33
 78 361 78 361 120.5 327 c 128,-1,34
 163 293 163 293 216 293 c 0,35,36
 237 293 237 293 243.5 296.5 c 128,-1,37
 250 300 250 300 255.5 304.5 c 0,38,39
 268.333333333 315 268.333333333 315 279.166666667 315 c 128,-1,40
 290 315 290 315 290 307 c 0,41,42
 290 289 290 289 259 277 c 128,-1,43
 228 265 228 265 186 265 c 0,44,45
 119 265 119 265 70.5 303 c 128,-1,46
 22 341 22 341 22 415 c 128,-1,47
 22 489 22 489 77.5 544.5 c 128,-1,48
 133 600 133 600 215 600 c 128,-1,49
 297 600 297 600 342 564 c 128,-1,50
 387 528 387 528 387 469 c 128,-1,51
 387 410 387 410 359 371.5 c 128,-1,52
 331 333 331 333 282 333 c 0,53,54
 248 333 248 333 240 376 c 1,55,56
 240 391 240 391 234 406 c 1,57,58
 227 404 227 404 216 404 c 0,59,60
 193 404 193 404 193 419.5 c 128,-1,61
 193 435 193 435 210 435 c 128,-1,62
 227 435 227 435 239 428 c 1,63,64
 254 438 254 438 254 460 c 0,65,66
 254 511 254 511 190 511 c 1,67,68
 184 475 184 475 184 452 c 2,0,-1
EndSplineSet
EndChar

StartChar: copyright
Encoding: 169 169 129
Width: 448
Flags: HMW
HStem: 270 27<176.5 240.5 176.5 245.5> 340 21<201.5 222.5> 340 189<209 222.5> 510 91<209 228> 576 25<187 258>
VStem: 39 53<379 448.5> 137 40<404.5 439 404.5 448> 239 27<492 500.5> 331 50<412 481.5>
LayerCount: 2
Fore
SplineSet
234 469 m 1,0,-1
 239 497 l 1,1,2
 239 510 239 510 221 510 c 128,-1,3
 203 510 203 510 190 481 c 128,-1,4
 177 452 177 452 177 423.5 c 0,5,6
 177 361 177 361 216 361 c 0,7,8
 239 361 239 361 265 394 c 0,9,10
 271 403 271 403 277.5 403 c 128,-1,11
 284 403 284 403 284 396 c 128,-1,12
 284 389 284 389 273.5 375 c 0,13,14
 247.25 340 247.25 340 201 340 c 0,15,16
 171 340 171 340 154 360.5 c 128,-1,17
 137 381 137 381 137 406 c 0,18,19
 137 465 137 465 165.5 497 c 128,-1,20
 194 529 194 529 232 529 c 0,21,22
 249 529 249 529 257.5 519.5 c 128,-1,23
 266 510 266 510 266 495 c 128,-1,24
 266 480 266 480 258.5 469.5 c 128,-1,25
 251 459 251 459 242.5 459 c 128,-1,26
 234 459 234 459 234 469 c 1,0,-1
303 539.5 m 128,-1,28
 275 576 275 576 222 576 c 128,-1,29
 169 576 169 576 130.5 529 c 128,-1,30
 92 482 92 482 92 422.5 c 128,-1,31
 92 363 92 363 126 330 c 128,-1,32
 160 297 160 297 209.5 297 c 128,-1,33
 259 297 259 297 295 338 c 128,-1,34
 331 379 331 379 331 441 c 128,-1,27
 331 503 331 503 303 539.5 c 128,-1,28
241 601 m 0,35,36
 299 601 299 601 340 564 c 128,-1,37
 381 527 381 527 381 465 c 0,38,39
 381 382 381 382 327.5 326 c 128,-1,40
 274 270 274 270 182 270 c 0,41,42
 123 270 123 270 81 303.5 c 128,-1,43
 39 337 39 337 39 398 c 0,44,45
 39 480 39 480 92 540.5 c 128,-1,46
 145 601 145 601 241 601 c 0,35,36
EndSplineSet
EndChar

StartChar: logicalnot
Encoding: 172 172 130
Width: 455
Flags: HMW
HStem: 89 171<185 359> 216 44<185 193> 216 66
LayerCount: 2
Fore
SplineSet
337 211 m 1,0,-1
 157 216 l 2,1,2
 133 216 133 216 109 213 c 128,-1,3
 85 210 85 210 84 210 c 0,4,5
 63 210 63 210 63 230 c 0,6,7
 63 243 63 243 73 257.5 c 128,-1,8
 83 272 83 272 93 272 c 0,9,10
 94 272 94 272 107 269 c 0,11,12
 146 260 146 260 236.5 260 c 128,-1,13
 327 260 327 260 353 271 c 128,-1,14
 379 282 379 282 391 282 c 0,15,16
 401 282 401 282 401 270 c 128,-1,17
 401 258 401 258 394.5 243 c 128,-1,18
 388 228 388 228 385.5 218.5 c 128,-1,19
 383 209 383 209 377.5 169 c 128,-1,20
 372 129 372 129 364.5 109 c 128,-1,21
 357 89 357 89 344 89 c 0,22,23
 319 89 319 89 319 108 c 0,24,25
 319 121 319 121 326.5 151 c 128,-1,26
 334 181 334 181 337 211 c 1,0,-1
EndSplineSet
EndChar

StartChar: onehalf
Encoding: 189 189 131
Width: 764
Flags: HMW
HStem: -16 21G<207.5 224> -5 21G<580.5 602> 0 21G<452.5 463.5> 211 20G<171.5 190> 540 20G<494 506>
VStem: 163 69 183 49<447.5 466> 440 194<17 250> 472 39 588 46<193.5 234.5>
LayerCount: 2
Fore
SplineSet
186 7 m 0,0,1
 186 31 186 31 224 99.5 c 128,-1,2
 262 168 262 168 294 215 c 0,3,4
 394 364 394 364 464 528 c 0,5,6
 478 560 478 560 503 560 c 0,7,8
 511 560 511 560 511 550 c 128,-1,9
 511 540 511 540 489 487 c 128,-1,10
 467 434 467 434 392 288.5 c 128,-1,11
 317 143 317 143 281.5 63.5 c 128,-1,12
 246 -16 246 -16 212 -16 c 0,13,14
 204 -16 204 -16 195 -10 c 128,-1,15
 186 -4 186 -4 186 7 c 0,0,1
522 71 m 1,16,-1
 603 51 l 1,17,18
 623 51 623 51 641 80 c 0,19,20
 651 96 651 96 654 96 c 0,21,22
 662 96 662 96 662 77.5 c 128,-1,23
 662 59 662 59 646 35 c 128,-1,24
 630 11 630 11 618.5 3 c 128,-1,25
 607 -5 607 -5 594.5 -5 c 128,-1,26
 582 -5 582 -5 546.5 12 c 128,-1,27
 511 29 511 29 491 29 c 1,28,29
 478 0 478 0 458 0 c 0,30,31
 440 0 440 0 440 22 c 128,-1,32
 440 44 440 44 454.5 60 c 128,-1,33
 469 76 469 76 490 76 c 1,34,35
 503 90 503 90 526 113 c 128,-1,36
 549 136 549 136 555.5 144 c 128,-1,37
 562 152 562 152 572.5 166.5 c 0,38,39
 588 187.904761905 588 187.904761905 588 215.452380952 c 0,40,41
 588 272 588 272 544.5 272 c 128,-1,42
 501 272 501 272 501 240 c 0,43,44
 501 232 501 232 505.5 221 c 128,-1,45
 510 210 510 210 510 204 c 128,-1,46
 510 198 510 198 503.5 191 c 128,-1,47
 497 184 497 184 492 184 c 0,48,49
 482 184 482 184 477 196.5 c 128,-1,50
 472 209 472 209 472 222 c 0,51,52
 472 258 472 258 498.5 280 c 128,-1,53
 525 302 525 302 558.5 302 c 128,-1,54
 592 302 592 302 613 281.5 c 128,-1,55
 634 261 634 261 634 231.5 c 128,-1,56
 634 202 634 202 624.5 181.5 c 128,-1,57
 615 161 615 161 604.5 149.5 c 128,-1,58
 594 138 594 138 566.5 113.5 c 128,-1,59
 539 89 539 89 522 71 c 1,16,-1
232 466 m 1,60,-1
 224 361 l 1,61,62
 224 324 224 324 219 274 c 1,63,64
 213 231 213 231 175 231 c 0,65,66
 163 231 163 231 163 257 c 128,-1,67
 163 283 163 283 173 351 c 128,-1,68
 183 419 183 419 183 455 c 128,-1,69
 183 491 183 491 179 491 c 0,70,71
 169 491 169 491 127 391 c 0,72,73
 123 382 123 382 119 366.5 c 128,-1,74
 115 351 115 351 111.5 343.5 c 128,-1,75
 108 336 108 336 101 336 c 0,76,77
 84 336 84 336 84 348 c 0,78,79
 84 352 84 352 101.5 394.5 c 128,-1,80
 119 437 119 437 171 521 c 0,81,82
 181 538 181 538 212 538 c 0,83,84
 232 538 232 538 232 466 c 1,60,-1
EndSplineSet
EndChar

StartChar: onequarter
Encoding: 188 188 132
Width: 716
Flags: HMW
HStem: -16 139 -5 21G<540 553> 72 51 214 20G<168.5 187> 540 20G<494 506>
VStem: 160 69 180 49<450.5 469> 402 175<17 94> 533 44<17 19.5 17 22>
LayerCount: 2
Fore
SplineSet
186 7 m 0,0,1
 186 31 186 31 224 99.5 c 128,-1,2
 262 168 262 168 294 215 c 0,3,4
 394 364 394 364 464 528 c 0,5,6
 478 560 478 560 503 560 c 0,7,8
 511 560 511 560 511 550 c 128,-1,9
 511 540 511 540 489 487 c 128,-1,10
 467 434 467 434 392 288.5 c 128,-1,11
 317 143 317 143 281.5 63.5 c 128,-1,12
 246 -16 246 -16 212 -16 c 0,13,14
 204 -16 204 -16 195 -10 c 128,-1,15
 186 -4 186 -4 186 7 c 0,0,1
538 72 m 1,16,-1
 423 67 l 2,17,18
 402 67 402 67 402 89 c 0,19,20
 402 105 402 105 429 107 c 1,21,22
 437 127 437 127 466 193 c 128,-1,23
 495 259 495 259 498.5 268 c 128,-1,24
 502 277 502 277 504 285.5 c 128,-1,25
 506 294 506 294 508 298.5 c 0,26,27
 514.444444444 313 514.444444444 313 524.722222222 313 c 128,-1,28
 535 313 535 313 540.5 305 c 128,-1,29
 546 297 546 297 546 287 c 128,-1,30
 546 277 546 277 542.5 269 c 128,-1,31
 539 261 539 261 531.5 250 c 128,-1,32
 524 239 524 239 522 235 c 0,33,34
 481 164 481 164 462 108 c 1,35,36
 477 110 477 110 505 114.5 c 128,-1,37
 533 119 533 119 546 120 c 1,38,39
 553 208 553 208 565 208 c 0,40,41
 571 208 571 208 579 200.5 c 128,-1,42
 587 193 587 193 587 185 c 0,43,44
 587 158 587 158 582 123 c 1,45,46
 604 122 604 122 616 110.5 c 128,-1,47
 628 99 628 99 628 87 c 0,48,49
 628 68 628 68 611 68 c 1,50,-1
 577 73 l 1,51,52
 576 65 576 65 576 49 c 2,53,-1
 577 17 l 1,54,55
 575 -5 575 -5 543 -5 c 0,56,57
 533 -5 533 -5 533 17 c 128,-1,58
 533 39 533 39 538 72 c 1,16,-1
229 469 m 1,59,-1
 221 364 l 1,60,61
 221 327 221 327 216 277 c 1,62,63
 210 234 210 234 172 234 c 0,64,65
 160 234 160 234 160 260 c 128,-1,66
 160 286 160 286 170 354 c 128,-1,67
 180 422 180 422 180 458 c 128,-1,68
 180 494 180 494 176 494 c 0,69,70
 166 494 166 494 124 394 c 0,71,72
 120 385 120 385 116 369.5 c 128,-1,73
 112 354 112 354 108.5 346.5 c 128,-1,74
 105 339 105 339 98 339 c 0,75,76
 81 339 81 339 81 351 c 0,77,78
 81 355 81 355 98.5 397.5 c 128,-1,79
 116 440 116 440 168 524 c 0,80,81
 178 541 178 541 209 541 c 0,82,83
 229 541 229 541 229 469 c 1,59,-1
EndSplineSet
EndChar

StartChar: onesuperior
Encoding: 185 185 133
Width: 204
Flags: HMW
HStem: 333 21G<87.5 106> 620 20G<124 135.5>
VStem: 79 69 99 49<549.5 568>
LayerCount: 2
Fore
SplineSet
148 568 m 1,0,-1
 140 463 l 1,1,2
 140 426 140 426 135 376 c 1,3,4
 129 333 129 333 91 333 c 0,5,6
 79 333 79 333 79 359 c 128,-1,7
 79 385 79 385 89 453 c 128,-1,8
 99 521 99 521 99 557 c 128,-1,9
 99 593 99 593 95 593 c 0,10,11
 85 593 85 593 43 493 c 0,12,13
 39 484 39 484 35 468.5 c 128,-1,14
 31 453 31 453 27.5 445.5 c 128,-1,15
 24 438 24 438 17 438 c 0,16,17
 0 438 0 438 0 450 c 0,18,19
 0 454 0 454 17.5 496.5 c 128,-1,20
 35 539 35 539 87 623 c 0,21,22
 97 640 97 640 128 640 c 0,23,24
 148 640 148 640 148 568 c 1,0,-1
EndSplineSet
EndChar

StartChar: threequarters
Encoding: 190 190 134
Width: 697
Flags: HMW
HStem: -16 139 -5 21G<540 553> 72 51 72 241 236 26<134 173> 236 63<85.5 173> 403 21<169.5 221> 468 74<108.5 113.5> 540 20G<494 506>
VStem: 75 194<270 364.5> 89 180<309 518> 219 50<312.5 347> 402 175<17 94> 533 44<17 19.5 17 22>
LayerCount: 2
Fore
SplineSet
186 7 m 0,0,1
 186 31 186 31 224 99.5 c 128,-1,2
 262 168 262 168 294 215 c 0,3,4
 394 364 394 364 464 528 c 0,5,6
 478 560 478 560 503 560 c 0,7,8
 511 560 511 560 511 550 c 128,-1,9
 511 540 511 540 489 487 c 128,-1,10
 467 434 467 434 392 288.5 c 128,-1,11
 317 143 317 143 281.5 63.5 c 128,-1,12
 246 -16 246 -16 212 -16 c 0,13,14
 204 -16 204 -16 195 -10 c 128,-1,15
 186 -4 186 -4 186 7 c 0,0,1
112 491 m 1,16,-1
 117 473 l 1,17,18
 117 468 117 468 112 468 c 0,19,20
 102 468 102 468 95.5 483.5 c 128,-1,21
 89 499 89 499 89 511 c 128,-1,22
 89 523 89 523 96.5 532.5 c 128,-1,23
 104 542 104 542 115.5 542 c 128,-1,24
 127 542 127 542 162.5 530 c 128,-1,25
 198 518 198 518 222 518 c 1,26,27
 233 535 233 535 244 535 c 128,-1,28
 255 535 255 535 261 525 c 128,-1,29
 267 515 267 515 267 502 c 128,-1,30
 267 489 267 489 253.5 480 c 128,-1,31
 240 471 240 471 223 471 c 1,32,33
 217 464 217 464 203 449.5 c 128,-1,34
 189 435 189 435 178 423 c 1,35,36
 188 424 188 424 199 424 c 0,37,38
 231 424 231 424 250 400.5 c 128,-1,39
 269 377 269 377 269 335.5 c 128,-1,40
 269 294 269 294 231 265 c 128,-1,41
 193 236 193 236 137 236 c 0,42,43
 111 236 111 236 93 250 c 128,-1,44
 75 264 75 264 75 275.5 c 128,-1,45
 75 287 75 287 79.5 293 c 128,-1,46
 84 299 84 299 94 299 c 128,-1,47
 104 299 104 299 119 280.5 c 128,-1,48
 134 262 134 262 150 262 c 0,49,50
 219 262 219 262 219 334 c 0,51,52
 219 358 219 358 208 380.5 c 128,-1,53
 197 403 197 403 177 403 c 1,54,-1
 143 398 l 1,55,56
 132 398 132 398 132 408 c 0,57,58
 132 413 132 413 136 417 c 0,59,60
 169 447 169 447 190 478 c 1,61,-1
 125 502 l 1,62,63
 112 502 112 502 112 491 c 1,16,-1
538 72 m 1,64,-1
 423 67 l 2,65,66
 402 67 402 67 402 89 c 0,67,68
 402 105 402 105 429 107 c 1,69,70
 437 127 437 127 466 193 c 128,-1,71
 495 259 495 259 498.5 268 c 128,-1,72
 502 277 502 277 504 285.5 c 128,-1,73
 506 294 506 294 508 298.5 c 0,74,75
 514.444444444 313 514.444444444 313 524.722222222 313 c 128,-1,76
 535 313 535 313 540.5 305 c 128,-1,77
 546 297 546 297 546 287 c 128,-1,78
 546 277 546 277 542.5 269 c 128,-1,79
 539 261 539 261 531.5 250 c 128,-1,80
 524 239 524 239 522 235 c 0,81,82
 481 164 481 164 462 108 c 1,83,84
 477 110 477 110 505 114.5 c 128,-1,85
 533 119 533 119 546 120 c 1,86,87
 553 208 553 208 565 208 c 0,88,89
 571 208 571 208 579 200.5 c 128,-1,90
 587 193 587 193 587 185 c 0,91,92
 587 158 587 158 582 123 c 1,93,94
 604 122 604 122 616 110.5 c 128,-1,95
 628 99 628 99 628 87 c 0,96,97
 628 68 628 68 611 68 c 1,98,-1
 577 73 l 1,99,100
 576 65 576 65 576 49 c 2,101,-1
 577 17 l 1,102,103
 575 -5 575 -5 543 -5 c 0,104,105
 533 -5 533 -5 533 17 c 128,-1,106
 533 39 533 39 538 72 c 1,64,-1
EndSplineSet
EndChar

StartChar: threesuperior
Encoding: 179 179 135
Width: 209
Flags: HMW
HStem: 334 26<41 80.5 41 83> 334 63<-7.5 83> 499 23<73.5 126> 569 71
VStem: -18 192<368 462.5> -6 180<407 616> 124 50<410.5 445>
LayerCount: 2
Fore
SplineSet
17 589 m 1,0,-1
 22 571 l 1,1,2
 22 566 22 566 17 566 c 0,3,4
 7 566 7 566 0.5 581.5 c 128,-1,5
 -6 597 -6 597 -6 609 c 128,-1,6
 -6 621 -6 621 1.5 630.5 c 128,-1,7
 9 640 9 640 20.5 640 c 128,-1,8
 32 640 32 640 67.5 628 c 128,-1,9
 103 616 103 616 127 616 c 1,10,11
 138 630 138 630 152 630 c 0,12,13
 172 630 172 630 172 598 c 0,14,15
 172 587 172 587 158.5 578 c 128,-1,16
 145 569 145 569 128 569 c 1,17,18
 122 562 122 562 108 547.5 c 128,-1,19
 94 533 94 533 83 521 c 1,20,21
 93 522 93 522 104 522 c 0,22,23
 136 522 136 522 155 498.5 c 128,-1,24
 174 475 174 475 174 433.5 c 128,-1,25
 174 392 174 392 138 363 c 128,-1,26
 102 334 102 334 48 334 c 0,27,28
 22 334 22 334 2 348 c 128,-1,29
 -18 362 -18 362 -18 373.5 c 128,-1,30
 -18 385 -18 385 -13.5 391 c 128,-1,31
 -9 397 -9 397 1 397 c 128,-1,32
 11 397 11 397 26 378.5 c 128,-1,33
 41 360 41 360 57 360 c 0,34,35
 124 360 124 360 124 432 c 0,36,37
 124 455 124 455 112.5 477 c 128,-1,38
 101 499 101 499 81 499 c 1,39,-1
 47 494 l 1,40,41
 37 494 37 494 37 506 c 0,42,43
 37 511 37 511 41 515 c 0,44,45
 74 545 74 545 95 576 c 1,46,-1
 30 600 l 1,47,48
 17 600 17 600 17 589 c 1,0,-1
EndSplineSet
EndChar

StartChar: twosuperior
Encoding: 178 178 136
Width: 271
Flags: HMW
HStem: 333 21G<140.5 162> 610 30<98.5 120.5>
VStem: 0 194<355 588> 32 29<570.5 585> 148 46<531.5 572.5>
LayerCount: 2
Fore
SplineSet
82 409 m 1,0,-1
 163 389 l 1,1,2
 183 389 183 389 201 418 c 0,3,4
 211 434 211 434 214 434 c 0,5,6
 222 434 222 434 222 414.5 c 128,-1,7
 222 395 222 395 206.5 372 c 128,-1,8
 191 349 191 349 179.5 341 c 128,-1,9
 168 333 168 333 155 333 c 128,-1,10
 142 333 142 333 106 350 c 128,-1,11
 70 367 70 367 51 367 c 1,12,13
 38 338 38 338 18 338 c 0,14,15
 0 338 0 338 0 360 c 128,-1,16
 0 382 0 382 14.5 398 c 128,-1,17
 29 414 29 414 50 414 c 1,18,19
 63 428 63 428 86 451 c 128,-1,20
 109 474 109 474 115.5 482 c 128,-1,21
 122 490 122 490 132.5 504.5 c 0,22,23
 148 525.904761905 148 525.904761905 148 553.452380952 c 0,24,25
 148 610 148 610 104.5 610 c 128,-1,26
 61 610 61 610 61 578 c 0,27,28
 61 570 61 570 65.5 559 c 128,-1,29
 70 548 70 548 70 542 c 128,-1,30
 70 536 70 536 63.5 529 c 128,-1,31
 57 522 57 522 52 522 c 0,32,33
 42 522 42 522 37 534.5 c 128,-1,34
 32 547 32 547 32 560 c 0,35,36
 32 596 32 596 58.5 618 c 128,-1,37
 85 640 85 640 118.5 640 c 128,-1,38
 152 640 152 640 173 619.5 c 128,-1,39
 194 599 194 599 194 569.5 c 128,-1,40
 194 540 194 540 184.5 519.5 c 128,-1,41
 175 499 175 499 164.5 487.5 c 128,-1,42
 154 476 154 476 126.5 451.5 c 128,-1,43
 99 427 99 427 82 409 c 1,0,-1
EndSplineSet
EndChar

StartChar: paragraph
Encoding: 182 182 137
Width: 649
Flags: HMW
HStem: -5 40<182.5 253.5 182.5 271> -5 148<108 271> 281 35<152.5 183.5 152.5 206.5> 281 57<145 235.5> 469 40 469 96 514 70<165.5 211> 601 20G<343.5 363>
VStem: 46 43<388 440 380.5 468.5> 46 201<309.5 468.5> 73 63<77.5 97 77.5 99.5> 307 69<219 493> 414 104<19 182> 464 54
LayerCount: 2
Fore
SplineSet
511 428 m 2,0,-1
 518 165 l 1,1,2
 518 -5 518 -5 455 -5 c 0,3,4
 439 -5 439 -5 426.5 4.5 c 128,-1,5
 414 14 414 14 414 30 c 128,-1,6
 414 46 414 46 423 62 c 1,7,8
 450 104 450 104 457 187 c 128,-1,9
 464 270 464 270 464 356 c 128,-1,10
 464 442 464 442 468 470 c 1,11,12
 424 471 424 471 374 480 c 1,13,14
 376 342 376 342 376 291.5 c 128,-1,15
 376 241 376 241 372.5 204 c 128,-1,16
 369 167 369 167 357 126.5 c 128,-1,17
 345 86 345 86 325.5 58.5 c 128,-1,18
 306 31 306 31 271.5 13 c 128,-1,19
 237 -5 237 -5 191.5 -5 c 128,-1,20
 146 -5 146 -5 109.5 16 c 128,-1,21
 73 37 73 37 73 81 c 0,22,23
 73 108 73 108 87 125.5 c 128,-1,24
 101 143 101 143 124.5 143 c 128,-1,25
 148 143 148 143 148 132 c 0,26,27
 148 127 148 127 142 112.5 c 128,-1,28
 136 98 136 98 136 83.5 c 128,-1,29
 136 69 136 69 154.5 52 c 128,-1,30
 173 35 173 35 208 35 c 0,31,32
 307 35 307 35 307 326 c 2,33,-1
 307 493 l 1,34,35
 212 514 212 514 195 514 c 0,36,37
 150 514 150 514 119.5 484.5 c 128,-1,38
 89 455 89 455 89 412.5 c 128,-1,39
 89 370 89 370 115.5 343 c 128,-1,40
 142 316 142 316 163 316 c 128,-1,41
 184 316 184 316 200.5 327 c 128,-1,42
 217 338 217 338 230 338 c 0,43,44
 247 338 247 338 247 320.5 c 128,-1,45
 247 303 247 303 231.5 292 c 128,-1,46
 216 281 216 281 183 281 c 0,47,48
 128 281 128 281 87 325 c 128,-1,49
 46 369 46 369 46 422 c 0,50,51
 46 496 46 496 82 540 c 128,-1,52
 118 584 118 584 193 584 c 0,53,54
 235 584 235 584 313 555 c 1,55,56
 325 621 325 621 356 621 c 0,57,58
 374 621 374 621 374 535 c 1,59,60
 436 517 436 517 478 511 c 1,61,62
 501 565 501 565 557 565 c 0,63,64
 576 565 576 565 586 554.5 c 128,-1,65
 596 544 596 544 596 531 c 0,66,67
 596 504 596 504 575 487 c 128,-1,68
 554 470 554 470 512 469 c 1,69,70
 511 455 511 455 511 428 c 2,0,-1
553 541 m 0,71,72
 528 541 528 541 518 509 c 1,73,-1
 524 509 l 2,74,75
 568 509 568 509 568 528 c 0,76,77
 568 541 568 541 553 541 c 0,71,72
EndSplineSet
EndChar

StartChar: ordfeminine
Encoding: 170 170 138
Width: 392
Flags: HMW
HStem: 333 45<93.5 111> 606 34<122.5 146>
VStem: 0 55<455 508> 186 56 186 142
LayerCount: 2
Fore
SplineSet
142 360.5 m 128,-1,1
 120 333 120 333 85.5 333 c 128,-1,2
 51 333 51 333 25.5 365 c 128,-1,3
 0 397 0 397 0 464.5 c 128,-1,4
 0 532 0 532 41 586 c 128,-1,5
 82 640 82 640 140 640 c 0,6,7
 153 640 153 640 171.5 629 c 128,-1,8
 190 618 190 618 203 603 c 1,9,10
 209 612 209 612 224.5 626 c 128,-1,11
 240 640 240 640 251 640 c 0,12,13
 265 640 265 640 265 607 c 0,14,15
 265 600 265 600 259.5 575.5 c 128,-1,16
 254 551 254 551 248 537.5 c 128,-1,17
 242 524 242 524 242 399 c 0,18,19
 242 376 242 376 247 376 c 0,20,21
 274 377 274 377 309 447 c 0,22,23
 314 458 314 458 322 458 c 0,24,25
 328 458 328 458 328 448 c 0,26,27
 328 426 328 426 295 379.5 c 128,-1,28
 262 333 262 333 232.5 333 c 128,-1,29
 203 333 203 333 189 347 c 0,30,31
 184 352 184 352 184 376 c 128,-1,32
 184 400 184 400 186 444 c 1,33,0
 164 388 164 388 142 360.5 c 128,-1,1
136 606 m 0,34,35
 111 606 111 606 83 571 c 128,-1,36
 55 536 55 536 55 488 c 128,-1,37
 55 440 55 440 70.5 409 c 128,-1,38
 86 378 86 378 109 378 c 0,39,40
 137 378 137 378 192 518 c 1,41,42
 193 539 193 539 197 566 c 1,43,44
 190 580 190 580 170.5 593 c 128,-1,45
 151 606 151 606 136 606 c 0,34,35
EndSplineSet
EndChar

StartChar: ordmasculine
Encoding: 186 186 139
Width: 320
Flags: HMW
HStem: 333 37<118 164 118 165> 473 33<164 221> 473 150<94 195.5> 613 27<175.5 188.5>
VStem: 9 61<447 491.5 447 499> 98 43<554.5 559.5> 221 56<520 526>
LayerCount: 2
Fore
SplineSet
277 520 m 1,0,1
 288 524 288 524 306.5 534.5 c 128,-1,2
 325 545 325 545 329.5 545 c 128,-1,3
 334 545 334 545 334 536.5 c 128,-1,4
 334 528 334 528 313.5 513.5 c 128,-1,5
 293 499 293 499 274 491 c 1,6,7
 265 421 265 421 225 377 c 128,-1,8
 185 333 185 333 117 333 c 0,9,10
 66 333 66 333 37.5 370.5 c 128,-1,11
 9 408 9 408 9 465 c 128,-1,12
 9 522 9 522 43.5 572.5 c 128,-1,13
 78 623 78 623 132 623 c 1,14,15
 158 640 158 640 191 640 c 128,-1,16
 224 640 224 640 250.5 608 c 128,-1,17
 277 576 277 576 277 520 c 1,0,1
136 370 m 0,18,19
 207 370 207 370 219 475 c 1,20,21
 210 473 210 473 191 473 c 0,22,23
 151 473 151 473 124.5 496 c 128,-1,24
 98 519 98 519 98 546.5 c 128,-1,25
 98 574 98 574 107 592 c 1,26,27
 70 562 70 562 70 477 c 0,28,29
 70 432 70 432 89.5 401 c 128,-1,30
 109 370 109 370 136 370 c 0,18,19
221 506 m 1,31,32
 221 543 221 543 208 578 c 128,-1,33
 195 613 195 613 171 613 c 0,34,35
 157 613 157 613 149 600.5 c 128,-1,36
 141 588 141 588 141 574 c 0,37,38
 141 545 141 545 164 525.5 c 128,-1,39
 187 506 187 506 221 506 c 1,31,32
EndSplineSet
EndChar

StartChar: mu
Encoding: 181 181 140
AltUni2: 0003bc.ffffffff.0
Width: 457
Flags: HMW
HStem: -281 21G<-9.5 10.5> -5 53<169.5 186.5> 345 20G<133.5 150.5 351.5 368.5>
LayerCount: 2
Fore
SplineSet
354 46 m 0,0,1
 372 46 372 46 402 87.5 c 128,-1,2
 432 129 432 129 461.5 194.5 c 128,-1,3
 491 260 491 260 497.5 260 c 128,-1,4
 504 260 504 260 504 252 c 0,5,6
 504 224 504 224 475 163 c 0,7,8
 396 -5 396 -5 341 -5 c 0,9,10
 302 -5 302 -5 282 11 c 1,11,12
 275 18 275 18 275 56.5 c 128,-1,13
 275 95 275 95 277 117 c 1,14,15
 224 -5 224 -5 163 -5 c 0,16,17
 128 -5 128 -5 104 46 c 1,18,19
 95 -11 95 -11 84 -86 c 128,-1,20
 73 -161 73 -161 70 -178 c 0,21,22
 63 -221 63 -221 40.5 -251 c 128,-1,23
 18 -281 18 -281 1.5 -281 c 128,-1,24
 -15 -281 -15 -281 -26.5 -274 c 128,-1,25
 -38 -267 -38 -267 -38 -256.5 c 128,-1,26
 -38 -246 -38 -246 -21.5 -223 c 128,-1,27
 -5 -200 -5 -200 0.5 -184.5 c 128,-1,28
 6 -169 6 -169 17.5 -126 c 0,29,30
 56.0565723794 18.1680532446 56.0565723794 18.1680532446 78 148 c 1,31,32
 71 198 71 198 71 248 c 128,-1,33
 71 298 71 298 82.5 315.5 c 128,-1,34
 94 333 94 333 112 349 c 128,-1,35
 130 365 130 365 144 365 c 0,36,37
 163 365 163 365 163 337 c 128,-1,38
 163 309 163 309 152 265.5 c 128,-1,39
 141 222 141 222 134 204 c 1,40,41
 134 138 134 138 148 93 c 128,-1,42
 162 48 162 48 188 48 c 0,43,44
 209 48 209 48 230.5 84.5 c 128,-1,45
 252 121 252 121 284 206 c 1,46,47
 293 307 293 307 298.5 315 c 128,-1,48
 304 323 304 323 326 344 c 128,-1,49
 348 365 348 365 362.5 365 c 128,-1,50
 377 365 377 365 377 327 c 0,51,52
 377 318 377 318 371.5 289 c 128,-1,53
 366 260 366 260 357 241.5 c 128,-1,54
 348 223 348 223 348 73 c 0,55,56
 348 46 348 46 354 46 c 0,0,1
EndSplineSet
EndChar

StartChar: plusminus
Encoding: 177 177 141
Width: 500
Flags: HMW
HStem: 109 21G<296 361> 115 45<186 200.5> 115 62 307 45<276 378> 307 154<113.5 272.5 258 378>
LayerCount: 2
Fore
SplineSet
368 307 m 2,0,-1
 272 309 l 1,1,-1
 263 248 l 2,2,3
 255 199 255 199 214 199 c 0,4,5
 206 199 206 199 198 205.5 c 128,-1,6
 190 212 190 212 190 219.5 c 128,-1,7
 190 227 190 227 194 236 c 0,8,9
 205.254237288 261.322033898 205.254237288 261.322033898 215 312 c 1,10,11
 155.666666667 312 155.666666667 312 139.833333333 309.5 c 128,-1,12
 124 307 124 307 117.5 307 c 128,-1,13
 111 307 111 307 104.5 314.5 c 128,-1,14
 98 322 98 322 98 330.5 c 128,-1,15
 98 339 98 339 109.5 347.5 c 128,-1,16
 121 356 121 356 127.5 356 c 128,-1,17
 134 356 134 356 141 355 c 0,18,19
 162 352 162 352 222 352 c 1,20,21
 230 406 230 406 230 435 c 0,22,23
 230 447 230 447 241 454 c 128,-1,24
 252 461 252 461 269 461 c 0,25,26
 280 461 280 461 280 414 c 0,27,28
 280 396 280 396 276 352 c 1,29,30
 347 352 347 352 368.5 357.5 c 128,-1,31
 390 363 390 363 392 363 c 0,32,33
 403 363 403 363 403 351 c 128,-1,34
 403 339 403 339 392.5 323 c 128,-1,35
 382 307 382 307 368 307 c 2,0,-1
159 115 m 1,36,-1
 87 111 l 1,37,38
 67 111 67 111 67 126 c 0,39,40
 67 136 67 136 77 152.5 c 128,-1,41
 87 169 87 169 97 169 c 0,42,43
 98 169 98 169 110.5 166.5 c 0,44,45
 143 160 143 160 233 160 c 128,-1,46
 323 160 323 160 349 168.5 c 128,-1,47
 375 177 375 177 383.5 177 c 128,-1,48
 392 177 392 177 392 165.5 c 128,-1,49
 392 154 392 154 378.5 131.5 c 128,-1,50
 365 109 365 109 351 109 c 2,51,-1
 159 115 l 1,36,-1
EndSplineSet
EndChar

StartChar: oslash
Encoding: 248 248 142
Width: 364
Flags: HMW
HStem: -62 21G<79.5 97.5> 332 33<136.5 171.5> 401 20G<222 234.5>
VStem: 0 71<146 195.5> 251 68<173 221>
LayerCount: 2
Fore
SplineSet
81 3 m 1,0,1
 43 20 43 20 21.5 60.5 c 128,-1,2
 0 101 0 101 0 144 c 128,-1,3
 0 187 0 187 10 222.5 c 128,-1,4
 20 258 20 258 40 291 c 128,-1,5
 60 324 60 324 95.5 344.5 c 128,-1,6
 131 365 131 365 177 365 c 1,7,-1
 190 364 l 1,8,9
 204 421 204 421 231 421 c 0,10,11
 238 421 238 421 238 411.5 c 128,-1,12
 238 402 238 402 227 360 c 1,13,14
 265 353 265 353 292 315 c 128,-1,15
 319 277 319 277 319 232 c 0,16,17
 319 139 319 139 272 72 c 128,-1,18
 225 5 225 5 143 -3 c 1,19,20
 120 -62 120 -62 87 -62 c 0,21,22
 63 -62 63 -62 63 -39 c 0,23,24
 63 -24 63 -24 81 3 c 1,0,1
112 48 m 1,25,26
 135.846153846 108.807692308 135.846153846 108.807692308 185 330 c 1,27,28
 179 332 179 332 169 332 c 0,29,30
 125 332 125 332 98 278 c 128,-1,31
 71 224 71 224 71 178 c 128,-1,32
 71 132 71 132 82 96 c 128,-1,33
 93 60 93 60 112 48 c 1,25,26
224 92.5 m 128,-1,35
 251 147 251 147 251 193 c 0,36,37
 251 302.5 251 302.5 214 321 c 1,38,39
 171 125 171 125 149 37 c 1,40,34
 197 38 197 38 224 92.5 c 128,-1,35
EndSplineSet
EndChar

StartChar: Oslash
Encoding: 216 216 143
Width: 601
Flags: HMW
HStem: -86 127<198 341> -9 50 546 46<239.5 318> 633 20G<370 385.5>
VStem: 36 71<211 308.5> 472 79<262.5 351.5>
LayerCount: 2
Fore
SplineSet
345 592 m 1,0,1
 358 653 358 653 380 653 c 0,2,3
 398 653 398 653 398 634 c 0,4,5
 398 625 398 625 387 588 c 1,6,7
 464 574 464 574 507.5 512.5 c 128,-1,8
 551 451 551 451 551 356 c 128,-1,9
 551 261 551 261 517.5 181.5 c 128,-1,10
 484 102 484 102 418 49.5 c 128,-1,11
 352 -3 352 -3 264 -9 c 1,12,13
 255 -86 255 -86 207 -86 c 0,14,15
 193 -86 193 -86 183 -78.5 c 128,-1,16
 173 -71 173 -71 173 -54 c 128,-1,17
 173 -37 173 -37 198 -5 c 1,18,19
 124 10 124 10 80 72.5 c 128,-1,20
 36 135 36 135 36 211.5 c 128,-1,21
 36 288 36 288 54 353 c 128,-1,22
 72 418 72 418 108 472.5 c 128,-1,23
 144 527 144 527 205 559.5 c 128,-1,24
 266 592 266 592 345 592 c 1,0,1
315 546 m 0,25,26
 208 546 208 546 157.5 467 c 128,-1,27
 107 388 107 388 107 258 c 0,28,29
 107 190 107 190 142 132.5 c 128,-1,30
 177 75 177 75 227 52 c 1,31,32
 255 139 255 139 290.5 324.5 c 128,-1,33
 326 510 326 510 334 544 c 1,34,35
 322 546 322 546 315 546 c 0,25,26
373 530 m 1,36,37
 350.777777778 438.333333333 350.777777778 438.333333333 317.888888889 265.666666667 c 128,-1,38
 285 93 285 93 274 41 c 1,39,40
 371 41 371 41 421.5 111 c 128,-1,41
 472 181 472 181 472 297 c 0,42,43
 472 378 472 378 445 441 c 128,-1,44
 418 504 418 504 373 530 c 1,36,37
EndSplineSet
EndChar

StartChar: Euro
Encoding: 8364 8364 144
Width: 457
Flags: HMW
HStem: -12 50<271.5 305> 152 49<231.5 334> 161 40 161 46 282 44 282 60<287 368> 433 87<268.5 434> 484 36<285.5 341.5>
LayerCount: 2
Fore
SplineSet
73 337 m 1,0,-1
 110 331 l 1,1,2
 134 414 134 414 189 467 c 128,-1,3
 244 520 244 520 331 520 c 0,4,5
 368 520 368 520 409 501.5 c 128,-1,6
 450 483 450 483 450 456 c 0,7,8
 450 446 450 446 443.5 439.5 c 128,-1,9
 437 433 437 433 424 433 c 128,-1,10
 411 433 411 433 396.5 447.5 c 128,-1,11
 382 462 382 462 374.5 468 c 0,12,13
 354.5 484 354.5 484 324 484 c 0,14,15
 270 484 270 484 231.5 439 c 128,-1,16
 193 394 193 394 175 327 c 1,17,18
 188 326 188 326 248 326 c 128,-1,19
 308 326 308 326 334 334 c 128,-1,20
 360 342 360 342 365 342 c 0,21,22
 376 342 376 342 376 329 c 128,-1,23
 376 316 376 316 366 299 c 128,-1,24
 356 282 356 282 341 282 c 0,25,26
 280 282 280 282 235.5 285.5 c 128,-1,27
 191 289 191 289 167 289 c 1,28,29
 163 265 163 265 163 241 c 128,-1,30
 163 217 163 217 164 207 c 1,31,32
 239 201 239 201 258.5 201 c 128,-1,33
 278 201 278 201 311 204 c 1,34,35
 318 206 318 206 330.5 210 c 128,-1,36
 343 214 343 214 348 214 c 0,37,38
 357 214 357 214 357 204 c 0,39,40
 357 152 357 152 318.5 152 c 128,-1,41
 280 152 280 152 233 158.5 c 128,-1,42
 186 165 186 165 170 166 c 1,43,44
 184 106 184 106 219.5 72 c 128,-1,45
 255 38 255 38 298.5 38 c 128,-1,46
 342 38 342 38 366 48 c 0,47,48
 405 66 405 66 412 66 c 128,-1,49
 419 66 419 66 424 60.5 c 128,-1,50
 429 55 429 55 429 49 c 0,51,52
 429 23 429 23 378 5.5 c 128,-1,53
 327 -12 327 -12 275 -12 c 0,54,55
 196 -12 196 -12 150.5 36.5 c 128,-1,56
 105 85 105 85 94 161 c 1,57,58
 43.6666666667 161 43.6666666667 161 36 172.5 c 0,59,60
 33 177 33 177 33 185 c 0,61,62
 33 208 33 208 92 211 c 1,63,64
 92 241 92 241 99 287 c 1,65,66
 67 283 67 283 66 283 c 0,67,68
 44 283 44 283 44 301 c 0,69,70
 44 312 44 312 53 324.5 c 128,-1,71
 62 337 62 337 73 337 c 1,0,-1
EndSplineSet
EndChar

StartChar: divide
Encoding: 247 247 145
Width: 384
Flags: HMW
HStem: 87 88<180.5 190.5> 221 44<150 165> 221 66 308 88<195.5 205.5>
VStem: 131 97<123.5 144> 146 97<344.5 365>
LayerCount: 2
Fore
SplineSet
145 96.5 m 128,-1,1
 131 106 131 106 131 128 c 128,-1,2
 131 150 131 150 151 162.5 c 128,-1,3
 171 175 171 175 188 175 c 128,-1,4
 205 175 205 175 216.5 165.5 c 128,-1,5
 228 156 228 156 228 142 c 0,6,7
 228 87 228 87 174 87 c 0,8,0
 159 87 159 87 145 96.5 c 128,-1,1
160 317.5 m 128,-1,10
 146 327 146 327 146 349 c 128,-1,11
 146 371 146 371 166 383.5 c 128,-1,12
 186 396 186 396 203 396 c 128,-1,13
 220 396 220 396 231.5 386.5 c 128,-1,14
 243 377 243 377 243 363 c 0,15,16
 243 308 243 308 189 308 c 0,17,9
 174 308 174 308 160 317.5 c 128,-1,10
121.5 268 m 128,-1,19
 158 265 158 265 225 265 c 128,-1,20
 292 265 292 265 318 276 c 128,-1,21
 344 287 344 287 353 287 c 128,-1,22
 362 287 362 287 362 272.5 c 128,-1,23
 362 258 362 258 348 235 c 128,-1,24
 334 212 334 212 320 212 c 0,25,26
 260 212 260 212 211 216.5 c 128,-1,27
 162 221 162 221 130 221 c 128,-1,28
 98 221 98 221 74 218 c 128,-1,29
 50 215 50 215 49 215 c 0,30,31
 28 215 28 215 28 235 c 0,32,33
 28 248 28 248 38 262.5 c 128,-1,34
 48 277 48 277 58 277 c 0,35,36
 59 277 59 277 72 274 c 128,-1,18
 85 271 85 271 121.5 268 c 128,-1,19
EndSplineSet
EndChar

StartChar: germandbls
Encoding: 223 223 146
Width: 404
Flags: HMW
HStem: -151 177<-10 214> -5 31<167.5 214 167.5 228> -5 60<109 228> 294 71<158.5 167.5> 560 40<163 230>
VStem: 1 69 120 239<137 333> 268 65<478.5 505> 268 91
LayerCount: 2
Fore
SplineSet
129.5 565.5 m 128,-1,1
 174 600 174 600 227 600 c 0,2,3
 333 600 333 600 333 501 c 0,4,5
 333 467 333 467 314 424 c 128,-1,6
 295 381 295 381 264 349 c 1,7,8
 359 309 359 309 359 189 c 0,9,10
 359 108 359 108 307 51.5 c 128,-1,11
 255 -5 255 -5 168 -5 c 0,12,13
 145 -5 145 -5 120 5.5 c 128,-1,14
 95 16 95 16 95 31 c 0,15,16
 95 55 95 55 114 55 c 0,17,18
 124 55 124 55 145 40.5 c 128,-1,19
 166 26 166 26 183 26 c 0,20,21
 226 26 226 26 252.5 75 c 128,-1,22
 279 124 279 124 279 181 c 0,23,24
 279 280 279 280 220 313 c 1,25,26
 188 294 188 294 154 294 c 128,-1,27
 120 294 120 294 120 322 c 0,28,29
 120 340 120 340 135 352.5 c 128,-1,30
 150 365 150 365 175 365 c 128,-1,31
 200 365 200 365 227 360 c 1,32,33
 248 384 248 384 258 418 c 128,-1,34
 268 452 268 452 268 485 c 128,-1,35
 268 518 268 518 253.5 539 c 128,-1,36
 239 560 239 560 214 560 c 0,37,38
 142 560 142 560 107 411.5 c 128,-1,39
 72 263 72 263 70 22 c 1,40,41
 67 -151 67 -151 4 -151 c 0,42,43
 -42 -151 -42 -151 -43 -112 c 0,44,45
 -43 -100 -43 -100 -35 -85.5 c 128,-1,46
 -27 -71 -27 -71 -21.5 -58.5 c 128,-1,47
 -16 -46 -16 -46 -12.5 -29.5 c 128,-1,48
 -9 -13 -9 -13 -7 -4 c 128,-1,49
 -5 5 -5 5 -3.5 26.5 c 128,-1,50
 -2 48 -2 48 -1.5 54.5 c 0,51,52
 1 87 1 87 3 159.5 c 128,-1,53
 5 232 5 232 18.5 315.5 c 128,-1,54
 32 399 32 399 58.5 465 c 128,-1,0
 85 531 85 531 129.5 565.5 c 128,-1,1
EndSplineSet
EndChar

